<?xml version="1.0" encoding="UTF-8"?>
<svg id="Layer_1" data-name="Layer 1" xmlns="http://www.w3.org/2000/svg" viewBox="0 0 1000 1000">
  <defs>
    <style>
      .cls-1 {
        fill: none;
        stroke: #000;
        stroke-miterlimit: 10;
        stroke-width: 50px;
      }
    </style>
  </defs>
  <path class="cls-1" d="M750,171.53v439.25c0,16.78-13.6,30.38-30.38,30.38h-74.95v93.84h9.13c17.1,0,32.58,6.93,43.78,18.14,11.21,11.21,18.14,26.69,18.14,43.79,0,34.2-27.72,61.92-61.92,61.92h-110.63c-12.34,0-22.35-10-22.35-22.35v-195.34h-41.39v195.34c0,12.34-10.01,22.35-22.35,22.35h-110.62c-34.2,0-61.92-27.72-61.92-61.92,0-17.1,6.93-32.58,18.14-43.79,11.21-11.21,26.69-18.14,43.79-18.14h9.13v-93.84h-75.21c-16.77,0-30.38-13.6-30.38-30.38V171.53c0-16.77,13.6-30.38,30.38-30.38h439.25c16.78,0,30.38,13.6,30.38,30.38Z"/>
</svg>