<?xml version="1.0" encoding="UTF-8"?>
<svg id="Layer_1" data-name="Layer 1" xmlns="http://www.w3.org/2000/svg" viewBox="0 0 1000 1000">
  <defs>
    <style>
      .cls-1 {
        fill: none;
        stroke: #000;
        stroke-miterlimit: 10;
        stroke-width: 50px;
      }
    </style>
  </defs>
  <ellipse class="cls-1" cx="269.77" cy="500" rx="191.97" ry="250"/>
  <path d="M269.77,408.34c-44.53,0-80.62,41.04-80.62,91.66s36.1,91.66,80.62,91.66,80.62-41.04,80.62-91.66-36.1-91.66-80.62-91.66ZM269.77,536.28c-20.04,0-36.28-16.24-36.28-36.28s16.24-36.28,36.28-36.28,36.28,16.24,36.28,36.28-16.24,36.28-36.28,36.28Z"/>
  <ellipse class="cls-1" cx="730.23" cy="500" rx="191.97" ry="250"/>
  <path d="M730.23,408.34c-44.53,0-80.62,41.04-80.62,91.66s36.1,91.66,80.62,91.66,80.62-41.04,80.62-91.66-36.1-91.66-80.62-91.66ZM730.23,536.28c-20.04,0-36.28-16.24-36.28-36.28s16.24-36.28,36.28-36.28,36.28,16.24,36.28,36.28-16.24,36.28-36.28,36.28Z"/>
</svg>
