<?xml version="1.0" encoding="UTF-8"?>
<svg id="Layer_1" data-name="Layer 1" xmlns="http://www.w3.org/2000/svg" viewBox="0 0 1000 1000">
  <path d="M406.3,400.07c1.15,0,2.29.15,3.42.46,2.62.71,4.48,2.08,6.68,3.7,2.68,1.97,9.82,7.9,14.07,25.09,2.21,8.95,7.35,29.74-1.82,52.64-6.59,16.45-17.84,27.22-32.68,38.38-23.82,17.93-77.67,58.47-160.66,60.68-4.64.12-9.2.24-13.78.24-14.7,0-29.5-1.16-46.9-6.85-13.99-4.57-65.75-21.48-83.24-71.58-8.29-23.73-5.81-46.08-1.81-61.72.3-1.17,1.23-1.71,2.17-1.71,1.15,0,2.31.81,2.32,2.29.08,14.85,3.36,35.83,17.94,54.73,15.35,19.9,35.43,27.1,44.35,30.15,11.87,4.06,23.79,5.73,35.41,5.73,50.63,0,95.2-31.76,101.25-36.07,7.59-5.41,22.61-17.2,38.38-31.51,11.38-10.32,20.29-19.35,26.19-25.54,23.44-23.57,36.96-39.1,48.7-39.1M406.3,350.07c-24.75,0-42.69,14.63-48.59,19.44-8.57,6.99-17.15,15.71-27.08,25.81-2.72,2.76-5.52,5.62-8.48,8.59l-.38.38-.37.39c-7.5,7.87-15.44,15.61-23.59,23-15.2,13.79-28.76,24.23-33.81,27.83-18.17,12.95-46.69,26.79-72.24,26.79-6.97,0-13.26-.99-19.23-3.04-5.04-1.72-14.42-4.93-20.93-13.37-4.94-6.41-7.47-14.64-7.53-24.47-.08-14.8-6.45-28.92-17.46-38.74-9.6-8.55-21.98-13.26-34.86-13.26h0c-23.88,0-44.69,16.17-50.61,39.34-7.9,30.92-6.85,62.25,3.05,90.58,6.13,17.54,15.49,33.66,27.82,47.91,9.82,11.34,21.57,21.53,34.91,30.28,22.44,14.71,44.05,21.77,52.19,24.43,25.28,8.26,46.65,9.32,62.43,9.32,5.17,0,10.1-.12,15.11-.25,42.63-1.14,83.85-10.97,122.52-29.21,31.45-14.84,53.63-31.53,66.88-41.51,17.77-13.38,37.49-30.93,49.02-59.74,15.16-37.86,7-70.82,3.94-83.23-5.84-23.63-16.95-41.59-33.01-53.39-3.75-2.75-11.55-8.48-23.12-11.63-5.4-1.47-10.98-2.22-16.58-2.22h0Z"/>
  <path d="M593.7,400.07c11.74,0,25.26,15.53,48.7,39.1,5.9,6.19,14.81,15.22,26.19,25.54,15.77,14.31,30.79,26.1,38.38,31.51,6.05,4.31,50.62,36.07,101.25,36.07,11.62,0,23.55-1.67,35.41-5.73,8.91-3.05,29-10.25,44.34-30.15,14.58-18.9,17.85-39.88,17.94-54.73,0-1.47,1.17-2.29,2.32-2.29.94,0,1.87.54,2.17,1.71,4,15.64,6.48,38-1.81,61.72-17.49,50.09-69.26,67.01-83.25,71.58-17.4,5.69-32.2,6.85-46.9,6.85-4.58,0-9.15-.11-13.78-.24-82.98-2.21-136.83-42.75-160.66-60.68-14.83-11.16-26.09-21.93-32.68-38.38-9.17-22.91-4.03-43.7-1.82-52.64,4.25-17.19,11.39-23.12,14.07-25.09,2.2-1.61,4.06-2.98,6.68-3.7,1.13-.31,2.27-.46,3.42-.46M593.69,350.07c-5.6,0-11.17.75-16.57,2.22-11.58,3.16-19.37,8.88-23.12,11.63-16.07,11.8-27.17,29.76-33.02,53.39-3.07,12.41-11.22,45.37,3.93,83.23,11.53,28.81,31.25,46.37,49.02,59.74,13.25,9.97,35.43,26.67,66.88,41.51,38.67,18.25,79.89,28.07,122.52,29.21,5.02.13,9.96.25,15.11.25,15.79,0,37.15-1.06,62.43-9.32,8.13-2.66,29.75-9.72,52.18-24.43,13.35-8.75,25.09-18.94,34.91-30.28,12.33-14.25,21.69-30.37,27.82-47.91,9.9-28.34,10.95-59.66,3.05-90.59-5.92-23.16-26.74-39.33-50.62-39.33-12.88,0-25.26,4.71-34.86,13.26-11.01,9.82-17.38,23.94-17.46,38.74-.06,9.83-2.59,18.07-7.53,24.47-6.51,8.44-15.89,11.65-20.93,13.37-5.98,2.04-12.27,3.04-19.24,3.04-25.54,0-54.06-13.84-72.24-26.79-5.04-3.59-18.6-14.04-33.81-27.83-8.15-7.39-16.08-15.13-23.58-23l-.37-.39-.38-.38c-2.95-2.97-5.76-5.82-8.47-8.58-9.93-10.1-18.51-18.82-27.08-25.81-5.9-4.81-23.84-19.44-48.59-19.45h-.01Z"/>
</svg>
