<?xml version="1.0" encoding="UTF-8"?>
<svg id="Layer_5" data-name="Layer 5" xmlns="http://www.w3.org/2000/svg" viewBox="0 0 1000 1500">
  <defs>
    <style>
      .cls-1 {
        fill: #313333;
      }
    </style>
  </defs>
  <path class="cls-1" d="M490.22,1047.31c-.6-.44-1.11-.81-1.82-1.01-3.43-.94-7.18,3.47-14.19,10.52-1.61,1.69-4.03,4.15-7.13,6.96-4.3,3.9-8.38,7.11-10.45,8.58-2.03,1.44-19.9,14.18-37.22,8.26-2.43-.83-7.9-2.79-12.08-8.21-3.97-5.15-4.86-10.86-4.88-14.9,0-.73-1.04-.86-1.22-.16-1.09,4.26-1.76,10.35.49,16.81,4.76,13.64,18.86,18.25,22.67,19.49,6.22,2.03,11.21,1.94,16.53,1.8,22.6-.6,37.26-11.64,43.75-16.53,4.04-3.04,7.1-5.97,8.9-10.45,2.5-6.24,1.1-11.9.49-14.34-1.16-4.68-3.1-6.3-3.83-6.83Z"/>
  <path class="cls-1" d="M598.78,1057.36c-.18-.71-1.22-.57-1.22.16-.02,4.04-.91,9.76-4.88,14.9-4.18,5.42-9.65,7.38-12.08,8.21-17.31,5.92-35.19-6.82-37.22-8.26-2.07-1.47-6.16-4.68-10.45-8.58-3.1-2.81-5.53-5.27-7.13-6.96-7.01-7.05-10.76-11.46-14.19-10.52-.71.19-1.22.57-1.82,1.01-.73.54-2.67,2.15-3.83,6.83-.6,2.44-2,8.1.49,14.34,1.79,4.48,4.86,7.41,8.9,10.45,6.49,4.88,21.15,15.92,43.75,16.53,5.32.14,10.31.23,16.53-1.8,3.81-1.24,17.91-5.85,22.67-19.49,2.26-6.46,1.58-12.55.49-16.81Z"/>
</svg>
