<?xml version="1.0" encoding="UTF-8"?>
<svg id="Layer_7" data-name="Layer 7" xmlns="http://www.w3.org/2000/svg" viewBox="0 0 1000 1500">
  <defs>
    <style>
      .cls-1 {
        fill: #313333;
      }
    </style>
  </defs>
  <path class="cls-1" d="M478.8,1051.21c-24.98-19.65-65.48,18.68-112.47,5.07-15.15-4.39-35.38-15.66-54.78-47.17,1.14,7.69,10.72,66.12,61.37,92.64,40.65,21.29,92.23,13.9,108.94-3.99,1.73-1.86,6.5-6.96,8.05-14.78,2.47-12.51-4.06-26.23-11.12-31.78Z"/>
  <path class="cls-1" d="M633.66,1056.28c-46.99,13.61-87.49-24.73-112.47-5.07-7.05,5.55-13.59,19.27-11.12,31.78,1.55,7.82,6.31,12.92,8.05,14.78,16.71,17.89,68.29,25.28,108.94,3.99,50.65-26.53,60.23-84.95,61.37-92.64-19.39,31.5-39.63,42.78-54.78,47.17Z"/>
</svg>
