<?xml version="1.0" encoding="UTF-8"?>
<svg id="Layer_4" data-name="Layer 4" xmlns="http://www.w3.org/2000/svg" viewBox="0 0 1000 1500">
  <defs>
    <style>
      .cls-1 {
        fill: #8b5e3c;
      }
    </style>
  </defs>
  <path class="cls-1" d="M634.06,1131.71c-.07-13.29.03-10.64-.25-18.55-1.08-31.32-11.1-44.86-11.1-44.86-5.19-8.08-11.92-13.58-26.82-22.29-12.6-7.36-22.13-12.18-26.09-13.74-12.86-5.07-22.29-8.65-33.43-6.29-7.4,1.57-13.63,4.81-13.63,4.81-5.74,2.99-8.6,5.9-15.34,8.26-1.57.55-3.04.96-4.33,1.27-2.03.48-4.13.48-6.16,0-1.3-.31-2.76-.72-4.33-1.27-6.74-2.36-9.59-5.27-15.34-8.26,0,0-6.22-3.24-13.63-4.81-11.14-2.36-20.56,1.22-33.43,6.29-3.96,1.56-13.5,6.38-26.09,13.74-14.9,8.71-21.63,14.21-26.82,22.29,0,0-10.03,13.54-11.1,44.86-.27,7.91-.17,5.26-.25,18.55-.06,11.66-.1,23.71-.03,35.37.01,2.56.39,9.8,3.94,9.73,0,0,.27.15,1.03,0,5.07-.97,4.34-27.15,12.1-55.21,2.38-8.6,4.38-13.12,8.6-16.46,5.97-4.72,11.68-1.68,18.55-7.77,1.63-1.45,3.69-3.56,7.71-7.89,2.63-2.84,4.75-5.26,6.2-6.96.04,3.26.08,6.53.12,9.79,12.39-.53,24.78-1.07,37.17-1.61,3.32-4.16,9.32-11.43,9.32-11.43l2.31,10.93c5.61-.24,11.22-.48,16.82-.73,3.4-6.25,6.8-12.5,10.2-18.75,3.4,6.25,6.8,12.5,10.2,18.75,5.61.24,11.22.48,16.82.73l2.31-10.93s6,7.27,9.32,11.43c12.39.54,24.78,1.07,37.17,1.61.04-3.26.08-6.53.12-9.79,1.45,1.7,3.57,4.12,6.2,6.96,4.02,4.33,6.08,6.44,7.71,7.89,6.88,6.09,12.59,3.05,18.55,7.77,4.22,3.34,6.22,7.86,8.6,16.46,7.76,28.05,7.03,54.23,12.1,55.21.76.15,1.03,0,1.03,0,3.55.07,3.93-7.17,3.94-9.73.07-11.66.03-23.71-.03-35.37Z"/>
</svg>
