<?xml version="1.0" encoding="UTF-8"?>
<svg id="Layer_10" data-name="Layer 10" xmlns="http://www.w3.org/2000/svg" viewBox="0 0 1000 1500">
  <defs>
    <style>
      .cls-1 {
        fill: #c49a6c;
      }
    </style>
  </defs>
  <path class="cls-1" d="M487,1036.96c-.42-1.42-1.34-3.78-3.48-5.76-2.93-2.72-6.4-3.13-9.08-3.4-7.91-.82-14.6,2.42-19.96,5.01,0,0-2.82,1.36-5.02,2.71-47.06,29.01-40.16,76.59-82.82,112.65-6.96,5.89-25.78,15.62-42.66,10.16-23.02-7.46-35.72-35.68-24.88-57.89,7.26-14.87,26.37-26.23,42.66-20.82,9.04,3,19.53,12.09,19.8,24.88.23,11.12-10.32,21.06-20.31,21.84-1.42.11-8.38.65-13.2-4.57-3.11-3.37-3.77-7.46-3.86-9.92-.01-.42-.56-.51-.75-.13-.98,1.92-1.58,5.03-.98,8.02,1.46,7.25,8.81,11.91,13.53,12.75,12.39,2.21,29.53-8.68,32.77-24.79,3.05-15.11-7.36-28.76-17.94-34.76-10.22-5.79-20.57-4.44-23.99-3.95-20.39,2.94-43.19,21.9-45.06,48.56-2.03,28.81,21.25,52.33,43.82,56.1,21.33,3.55,36.92-5.49,43.16-9.65,18.28-12.19,32.01-33.01,55.77-72.7,4.28-7.15,10.86-19.13,24.06-30.23,6.91-5.81,14.41-8.92,19.46-11.29,1.16-.54,1.83-.78,3.13-1.34,7.51-3.25,8.77-3.96,9.4-4.32,2.82-1.64,6.47-3.82,6.45-6.67,0-.2-.02-.37-.04-.48h0Z"/>
  <path class="cls-1" d="M718.22,1117.55c-1.88-26.66-24.68-45.62-45.06-48.56-3.42-.49-13.78-1.84-23.99,3.95-10.58,6-20.99,19.65-17.94,34.76,3.25,16.11,20.38,27,32.77,24.79,4.73-.84,12.07-5.51,13.53-12.75.6-2.98,0-6.09-.98-8.02-.19-.38-.73-.3-.75.13-.09,2.47-.74,6.55-3.86,9.92-4.82,5.22-11.79,4.68-13.2,4.57-10-.78-20.55-10.72-20.31-21.84.27-12.79,10.77-21.88,19.8-24.88,16.28-5.41,35.4,5.95,42.66,20.82,10.84,22.21-1.86,50.43-24.88,57.89-16.87,5.46-35.69-4.27-42.66-10.16-42.66-36.05-35.75-83.64-82.82-112.65-2.19-1.35-5.02-2.71-5.02-2.71-5.36-2.59-12.05-5.83-19.96-5.01-2.67.28-6.15.69-9.08,3.4-2.14,1.98-3.06,4.34-3.48,5.76h0c-.02.11-.04.28-.04.48-.03,2.85,3.63,5.03,6.45,6.67.63.37,1.89,1.07,9.4,4.32,1.3.56,1.97.8,3.13,1.34,5.05,2.37,12.55,5.48,19.46,11.29,13.2,11.1,19.78,23.08,24.06,30.23,23.76,39.69,37.49,60.52,55.77,72.7,6.24,4.16,21.84,13.2,43.16,9.65,22.57-3.76,45.85-27.29,43.82-56.1Z"/>
</svg>
