<?xml version="1.0" encoding="UTF-8"?>
<svg id="Layer_6" data-name="Layer 6" xmlns="http://www.w3.org/2000/svg" viewBox="0 0 1000 1500">
  <defs>
    <style>
      .cls-1 {
        fill: #313333;
      }
    </style>
  </defs>
  <path class="cls-1" d="M658.7,1101.07c-29.41-8.43-30.75-37.25-67.11-55.02-8.44-4.12-27.65-13.18-51.09-8.46-21.19,4.27-34.83,17.58-40.51,23.88-5.68-6.3-19.32-19.62-40.51-23.88-23.43-4.72-42.65,4.34-51.09,8.46-36.36,17.77-37.7,46.59-67.11,55.02-15.89,4.55-31.24.66-42.32-3.78,6.82,5.71,19.93,15.01,38.69,18.89,33.88,7,60.68-8.93,67.11-13-3.58,4.92-9.23,11.53-17.53,17.68-9.08,6.73-17.83,10.3-23.88,12.24,16.14,3.19,45.09,6.66,79.31-1.98,25.77-6.51,45.1-17.5,57.33-25.83,12.23,8.33,31.55,19.32,57.33,25.83,34.22,8.64,63.17,5.17,79.31,1.98-6.06-1.94-14.8-5.51-23.88-12.24-8.31-6.16-13.95-12.77-17.53-17.68,6.43,4.07,33.23,20,67.11,13,18.77-3.88,31.87-13.18,38.69-18.89-11.08,4.43-26.43,8.33-42.32,3.78Z"/>
</svg>
