<?xml version="1.0" encoding="UTF-8"?>
<svg id="Layer_8" data-name="Layer 8" xmlns="http://www.w3.org/2000/svg" viewBox="0 0 1000 1500">
  <defs>
    <style>
      .cls-1 {
        fill: #603913;
      }
    </style>
  </defs>
  <path class="cls-1" d="M590.18,1078.85c-36.64-36.33-82.52-35.42-90.18-35.14-7.66-.28-53.54-1.19-90.18,35.14-37.68,37.36-36.18,84.94-35.82,92.4,23.99-5.94,70.41-17.82,85.75-23.2,14.06-4.93,25.33-19.09,30.66-36.5,2.07-6.77,5.3-17.13,9.59-30.03,4.28,12.9,7.51,23.26,9.59,30.03,5.33,17.41,16.6,31.57,30.66,36.5,15.34,5.38,61.76,17.26,85.75,23.2.36-7.45,1.87-55.04-35.82-92.4Z"/>
</svg>
