<?xml version="1.0" encoding="UTF-8"?>
<svg id="Layer_3" data-name="Layer 3" xmlns="http://www.w3.org/2000/svg" viewBox="0 0 1000 1500">
  <defs>
    <style>
      .cls-1 {
        fill: #d9ac2a;
      }
    </style>
  </defs>
  <path class="cls-1" d="M414.18,1317.36c-4.69-4.95-9.02-10.26-13.05-15.81-3.99-5.57-7.64-11.41-11.01-17.42-6.61-12.08-12.19-24.85-16.26-38.19-8.3-26.59-10.7-55.56-5.52-83.61.35-1.75.62-3.51,1.03-5.24l1.18-5.22,1.38-5.17c.44-1.73,1.02-3.42,1.53-5.13,2.16-6.81,4.66-13.54,7.7-20.03,6.06-12.99,13.83-25.23,23.06-36.19l3.55-4.02,1.78-2.01c.59-.68,1.19-1.34,1.83-1.96l3.76-3.82,1.88-1.91,1.97-1.82,3.96-3.61c1.32-1.2,2.73-2.3,4.09-3.45,1.39-1.12,2.71-2.32,4.15-3.37l4.25-3.23c5.75-4.18,11.64-8.19,17.8-11.72,6.16-3.51,12.7-6.46,19.74-7.98,4.35-.94,8.65,1.82,9.59,6.18.67,3.08-.52,6.12-2.81,7.98l-.25.2c-2.6,2.1-5.3,3.87-7.98,5.66l-4.06,2.59c-1.34.87-2.74,1.65-4.09,2.52-5.51,3.26-10.76,6.92-15.88,10.73l-3.78,2.94c-1.28.95-2.45,2.04-3.68,3.06-1.2,1.04-2.46,2.03-3.62,3.12l-3.49,3.25-1.76,1.61-1.67,1.7-3.34,3.39c-.57.55-1.1,1.14-1.62,1.74l-1.58,1.78-3.16,3.56c-8.13,9.72-15.11,20.35-20.79,31.67-5.58,11.36-10.02,23.36-12.72,35.85-5.62,24.92-5.5,51.26-.49,76.94,1.31,6.41,2.85,12.8,4.81,19.1,1.95,6.29,4.17,12.52,6.72,18.64,2.57,6.11,5.38,12.14,8.36,18.12,3.05,5.95,6.29,11.82,9.63,17.73h0c.2.36.08.81-.28,1.01-.3.17-.67.11-.9-.14Z"/>
  <path class="cls-1" d="M585.82,1317.36c4.69-4.95,9.02-10.26,13.05-15.81,3.99-5.57,7.64-11.41,11.01-17.42,6.61-12.08,12.18-24.85,16.26-38.19,8.3-26.59,10.7-55.56,5.52-83.61-.35-1.75-.62-3.51-1.03-5.24l-1.18-5.22-1.38-5.17c-.44-1.73-1.02-3.42-1.53-5.13-2.16-6.81-4.66-13.54-7.7-20.03-6.06-12.99-13.83-25.23-23.06-36.19l-3.56-4.02-1.78-2.01c-.59-.68-1.19-1.34-1.83-1.96l-3.76-3.82-1.88-1.91-1.97-1.82-3.96-3.61c-1.32-1.2-2.73-2.3-4.09-3.45-1.39-1.12-2.71-2.32-4.15-3.37l-4.25-3.23c-5.75-4.18-11.64-8.19-17.8-11.72-6.16-3.51-12.7-6.46-19.74-7.98-4.35-.94-8.65,1.82-9.59,6.18-.67,3.08.52,6.12,2.81,7.98l.25.2c2.6,2.1,5.3,3.87,7.98,5.66l4.06,2.59c1.35.87,2.74,1.65,4.09,2.52,5.51,3.26,10.76,6.92,15.88,10.73l3.78,2.94c1.28.95,2.45,2.04,3.68,3.06,1.2,1.04,2.46,2.03,3.62,3.12l3.49,3.25,1.76,1.61,1.67,1.7,3.34,3.39c.57.55,1.1,1.14,1.62,1.74l1.58,1.78,3.16,3.56c8.13,9.72,15.11,20.35,20.79,31.67,5.58,11.36,10.02,23.36,12.72,35.85,5.62,24.92,5.5,51.26.49,76.94-1.31,6.41-2.85,12.8-4.81,19.1-1.95,6.29-4.17,12.52-6.72,18.64-2.57,6.11-5.38,12.14-8.36,18.12-3.05,5.95-6.29,11.82-9.63,17.73h0c-.2.36-.08.81.28,1.01.3.17.67.11.9-.14Z"/>
</svg>
