<?xml version="1.0" encoding="UTF-8"?>
<svg id="Layer_9" data-name="Layer 9" xmlns="http://www.w3.org/2000/svg" viewBox="0 0 1000 1500">
  <defs>
    <style>
      .cls-1 {
        fill: #d9ac2a;
      }
    </style>
  </defs>
  <path class="cls-1" d="M470.48,1048.87c-3.71,1.35-7.41,2.7-11.22,3.74-12.44,3.41-28.41,6.43-46.92,6.5-63.76.25-94.63-34.95-119.54-18.43-14.54,9.64-19.82,30.95-23.68,60.44-2.14,16.4-2.88,28.94-2.69,43.2.65,49.73,13.56,91.59,13.56,91.59,4.26,13.81,11,32.1,21.94,52.62-3.02-19-5.06-35.1-6.43-47.22,0,0-3.64-30.99-4.75-61.29-.77-21.24.28-31.82.49-35.6.08-1.48,1.47-20.38,6.27-45.31,3.36-17.49,7.26-20.76,10.73-22.71,8.3-4.65,19.15,1.56,27.97,5.54,43.75,19.71,90.36,8.19,100.36,5.72,9.68-2.39,24.73-7.36,41.91-18.94,1.35-1.01,4.22-3.33,5.76-6.75.48-1.06,2.72-6.9.12-10.77-2.19-3.25-7.88-4.52-13.89-2.33Z"/>
  <path class="cls-1" d="M730.87,1101.11c-3.85-29.49-9.14-50.8-23.68-60.44-24.91-16.52-55.78,18.69-119.54,18.43-18.51-.07-34.48-3.09-46.92-6.5-3.8-1.04-7.51-2.39-11.22-3.74-6.01-2.19-11.7-.92-13.89,2.33-2.6,3.86-.36,9.7.12,10.77,1.54,3.42,4.42,5.74,5.76,6.75,17.19,11.58,32.24,16.55,41.91,18.94,10,2.47,56.61,13.99,100.36-5.72,8.82-3.98,19.67-10.19,27.97-5.54,3.47,1.94,7.37,5.21,10.73,22.71,4.79,24.93,6.18,43.83,6.27,45.31.21,3.78,1.27,14.35.49,35.6-1.11,30.3-4.75,61.29-4.75,61.29-1.37,12.12-3.41,28.21-6.43,47.22,10.93-20.51,17.68-38.8,21.94-52.62,0,0,12.91-41.86,13.56-91.59.19-14.27-.55-26.8-2.69-43.2Z"/>
</svg>
