<?xml version="1.0" encoding="UTF-8"?>
<svg xmlns="http://www.w3.org/2000/svg" viewBox="0 0 1000 1500">
  <defs>
    <style>
      .cls-1 {
        fill: none;
      }

      .cls-2 {
        fill: #d8423f;
      }

      .cls-3 {
        fill: #ff6e99;
      }

      .cls-4 {
        fill: #f1463a;
      }

      .cls-5 {
        opacity: .6;
      }

      .cls-6 {
        fill: #f16e98;
      }
    </style>
  </defs>
  <g id="Layer_7" data-name="Layer 7">
    <g>
      <path class="cls-3" d="M545.77,916.34c-6.76,0-12.43-3.94-18.43-8.12-6.36-4.42-13.56-9.43-21.18-9.43-7,0-14.87,5.28-21.19,9.53-6.4,4.3-11.94,8.02-18.42,8.02v-29.55c-1.19,0-1.9.27-1.91.27,1.09-.42,4.15-2.47,6.39-3.98,8.7-5.84,20.61-13.84,35.13-13.84,15.36,0,27.47,8.41,35.47,13.98,2.08,1.45,4.93,3.43,5.96,3.83,0,0-.69-.27-1.82-.27v29.55Z"/>
      <g>
        <path class="cls-3" d="M246.94,926.77h-19.31c-9.38,0-16.99-7.61-16.99-16.99s7.61-16.99,16.99-16.99h19.31c9.38,0,16.99,7.61,16.99,16.99s-7.61,16.99-16.99,16.99Z"/>
        <g class="cls-5">
          <path class="cls-4" d="M430.28,845.26c-30.92-11.45-53.5.46-72.15,23.05-19.1-21.94-41.35-34.5-72.27-23.05-5.1,1.89-9.63,4.42-13.73,7.36,10.55,21.78,25.61,41.38,44.12,56.97,27.48,23.15,61.72,37.33,88.57,61.22,7.99,7.1,15.16,15.06,21.46,23.66,17.12-17.15,30.89-37.42,38.77-60.23.99-2.85,1.83-5.74,2.54-8.67,7.53-31.16-4.1-68.01-37.31-80.31Z"/>
          <path class="cls-2" d="M404.83,970.8c-26.85-23.88-61.09-38.07-88.57-61.22-18.51-15.59-33.57-35.19-44.12-56.97-22.54,16.19-29.95,46.58-23.58,72.95.71,2.92,1.55,5.81,2.54,8.66,5.86,16.95,15.15,32.56,26.58,46.49,13.46,16.4,29.89,30.46,47.17,41.65,7.48,4.84,21.13,11.65,28.41,15.18,3.08,1.49,6.67,1.6,9.79.2,22.96-10.32,45.01-25.04,63.24-43.3-6.3-8.6-13.47-16.56-21.46-23.66Z"/>
        </g>
        <path class="cls-3" d="M358.4,1053.32c-3.92,0-7.85-.89-11.5-2.66-9.41-4.57-22.25-11.07-29.96-16.06-19.37-12.53-36.84-27.97-50.52-44.64-13.15-16.02-22.94-33.17-29.09-50.97-1.14-3.28-2.12-6.65-2.93-10.01-8.84-36.57,4.26-81.77,46.41-97.38,28.33-10.49,53.69-5.37,77.12,15.7,22.75-21.03,48.73-26.33,77.41-15.7,42.14,15.61,55.24,60.81,46.41,97.39-.81,3.36-1.8,6.73-2.93,10.01-6.21,17.96-16.11,35.25-29.43,51.39-.55.73-1.91,2.47-3.94,4.88-6.01,7.12-15.8,17.48-28.24,26.42-1.88,1.35-3.74,2.73-5.59,4.11-3.96,2.94-8.05,5.98-12.4,8.8-9.61,6.22-19.77,11.75-30.19,16.44-3.38,1.52-7,2.28-10.62,2.28ZM308.24,855.48c-5.47,0-11.19,1.17-17.32,3.44-26.2,9.7-34.03,39.15-28.21,63.23.59,2.46,1.31,4.92,2.15,7.32,5.03,14.54,13.12,28.67,24.08,42.01,11.8,14.38,26.96,27.75,43.83,38.67,4.81,3.11,14.12,8.09,25.65,13.72,8.61-3.95,17.01-8.56,24.97-13.72,3.57-2.3,7.1-4.94,10.85-7.72,1.98-1.47,3.96-2.94,5.97-4.39,10.56-7.59,18.94-16.78,23-21.58,1.96-2.32,3.05-3.78,3.06-3.79l.48-.61c11.2-13.51,19.46-27.84,24.55-42.59.83-2.41,1.55-4.87,2.15-7.33,5.81-24.07-2.01-53.52-28.21-63.23h0c-21.72-8.04-38.42-2.46-55.86,18.66l-.31.38c-5.56,6.74-15.85,6.87-21.58.28l-.32-.37c-13.26-15.23-25.34-22.39-38.91-22.39Z"/>
      </g>
      <g>
        <path class="cls-6" d="M765.28,926.77h19.31c9.38,0,16.99-7.61,16.99-16.99s-7.61-16.99-16.99-16.99h-19.31c-9.38,0-16.99,7.61-16.99,16.99s7.61,16.99,16.99,16.99Z"/>
        <g class="cls-5">
          <path class="cls-4" d="M726.36,845.26c-30.92-11.45-53.5.46-72.15,23.05-19.1-21.94-41.35-34.5-72.27-23.05-5.1,1.89-9.63,4.42-13.73,7.36,10.55,21.78,25.61,41.38,44.12,56.97,27.48,23.15,61.72,37.33,88.57,61.22,7.99,7.1,15.16,15.06,21.46,23.66,17.12-17.15,30.89-37.42,38.77-60.23.99-2.85,1.83-5.74,2.54-8.67,7.53-31.16-4.1-68.01-37.31-80.31Z"/>
          <path class="cls-2" d="M700.9,970.8c-26.85-23.88-61.09-38.07-88.57-61.22-18.51-15.59-33.57-35.19-44.12-56.97-22.54,16.19-29.95,46.58-23.58,72.95.71,2.92,1.55,5.81,2.54,8.66,5.86,16.95,15.15,32.56,26.58,46.49,13.46,16.4,29.89,30.46,47.17,41.65,7.48,4.84,21.13,11.65,28.41,15.18,3.08,1.49,6.67,1.6,9.79.2,22.96-10.32,45.01-25.04,63.24-43.3-6.3-8.6-13.47-16.56-21.46-23.66Z"/>
        </g>
      </g>
      <path class="cls-6" d="M654.47,1053.32c-3.92,0-7.85-.89-11.5-2.66-9.41-4.57-22.25-11.07-29.96-16.06-19.37-12.53-36.84-27.97-50.52-44.64-13.15-16.02-22.94-33.17-29.09-50.97-1.14-3.28-2.12-6.65-2.93-10.01-8.84-36.57,4.26-81.77,46.41-97.38,28.33-10.49,53.69-5.37,77.12,15.7,22.75-21.03,48.73-26.33,77.41-15.7,42.14,15.61,55.24,60.81,46.41,97.39-.81,3.36-1.8,6.73-2.93,10.01-6.21,17.96-16.11,35.25-29.43,51.39-.55.73-1.91,2.47-3.94,4.88-6.01,7.12-15.8,17.48-28.24,26.42-1.88,1.35-3.74,2.73-5.59,4.11-3.96,2.94-8.05,5.98-12.4,8.8-9.61,6.22-19.77,11.75-30.19,16.44-3.38,1.52-7,2.28-10.62,2.28ZM604.31,855.48c-5.47,0-11.19,1.17-17.32,3.44-26.2,9.7-34.03,39.15-28.21,63.23.59,2.46,1.31,4.92,2.15,7.32,5.03,14.54,13.12,28.67,24.08,42.01,11.8,14.38,26.96,27.75,43.83,38.67,4.81,3.11,14.12,8.09,25.65,13.72,8.61-3.95,17.01-8.56,24.97-13.72,3.57-2.3,7.1-4.94,10.85-7.72,1.98-1.47,3.96-2.94,5.97-4.39,10.56-7.59,18.94-16.78,23-21.58,1.96-2.32,3.05-3.78,3.06-3.79l.48-.61c11.2-13.51,19.46-27.84,24.55-42.59.83-2.41,1.55-4.87,2.15-7.33,5.81-24.07-2.01-53.52-28.21-63.23h0c-21.72-8.04-38.42-2.46-55.86,18.66l-.31.38c-5.56,6.74-15.85,6.87-21.58.28l-.32-.37c-13.26-15.23-25.34-22.39-38.91-22.39Z"/>
    </g>
  </g>
  <g id="Layer_8" data-name="Layer 8">
    <path class="cls-1" d="M585.33,517.07c-7.22-.4-15.53-.37-20.29,5.08,4.02-.38,8.11.1,11.93,1.37-10.77,3.37-19.26,13.11-21.15,24.24,3.8-5.38,9.86-9.11,16.38-10.08-4.39,7.12-5.54,16.15-3.06,24.14,3.75-6.39,12.13-7.97,19.48-8.91-5.6,5.47-9.68,12.48-11.67,20.06,7.81-5.72,15.62-11.45,23.43-17.17.13,4.45-.87,8.95-.05,13.33s4.41,8.79,8.84,8.32c-1.92-6.2-.93-13.23,2.63-18.66,2.9,8.71,9.26,16.22,17.37,20.53.84-4.77,1.69-9.54,2.53-14.31.19-1.1.63-2.44,1.73-2.59,1.1,7.25,1.67,14.59,1.7,21.93,6.98-.69,14.54-1.64,19.55-6.55,4.55-4.47,5.91-11.18,6.79-17.5-.18,6.03.57,12.09,2.21,17.9,2.03-2.08,5-2.9,7.49-4.42,3.36-2.06,5.84-5.51,6.71-9.36,2.78,6.25,8.33,11.21,14.86,13.28.72.23,1.5.43,2.24.23.84-.22,1.47-.91,2.02-1.58,4.58-5.48,8.29-11.69,10.92-18.32"/>
  </g>
</svg>
