<?xml version="1.0" encoding="UTF-8"?>
<svg id="Layer_10" data-name="Layer 10" xmlns="http://www.w3.org/2000/svg" viewBox="0 0 1000 1500">
  <defs>
    <style>
      .cls-1 {
        fill: #ff7b91;
      }

      .cls-2 {
        fill: #b0c4fa;
      }

      .cls-3 {
        fill: #3c2415;
      }

      .cls-4 {
        fill: #5252a8;
      }

      .cls-5 {
        opacity: .6;
      }

      .cls-6 {
        fill: #8eaaec;
      }
    </style>
  </defs>
  <path class="cls-3" d="M806.2,855.78c-8.22-5.99-20.39-11.21-28.66-14.38-4.87-1.87-6.13-8.16-2.38-11.78,3.11-3,6.84-6.2,10.16-8.93,3.7-3.04,2.54-8.93-2.02-10.42-37.07-12.13-79.05-6.93-81.84-11.93-1.18-2.12-.29-4.42,1.26-7.15,2.31-4.07,1.47-8.87-3.21-8.93-93.66-1.15-167.54,85.3-167.54,85.3l206.5,22.31c25.85-4.38,52.52-15.19,66.25-21.3,5.2-2.32,6.08-9.44,1.48-12.79Z"/>
  <path class="cls-3" d="M193.8,855.78c8.22-5.99,20.39-11.21,28.66-14.38,4.87-1.87,6.13-8.16,2.38-11.78-3.11-3-6.84-6.2-10.16-8.93-3.7-3.04-2.54-8.93,2.02-10.42,37.07-12.13,79.05-6.93,81.84-11.93,1.18-2.12.29-4.42-1.26-7.15-2.31-4.07-1.47-8.87,3.21-8.93,93.66-1.15,167.54,85.3,167.54,85.3l-206.5,22.31c-25.85-4.38-52.52-15.19-66.25-21.3-5.2-2.32-6.08-9.44-1.48-12.79Z"/>
  <path class="cls-3" d="M596.02,1082.15c-8.52-5.76-18.6-8.65-28.53-11.31-21.64-5.8-43.28-1.46-65.21,3.1l-2.27,7.68-2.27-7.68c-21.93-4.56-43.58-8.9-65.21-3.1-9.93,2.66-20.01,5.55-28.53,11.31-8.52,5.76-15.35,14.94-15.71,25.22-.32,8.95,4.64,17.88,12.4,22.35,7.76,4.47,17.98,4.27,25.55-.5-5.62,12.44-.42,28.73,11.38,35.61,11.79,6.88,28.53,3.39,36.6-7.62,2.58,10.56,12.33,18.95,23.16,19.93.37.03.74-.01,1.11,0,.51.04,1.02,0,1.53,0,.51-.01,1.02.03,1.53,0,.37-.02.74.03,1.11,0,10.82-.98,20.58-9.37,23.16-19.93,8.07,11.02,24.81,14.5,36.6,7.62,11.79-6.88,17-23.17,11.38-35.61,7.58,4.77,17.8,4.96,25.55.5,7.76-4.47,12.72-13.4,12.4-22.35-.36-10.27-7.19-19.46-15.71-25.22Z"/>
  <path class="cls-1" d="M561.91,1016.31c-24.02-20.08-27.69-81.55-35.12-116.64-.05-.22-.09-.43-.14-.64-6.47-27.89-46.82-27.89-53.29,0-.05.21-.1.43-.14.64-7.43,35.09-11.1,96.56-35.12,116.64-20.54,17.18-26.29,35.1-21.59,46.51,5.04,12.22,17.58,16.91,26.65,18.71,6.3,1.25,11.91,4.7,16.31,9.38,6.6,7.01,19.19,15.95,40.54,15.95s33.94-8.94,40.54-15.95c4.4-4.68,10.01-8.13,16.31-9.38,9.07-1.8,21.61-6.49,26.65-18.71,4.71-11.41-1.04-29.33-21.59-46.51Z"/>
  <g class="cls-5">
    <path class="cls-2" d="M338.68,894.27c10.04,7.4,18.36,16.83,26.88,25.94,8.52,9.11,17.46,18.08,28.3,24.24,14.96,8.49,33.17,11.06,49.89,7.03,9.24-2.22,17.93-6.51,25.48-12.27l19.65-44.35-115.9-44.58-89.15,14.01-9.37,28.48c7.95-6.56,20.53-10.44,29.61-10.76,12.46-.44,24.56,4.87,34.6,12.26Z"/>
    <path class="cls-6" d="M393.86,944.45c-10.84-6.16-19.78-15.13-28.3-24.24-8.52-9.11-16.84-18.54-26.88-25.94-10.04-7.4-22.14-12.71-34.6-12.26-9.08.32-21.66,4.2-29.61,10.76l-6.55,19.92,12.75,79.79,54.11,21.46h43.62l83.96-59.22,12.52-15.5c-7.56,5.76-21.9,10.05-31.14,12.27-16.72,4.03-34.94,1.46-49.89-7.03Z"/>
  </g>
  <g class="cls-5">
    <path class="cls-6" d="M656.41,944.45c-10.84-6.16-19.78-15.13-28.3-24.24-8.52-9.11-16.84-18.54-26.88-25.94-10.04-7.4-22.14-12.71-34.6-12.26-12.46.44-25.11,7.56-29.72,19.15l-6.16-11.48-13.46,5.18,26.52,59.86,83.96,59.22h43.62l54.11-21.46,8.83-55.24c-8.11,6.79-17.75,11.77-28.04,14.24-16.72,4.03-34.93,1.46-49.89-7.03Z"/>
    <path class="cls-2" d="M722.33,864.29l-89.15-14.01-102.44,39.4,6.16,11.48c4.61-11.59,17.26-18.71,29.72-19.15,12.46-.44,24.56,4.87,34.6,12.26,10.04,7.4,18.36,16.83,26.88,25.94,8.52,9.11,17.46,18.08,28.3,24.24,14.96,8.49,33.17,11.06,49.89,7.03,10.29-2.48,19.93-7.45,28.04-14.24l3.92-24.55-15.92-48.4Z"/>
  </g>
  <g>
    <path class="cls-4" d="M257.66,920.38h-12.71c-10.62,0-14.38-8.61-14.38-19.22s3.76-19.22,14.38-19.22h12.71c10.62,0,19.22,8.61,19.22,19.22s-8.61,19.22-19.22,19.22Z"/>
    <g>
      <path class="cls-4" d="M714.09,851.22c-6.99-4.22-15.05-6.59-22.96-8.37-29.94-6.74-62.36-5.93-92.54-1.24-14.11,2.2-31.91,7.48-44.49,14.53-16.02,8.97-34.77,17.74-53.95,16.97-19.18.78-38.24-8-54.26-16.97-12.58-7.05-30.38-12.33-44.49-14.53-30.17-4.7-62.6-5.5-92.54,1.24-7.91,1.78-15.97,4.15-22.96,8.37-40.38,24.38-39.52,73.5-25.25,111.33,6.33,16.76,13.13,32.91,26.72,46.23,17.07,16.74,39.2,25.35,63.66,25.35,12.91,0,26.48-2.4,40.29-7.27,41.1-14.49,74.34-47.88,86.7-85.12,11.92-29.13,21.41-29.4,21.41-29.4,0,0,10.61.27,22.53,29.4,12.36,37.24,45.6,70.63,86.7,85.12,13.81,4.87,27.38,7.27,40.29,7.27,24.46,0,46.59-8.6,63.66-25.35,13.59-13.32,20.39-29.47,26.72-46.23,14.27-37.83,15.13-86.95-25.25-111.33ZM453.95,918.16c-4.07,34.44-33.76,67.96-72.21,81.51-29.2,10.3-56.24,6.11-74.18-11.47-9.42-9.24-14.4-21.18-19.92-35.82-3.52-9.32-19.4-56.8,13.18-76.47,7.53-4.55,27.08-8.67,54.57-8.67,5.73,0,11.82.18,18.2.57,37.14,2.28,61.38,10.65,68.19,17.47.95.96,1.91,1.89,2.77,2.89,0,0,0,0,0,0,7.77,8.89,10.75,18.42,9.38,29.98ZM712.36,952.38c-5.53,14.65-10.5,26.59-19.92,35.82-17.94,17.58-44.97,21.77-74.18,11.47-38.45-13.55-68.14-47.07-72.21-81.51-1.36-11.56,1.62-21.09,9.38-29.98,0,0,0,0,0,0,.87-1,1.82-1.93,2.77-2.89,6.81-6.82,31.05-15.19,68.19-17.47,6.39-.39,12.47-.57,18.2-.57,27.49,0,47.04,4.12,54.57,8.67,32.58,19.67,16.69,67.15,13.18,76.47Z"/>
      <path class="cls-4" d="M742.34,920.38h12.71c10.62,0,14.38-8.61,14.38-19.22s-3.76-19.22-14.38-19.22h-12.71c-10.62,0-19.22,8.61-19.22,19.22s8.61,19.22,19.22,19.22Z"/>
    </g>
  </g>
</svg>
