<?xml version="1.0" encoding="UTF-8"?>
<svg id="Layer_11" data-name="Layer 11" xmlns="http://www.w3.org/2000/svg" viewBox="0 0 1000 1500">
  <defs>
    <style>
      .cls-1 {
        fill: #990d28;
      }

      .cls-2 {
        fill: #bcbec0;
      }

      .cls-3 {
        fill: #97d3ed;
        opacity: .5;
      }

      .cls-4 {
        fill: #be0926;
      }

      .cls-5 {
        fill: #f1f2f2;
        opacity: .7;
        stroke: #f1f2f2;
        stroke-linecap: round;
        stroke-miterlimit: 10;
        stroke-width: 6px;
      }
    </style>
  </defs>
  <circle class="cls-3" cx="383.77" cy="942.87" r="103.43"/>
  <circle class="cls-3" cx="613.55" cy="940.9" r="103.43"/>
  <g>
    <path class="cls-2" d="M277.22,942.88c0-58.21,47.92-105.41,107.04-105.41h0c59.11,0,107.04,47.19,107.05,105.41h0c0,58.22-47.93,105.4-107.05,105.41h0c-59.12,0-107.04-47.19-107.04-105.41h0ZM314.48,874.16c-17.86,17.6-28.9,41.87-28.9,68.72h0c0,26.85,11.04,51.12,28.9,68.72h0c17.87,17.59,42.52,28.46,69.78,28.46h0c27.26,0,51.91-10.87,69.78-28.46h0c17.87-17.6,28.9-41.87,28.91-68.72h0c0-26.85-11.04-51.12-28.91-68.72h0c-17.87-17.59-42.51-28.46-69.78-28.47h0c-27.27,0-51.91,10.87-69.78,28.47h0Z"/>
    <path class="cls-2" d="M383.76,1046.3c-57.92,0-105.05-46.4-105.06-103.43,0-57.03,47.13-103.42,105.06-103.42s105.05,46.39,105.06,103.42c0,57.02-47.14,103.42-105.06,103.43h0ZM383.76,843.71c-26.88,0-52.17,10.33-71.18,29.04-19.02,18.73-29.49,43.64-29.49,70.13s10.47,51.4,29.49,70.13c19.02,18.72,44.3,29.03,71.18,29.03s52.15-10.31,71.17-29.03c19.02-18.72,29.49-43.64,29.5-70.13,0-26.5-10.49-51.4-29.5-70.13-19.01-18.71-44.29-29.03-71.17-29.04h0Z"/>
  </g>
  <g>
    <path class="cls-2" d="M721.09,942.88c0,58.22-47.92,105.4-107.04,105.41h0c-59.11,0-107.04-47.19-107.04-105.41h0c0-58.21,47.93-105.41,107.04-105.41h0c59.12,0,107.04,47.19,107.04,105.41h0ZM683.83,874.16c-17.87-17.59-42.52-28.46-69.78-28.47h0c-27.26,0-51.91,10.87-69.78,28.47h0c-17.87,17.6-28.9,41.87-28.91,68.72h0c0,26.85,11.04,51.12,28.91,68.72h0c17.87,17.59,42.52,28.46,69.78,28.46h0c27.27,0,51.91-10.87,69.78-28.46h0c17.86-17.6,28.9-41.87,28.9-68.72h0c0-26.85-11.04-51.12-28.9-68.72h0Z"/>
    <path class="cls-2" d="M613.55,1046.3c-57.92,0-105.05-46.4-105.06-103.43,0-57.03,47.14-103.42,105.06-103.42s105.05,46.39,105.06,103.42c0,57.03-47.14,103.42-105.06,103.43h0ZM613.55,843.71c-26.88,0-52.16,10.32-71.17,29.04-19.02,18.74-29.49,43.64-29.5,70.13,0,26.49,10.48,51.4,29.5,70.13,19.02,18.72,44.29,29.03,71.17,29.03s52.16-10.31,71.18-29.03c19.02-18.74,29.49-43.64,29.49-70.13s-10.47-51.38-29.49-70.13c-19.02-18.72-44.29-29.03-71.18-29.04h0Z"/>
  </g>
  <rect class="cls-2" x="476.01" y="904.31" width="46.75" height="17.07"/>
  <path class="cls-1" d="M383.27,829.08c-23.13,0-44.95,6.68-63.37,18.31l-.02-.17s-25.46,14.4-37.38,20.27c-11.92,5.87-43.35,6.4-43.35,6.4,0,0,.54,14.94,1.09,19.74.54,4.8,3.25,4.27,3.25,4.27,0,0,9.21,0,16.25,3.74,5.84,3.1,7.95,15.33,8.5,19.44-.09.41-.19.8-.27,1.21.14.01.28.02.43.03,0,.06,0,.13,0,.13l.29-.1c7.03.56,14.06,1.12,21.11,1.55,3.98-17.33,12.81-33.15,25.66-45.81,18.12-17.83,42.2-27.66,67.82-27.67,25.61,0,49.69,9.83,67.8,27.66,12.28,12.1,20.86,27.09,25.09,43.52,6.39-3.74,12.94-7.25,19.43-10.89-14.99-47.97-60.35-81.63-112.32-81.63Z"/>
  <path class="cls-4" d="M289.24,920.82c-6.22-.4-12.45-.89-18.1-1.34-.74-5.32-3.09-17.19-9.49-20.58-7.39-3.92-16.79-3.97-17.18-3.97h-.36l-.03.04c-.1-.03-.68-.65-.89-2.54-.41-3.63-.83-13.36-1-17.58,7.25-.23,31.63-1.37,42.16-6.56,11.83-5.83,37.23-20.18,37.48-20.33,18.77-11.66,40.31-17.88,62.42-17.88,49.71,0,94.67,32.28,109.93,78.7-1.75.98-3.5,1.95-5.25,2.91-3.47,1.92-7.04,3.89-10.55,5.91-4.54-15.85-13.12-30.3-24.93-41.93-18.49-18.2-43.06-28.23-69.2-28.23-26.13,0-50.71,10.03-69.21,28.23-12.66,12.48-21.56,28.05-25.8,45.14h0Z"/>
  <path class="cls-1" d="M615.04,829.08c23.13,0,44.95,6.68,63.37,18.31l.02-.17s25.46,14.4,37.38,20.27c11.92,5.87,43.35,6.4,43.35,6.4,0,0-.54,14.94-1.09,19.74-.54,4.8-3.25,4.27-3.25,4.27,0,0-9.21,0-16.26,3.74-5.84,3.1-7.95,15.33-8.5,19.44.08.41.19.8.27,1.21-.14.01-.28.02-.43.03,0,.06-.01.13-.01.13l-.28-.1c-7.04.56-14.06,1.12-21.11,1.55-3.98-17.33-12.81-33.15-25.66-45.81-18.12-17.83-42.2-27.66-67.82-27.67-25.61,0-49.69,9.83-67.8,27.66-12.28,12.1-20.87,27.09-25.09,43.52-6.39-3.74-12.94-7.25-19.43-10.89,14.99-47.97,60.35-81.63,112.32-81.63Z"/>
  <path class="cls-4" d="M711.05,920.82c-4.24-17.08-13.13-32.65-25.8-45.14-18.49-18.2-43.07-28.23-69.21-28.24-26.13,0-50.71,10.03-69.19,28.23-11.82,11.64-20.41,26.09-24.94,41.92-3.58-2.06-7.23-4.07-10.77-6.02-1.68-.93-3.36-1.86-5.04-2.79,15.25-46.42,60.22-78.71,109.93-78.71,22.11,0,43.66,6.23,62.32,18.01.35.02,25.75,14.38,37.58,20.2,10.53,5.19,34.91,6.33,42.16,6.56-.16,4.23-.58,13.95-1,17.59-.22,1.89-.8,2.52-1.04,2.53l-.33-.13.1.11c-.4,0-9.79.04-17.18,3.97-6.39,3.38-8.74,15.26-9.49,20.58-5.66.45-11.89.94-18.1,1.33h0Z"/>
  <path class="cls-2" d="M256.32,886.02c0,2.56-2.07,4.63-4.63,4.63s-4.63-2.07-4.63-4.63,2.07-4.63,4.63-4.63,4.63,2.07,4.63,4.63Z"/>
  <path class="cls-2" d="M741.31,886.02c0,2.56-2.07,4.63-4.63,4.63s-4.63-2.07-4.63-4.63,2.07-4.63,4.63-4.63,4.63,2.07,4.63,4.63Z"/>
  <line class="cls-5" x1="379.35" y1="865.53" x2="301.78" y2="943.1"/>
  <line class="cls-5" x1="349.87" y1="874.5" x2="310.75" y2="913.62"/>
  <line class="cls-5" x1="610.31" y1="865.53" x2="532.73" y2="943.1"/>
  <line class="cls-5" x1="580.83" y1="874.5" x2="541.71" y2="913.62"/>
</svg>
