<?xml version="1.0" encoding="UTF-8"?>
<svg id="Layer_12" data-name="Layer 12" xmlns="http://www.w3.org/2000/svg" viewBox="0 0 1000 1500">
  <defs>
    <style>
      .cls-1 {
        fill: #231f20;
      }

      .cls-2 {
        fill: #1a171b;
      }

      .cls-3 {
        fill: #bcbec0;
      }
    </style>
  </defs>
  <g>
    <path class="cls-3" d="M478.27,892.9c-3.59-3.96-8.04-7.56-12.48-11.63-3.61-3.31-51.24-18.52-73.26-20.14-11.37-.84-21.63-1.37-32.91,1.14-11.73,2.6-23.05,6.83-34.94,8.74-8.92,1.43-17.25,2.92-23.69,9.79-7.91,8.44-10.27,20.74-19.13,28.44-6.54,5.69-18.34,9.23-19.4,19.02-.98,8.96,2.81,20.2,3.27,29.45.94,19.22,1.6,38.87,7.33,57.41,3.4,10.98,19,18.29,28.53,23.16,10.17,5.2,21.72,6.36,32.89,8.07,21.16,3.25,41.07,5.94,60.91-4.12,18.52-9.39,33.72-23.22,46.81-39.2,12.84-15.67,25.28-32.99,32.36-52.14,4.39-11.88,8.82-52.35,3.72-57.98ZM439.95,986.64c-25.58,31.79-59.71,52.53-86.94,52.85-.81.01-1.62.01-2.43.01-29.03,0-47.06-6.31-58.45-20.48-12.42-15.44-16.7-40.79-13.1-77.49,4.6-46.84,50.99-67.8,94.93-67.8,2.3,0,4.67.06,7.07.17,53.42,2.62,82.96,10.72,86.06,45.94,1.67,18.94-8.22,43.29-27.13,66.8Z"/>
    <path class="cls-3" d="M723.18,1020.37c.22-.26.44-.5.67-.73,7.66-17.06,7.2-37.75,8.27-56.05-.23-9.74-.68-19.68.12-29.39-1.53-9.54-3.57-19.04-2.11-28.41-7.1-5.03-13.01-11.68-19.16-17.9-1.34-.55-2.65-1.12-3.83-1.79-9.26-5.2-16.82-12.42-25.24-18.78-.02-.01-.03-.02-.04-.04-4.87-1.01-9.69-1.82-14.24-2.49-25.65-3.76-51.54-2.6-77.25-.15-22.67,2.16-61.63,5.64-71.69,30.04-1.16,2.97-1.98,6.06-2.28,9.29-.21,2.25-1,4.12-2.12,5.62.94,3.74,1.1,7.76,1.41,11.56.76,9.49,4.77,17.74,7.87,26.58,3.2,9.12,5,18.02,10.12,26.41,5.38,8.83,11.02,17.41,17.01,25.73,1.81,1.63,3.67,3.21,5.53,4.76,7.46,6.23,14.9,12.71,22.78,18.41,17.35,12.57,37.05,22.66,58.03,27.46,17.1,3.91,33.04,3.8,48.85-.73,13.32-8.73,26.96-16.96,37.31-29.41ZM645.8,1038.9c-27.23-.31-61.35-21.06-86.94-52.85-18.91-23.5-28.8-47.85-27.13-66.79,3.1-35.22,32.64-43.32,86.06-45.93,2.39-.11,4.77-.17,7.07-.17,43.94,0,90.33,20.96,94.93,67.8,3.61,36.69-.68,62.04-13.1,77.48-11.39,14.17-29.42,20.48-58.46,20.48-.79,0-1.58,0-2.44-.01Z"/>
  </g>
  <path class="cls-2" d="M755.88,916.42c-.12-.03-12.24-3.49-21.99-8.99-2.53-1.43-5.5-3.97-8.81-7.55-1.33-1.94-2.7-3.77-4.08-5.45-19.83-24.21-55.66-38.67-95.83-38.67-2.77,0-5.58.07-8.36.21-3.29.16-6.67.35-9.99.56h-224.19c-2.59-.12-5.2-.18-7.78-.18-40.17,0-76,14.46-95.83,38.67-1.39,1.71-2.76,3.54-4.07,5.45-3.32,3.58-6.29,6.13-8.82,7.56-9.75,5.5-21.87,8.96-21.99,8.99l-.72.2.18.81,2.91,13.06.11.5.45.12c.07.02,6.91,1.83,9.7,7.02,1.95,3.63,2.93,13.64,3.19,21.84,3.36,38.47,11.93,63.04,26.96,77.33,13.28,12.63,31.84,18.02,62.05,18.02.56,0,1.13,0,1.71,0,32.8-.21,71.62-22.59,101.29-58.43,23.11-27.91,35.98-58.87,34.46-82.85.9-2.77,1.93-5.26,3.08-7.39,1.52-2.85,3.27-5.16,5.08-6.66,2.07-1.7,4-2.44,6.42-2.51h.16c2.81.04,4.46,1.05,6.07,2.56,2.78,2.62,4.96,7.74,6.08,11.66.12.41.23.82.34,1.22-1.73,23.83,10.9,54.71,33.82,82.65,29.76,36.28,68.8,58.95,101.9,59.16.57,0,1.15,0,1.72,0h.01c30.2,0,48.74-5.39,62.02-18.01,15.03-14.29,23.59-38.86,26.95-77.38.13-3.96.74-17.23,3.19-21.79,2.79-5.19,9.63-7.01,9.7-7.02l.45-.12.11-.5,2.91-13.06.18-.81-.72-.2ZM558.08,986.71c-19.19-23.85-29.22-48.66-27.51-68.05,3.22-36.5,33.32-44.87,87.73-47.54,2.38-.12,4.78-.18,7.15-.18,44.73,0,91.97,21.46,96.68,69.39,3.65,37.18-.75,62.94-13.48,78.76-11.76,14.62-30.21,21.14-59.83,21.14-.82,0-1.63,0-2.46-.02-27.73-.32-62.39-21.33-88.29-53.51ZM353.63,1040.81c-.83,0-1.64.02-2.46.02-29.62,0-48.07-6.52-59.83-21.14-12.72-15.82-17.13-41.58-13.48-78.76,4.71-47.93,51.95-69.39,96.68-69.39,2.37,0,4.78.06,7.15.18,54.42,2.67,84.52,11.04,87.74,47.54,1.71,19.39-8.32,44.2-27.51,68.05-25.9,32.18-60.56,53.19-88.29,53.51ZM481.24,893.12c-4.51-9.68-11.89-17.11-22.48-22.61h81.41c-9.73,5.28-16.63,12.26-21.02,21.24-.86-1.11-1.74-2.1-2.67-3-4.21-4.15-9.6-6.44-15.2-6.44h-.52c-5.55.07-11.03,2.32-15.44,6.32-1.44,1.3-2.78,2.78-4.08,4.49Z"/>
  <path class="cls-1" d="M348.51,1052.83c-29.72,0-47.91-5.24-60.83-17.53-14.7-13.98-23.1-38.2-26.42-76.21-.12-3.96-.76-17.6-3.39-22.52-2.66-4.93-8.29-7.1-10.22-7.71l-2.61-11.73c2.99-.91,13.12-4.17,21.5-8.9,2.68-1.5,5.79-4.16,9.24-7.89l.09-.09.07-.11c1.25-1.82,2.59-3.62,3.99-5.33,19.5-23.8,54.81-38.01,94.47-38.01,2.5,0,5.09.06,7.7.18h224.27c3.42-.21,6.79-.4,10.08-.56,2.71-.14,5.5-.2,8.27-.2,39.65,0,74.98,14.21,94.47,38.02,1.36,1.65,2.7,3.45,3.99,5.33l.07.1.09.1c3.45,3.72,6.56,6.38,9.25,7.89,8.45,4.77,18.47,7.98,21.5,8.9l-2.61,11.73c-1.84.59-7.55,2.76-10.21,7.72-2.55,4.75-3.23,17.36-3.4,22.56-3.32,37.95-11.71,62.18-26.41,76.16-12.92,12.29-31.1,17.53-60.81,17.53h-1.72c-32.59-.21-71.12-22.62-100.55-58.51-22.63-27.59-35.12-58.03-33.43-81.41l.03-.29-.07-.28c-.11-.43-.23-.85-.36-1.29-.56-1.98-2.71-8.82-6.55-12.42-1.65-1.55-3.68-3-7.25-3.05h-.22c-2.82.07-5.13.97-7.5,2.91-1.99,1.65-3.89,4.13-5.52,7.19-1.2,2.22-2.27,4.81-3.2,7.67l-.1.32.02.33c1.5,23.54-11.23,54.05-34.05,81.62-29.35,35.45-67.65,57.59-99.95,57.79h-1.69ZM374.1,868.45c-45.53,0-93.62,21.95-98.44,70.98-3.7,37.66.84,63.84,13.86,80.03,12.13,15.08,31,21.8,61.2,21.8.81,0,1.63,0,2.45-.02,28.27-.33,63.45-21.59,89.67-54.17,19.48-24.2,29.64-49.46,27.9-69.31-3.34-37.78-33.99-46.42-89.4-49.14-2.48-.12-4.91-.18-7.24-.18h0ZM625.02,867.86c-2.38,0-4.82.06-7.24.18-55.41,2.71-86.07,11.35-89.41,49.14-1.74,19.85,8.42,45.11,27.9,69.31,26.21,32.58,61.4,53.84,89.65,54.17.86,0,1.66.02,2.48.02,30.2,0,49.08-6.72,61.2-21.8,13.03-16.2,17.56-42.38,13.86-80.04-4.82-49.04-52.91-70.98-98.43-70.98h0ZM458.32,867.43l-.81,3.33c10.25,5.32,17.35,12.45,21.69,21.79l1.23,2.64,1.77-2.31c1.25-1.62,2.51-3.02,3.87-4.25,4.09-3.72,9.16-5.8,14.28-5.86h.39c5.24,0,10.2,2.1,14.07,5.92.89.87,1.71,1.79,2.51,2.83l1.74,2.24,1.24-2.54c4.23-8.67,10.87-15.36,20.28-20.47l-.84-3.31h-81.42Z"/>
  <path d="M487.63,888.43s-4.99,3.82-5.58,7.93c-.59,4.11,2.24,16.41,2.24,16.41,0,0-1.65-16.7,3.34-24.34Z"/>
  <path d="M512.49,886.96s4.99,3.82,5.58,7.92c.59,4.11-2.24,16.41-2.24,16.41,0,0,1.65-16.71-3.34-24.34Z"/>
</svg>
