<?xml version="1.0" encoding="UTF-8"?>
<svg id="Layer_3" data-name="Layer 3" xmlns="http://www.w3.org/2000/svg" xmlns:xlink="http://www.w3.org/1999/xlink" viewBox="0 0 1000 1500">
  <defs>
    <style>
      .cls-1 {
        fill: #231f20;
      }

      .cls-2 {
        fill: url(#radial-gradient);
      }
    </style>
    <radialGradient id="radial-gradient" cx="500" cy="971.7" fx="500" fy="971.7" r="287.39" gradientUnits="userSpaceOnUse">
      <stop offset="0" stop-color="#ff2c00"/>
      <stop offset=".26" stop-color="#f7cb00"/>
      <stop offset=".52" stop-color="#8fb300"/>
      <stop offset=".75" stop-color="#3c9dff"/>
      <stop offset="1" stop-color="#8d00df"/>
    </radialGradient>
  </defs>
  <path class="cls-1" d="M775.85,925.16c28.16-6.64,25.53-25.55,23.23-33.11-.57-1.89-2.3-3.18-4.28-3.18h-12.11c-17.82,0-27.92-6.02-32.49-9.78-2.68-2.21-5.92-3.63-9.35-4.2-41.24-6.9-140.08-3.38-172.04,3.73-29.06,6.46-59.11,6.36-66.89,6.21-1.29-.03-2.56-.03-3.85,0-7.78.15-37.82.25-66.89-6.21-31.96-7.1-130.8-10.62-172.04-3.73-3.43.57-6.67,2-9.35,4.2-4.57,3.76-14.67,9.78-32.49,9.78h-12.11c-1.97,0-3.7,1.29-4.28,3.18-2.3,7.56-4.93,26.47,23.23,33.11,35.53,8.38,275.84,4.35,275.84,4.35,0,0,240.34,4.03,275.87-4.35Z"/>
  <path class="cls-2" d="M500,922.81h25.82c3.67,0,7.25-1.5,9.62-4.3,12.05-14.28,77.73-36.35,153.84-36.35,84.31,0,92.78,40.61,92.78,40.61,0,0,2.75,38.01-3.31,54.54-6.06,16.53-19.83,35.26-35.26,45.73-15.43,10.47-158.77,54.24-193.37,31.95-8.85-5.7-19.28-14.87-19.28-37.46s-13.77-69.33-30.85-69.33c-17.08,0-30.85,46.74-30.85,69.33s-10.43,31.76-19.28,37.46c-34.6,22.29-177.94-21.49-193.37-31.95s-29.2-29.2-35.26-45.73-3.31-54.54-3.31-54.54c0,0,8.48-40.61,92.78-40.61,76.11,0,141.79,22.07,153.84,36.35,2.37,2.81,5.95,4.3,9.62,4.3,0,0,25.82,0,25.82,0Z"/>
</svg>
