<?xml version="1.0" encoding="UTF-8"?>
<svg id="Layer_6" data-name="Layer 6" xmlns="http://www.w3.org/2000/svg" viewBox="0 0 1000 1500">
  <defs>
    <style>
      .cls-1 {
        fill: none;
        opacity: .4;
        stroke: #fff;
        stroke-linecap: round;
      }

      .cls-1, .cls-2 {
        stroke-miterlimit: 10;
        stroke-width: 6px;
      }

      .cls-3 {
        fill: #231f20;
        opacity: .56;
      }

      .cls-2 {
        fill: #f1f2f2;
        stroke: #d1d3d4;
      }
    </style>
  </defs>
  <path class="cls-3" d="M449.54,949.2c-15.54,43.57-71.82,53.21-80.94,54.77-40.76,6.98-83.7-7.07-111.66-35.94-10.13-10.45-34.07-35.18-28.96-63.15,7.46-40.83,55.58-54.04,72.25-55.71,55.06-5.5,129.08,13.5,149.32,53.97,10.54,21.1,1.22,42.65,0,46.06Z"/>
  <path class="cls-3" d="M749.6,968.03c-27.96,28.87-70.91,42.92-111.66,35.94-9.13-1.57-65.41-11.2-80.94-54.77-1.22-3.41-10.56-24.96,0-46.06,20.24-40.47,94.26-59.47,149.32-53.97,16.67,1.67,64.79,14.88,72.25,55.71,5.12,27.98-18.83,52.7-28.96,63.15Z"/>
  <path class="cls-2" d="M810.97,846.76c-22.92-7.31-79.48-21.25-151.85-10.41-83.38,12.51-116.03,41.9-122.83,48.97-.82.85-2.16.95-3.1.22l-5.8-4.53c-.13-.1-.27-.19-.42-.27-1.37-.64-8.62-3.56-26.96-3.56s-25.6,2.92-26.96,3.56c-.15.07-.3.16-.43.27l-5.8,4.53c-.92.73-2.27.63-3.09-.24-6.8-7.07-39.46-36.46-122.83-48.96-72.37-10.86-128.95,3.1-151.85,10.39-6.38,2.04-9.99,8.77-8.14,15.21,10.83,37.7,53.45,156.95,160,156.95,126.55,0,136.64-97.48,136.64-97.48,0,0,.52-5.52,3.59-11.04,3.07-5.52,8.68-11.04,18.88-11.04,20.39,0,22.47,22.07,22.47,22.07,0,0,10.08,97.48,136.64,97.48,106.55,0,149.17-119.24,159.98-156.95,1.85-6.44-1.74-13.17-8.13-15.2ZM449.54,949.2c-15.54,43.57-71.82,53.21-80.94,54.77-40.76,6.98-83.7-7.07-111.66-35.94-10.13-10.45-34.07-35.18-28.96-63.15,7.46-40.83,55.58-54.04,72.25-55.71,55.06-5.5,129.08,13.5,149.32,53.97,10.54,21.1,1.22,42.65,0,46.06ZM749.6,968.03c-27.96,28.87-70.91,42.92-111.66,35.94-9.13-1.57-65.41-11.2-80.94-54.77-1.22-3.41-10.56-24.96,0-46.06,20.24-40.47,94.26-59.47,149.32-53.97,16.67,1.67,64.79,14.88,72.25,55.71,5.12,27.98-18.83,52.7-28.96,63.15Z"/>
  <line class="cls-1" x1="326.77" y1="883.8" x2="272.9" y2="937.68"/>
  <line class="cls-1" x1="393.78" y1="907.47" x2="339.9" y2="961.35"/>
  <line class="cls-1" x1="408.88" y1="931.13" x2="378.67" y2="961.35"/>
  <line class="cls-1" x1="381.21" y1="879.12" x2="288.18" y2="972.16"/>
  <line class="cls-1" x1="651.52" y1="883.8" x2="597.64" y2="937.68"/>
  <line class="cls-1" x1="718.52" y1="907.47" x2="664.65" y2="961.35"/>
  <line class="cls-1" x1="733.63" y1="931.13" x2="703.42" y2="961.35"/>
  <line class="cls-1" x1="705.96" y1="879.12" x2="612.92" y2="972.16"/>
</svg>
