<?xml version="1.0" encoding="UTF-8"?>
<svg id="Layer_4" data-name="Layer 4" xmlns="http://www.w3.org/2000/svg" viewBox="0 0 1000 1500">
  <defs>
    <style>
      .cls-1 {
        fill: #ff860f;
      }

      .cls-2 {
        fill: #f1463a;
      }

      .cls-3 {
        fill: #ffbb0f;
      }

      .cls-4 {
        fill: #43162b;
      }

      .cls-5 {
        opacity: .6;
      }

      .cls-6 {
        fill: #742d49;
      }
    </style>
  </defs>
  <path class="cls-2" d="M811.65,866c-1.94,3.78-4.27,7.64-8.15,9.48-4.63,2.2-10.17-.86-11.33-5.85-5.05-21.78,22.08-33.2,32.51-47.51,7.27-9.97,7.78-22.58,4.62-34.17-2.36-8.69-6.53-16.72-10.65-24.68-4.83-9.32-8.23-19.37-13.06-28.69-.03.04-.05.08-.08.12-4.67,7.55-6.07,16.6-4.47,25.33.99,5.45,1.19,10.97-.47,16.49-.87,2.88-2.34,5.59-4.37,7.82-13.12,14.36-30.64-1.07-30.92-16.65-.17-9.25,5.13-17.71,10.9-24.55,5.99-7.1,13.24-13.03,19.55-19.84,6.31-6.81,11.83-14.88,13.19-24.06,1.36-9.19-4.12-22.76-12.47-28.79,6.17,40.76-54.43,32.38-76.33,76.6-5.42,10.95-5.28,23.8-10.72,34.48-8.67,17.01-35.46,7.49-30.29-11.44-14.87,4.15-26.1,18.89-26.14,34.33-.02,6.13,1.08,12.6-.6,18.65-1.63,5.87-5.99,8.76-11.26,11.07-12.65,5.54-35.47,16.03-48.46,20.68-6.84,2.44-13.64,5.04-20.24,8.08-33.5,15.46-11.76,25.75-28.79,40.99,41.97-7.23,113.18-31.92,155.89-28.78,7.01.52,13.9,2.52,19.76,6.4,13.51,8.94,19.36,24.08,21.48,39.22,5.37,38.38-67.62,84.78-71.84,123.3,26.5-2.33-3.85-29.13,22.75-29.13,69.79,0,122.44-76.19,102.77-71.51-1.51.36-11.69.47-9.79-8.7.52-2.48,1.79-4.71,3.31-6.74,6.07-8.03,13.78-14.05,20.57-21.28,6.91-7.36,13.14-15.47,17.1-24.83,4.71-11.13,1.11-31.8-6.68-41.04-2.2,8.38-3.31,17.5-7.27,25.2Z"/>
  <path class="cls-1" d="M774.49,882.84c-1.15,2.25-3.43,4.12-5.95,4.01-2.78-.12-5.02-2.63-5.59-5.35-.56-2.72.22-5.55,1.35-8.09,2.89-6.49,7.93-11.73,12.31-17.32,4.39-5.59,8.32-12.09,8.32-19.19,0-10.71-7.59-20.22-15.6-27.34-.15,6.54,1.39,14.6-.19,20.94-1.26,5.06-4.96,8.76-9.04,12-4.08,3.24-9.11,3.23-11.03-1.62-2.29-5.79,4.46-13.55,7.08-18.29,3.5-6.34,5.71-12.92,3.99-20.19-1.32-5.56-4.96-10.13-6.55-15.62-2.04-7.03-2.56-14.46-1.36-21.68.59-3.56,1.57-7.05,2.75-10.45.37-1.05,2.04-7.37,3.08-7.68-8.35,2.44-20.05,7.31-22.2,31.1,0,0,0,0-.01,0,0,.07,0,.14-.01.21-.03.29-.04.61-.06.9-.59,9.17-.99,14.55-2.13,22.66-.49,3.48-2.08,8.64-4.05,11.55-1.97,2.91-5.84,4.86-9.08,3.51-3.76-1.57-4.77-6.78-3.14-10.51,1.63-3.74,3.46-7.24,5.56-9.93-2.69,0-9.08.09-14.41,3.03-5.34,2.94-9.56,7.85-11.67,13.57-1.54,4.17-1.98,8.71-3.75,12.8-1.77,4.08-5.47,7.87-9.92,7.68-4.64-.19-8.29-5.5-6.8-9.9-6.93,3.67-12.75,9.78-15.12,17.26-2.36,7.48-1.66,15.87,1.9,22.86,8.66,4.9,18.12,8.62,27.86,10.7l48.4,14.18,3.27,55.93,4.89,26.2c.84-5.75,2.64-11.45,5.06-16.65,6.16-13.3,15.68-24.82,22-38.05,6.32-13.23,9.18-28.1,1.46-40.56-.23,2.52-.48,5.11-1.63,7.36Z"/>
  <path class="cls-2" d="M188.35,866c1.94,3.78,4.27,7.64,8.15,9.48,4.63,2.2,10.17-.86,11.33-5.85,5.05-21.78-22.08-33.2-32.51-47.51-7.27-9.97-7.78-22.58-4.62-34.17,2.36-8.69,6.53-16.72,10.65-24.68,4.82-9.32,8.23-19.37,13.06-28.69.03.04.05.08.08.12,4.67,7.55,6.07,16.6,4.47,25.33-.99,5.45-1.19,10.97.47,16.49.87,2.88,2.34,5.59,4.37,7.82,13.12,14.36,30.64-1.07,30.92-16.65.17-9.25-5.13-17.71-10.9-24.55-5.99-7.1-13.24-13.03-19.55-19.84-6.31-6.81-11.83-14.88-13.19-24.06-1.36-9.19,4.12-22.76,12.47-28.79-6.17,40.76,54.43,32.38,76.33,76.6,5.42,10.95,5.28,23.8,10.72,34.48,8.67,17.01,35.46,7.49,30.29-11.44,14.87,4.15,26.1,18.89,26.14,34.33.02,6.13-1.08,12.6.6,18.65,1.63,5.87,5.99,8.76,11.26,11.07,12.65,5.54,35.47,16.03,48.46,20.68,6.84,2.44,13.64,5.04,20.24,8.08,33.5,15.46,11.76,25.75,28.79,40.99-41.97-7.23-113.18-31.92-155.89-28.78-7.01.52-13.9,2.52-19.76,6.4-13.51,8.94-19.36,24.08-21.48,39.22-5.37,38.38,67.62,84.78,71.84,123.3-26.5-2.33,3.85-29.13-22.75-29.13-69.79,0-122.44-76.19-102.77-71.51,1.51.36,11.69.47,9.79-8.7-.52-2.48-1.79-4.71-3.31-6.74-6.07-8.03-13.78-14.05-20.57-21.28-6.91-7.36-13.14-15.47-17.1-24.83-4.71-11.13-1.11-31.8,6.68-41.04,2.2,8.38,3.31,17.5,7.27,25.2Z"/>
  <path class="cls-1" d="M225.51,882.84c1.15,2.25,3.43,4.12,5.95,4.01,2.78-.12,5.02-2.63,5.59-5.35.56-2.72-.22-5.55-1.35-8.09-2.89-6.49-7.93-11.73-12.31-17.32-4.39-5.59-8.32-12.09-8.32-19.19,0-10.71,7.59-20.22,15.6-27.34.15,6.54-1.39,14.6.19,20.94,1.26,5.06,4.96,8.76,9.04,12,4.08,3.24,9.11,3.23,11.03-1.62,2.29-5.79-4.46-13.55-7.08-18.29-3.5-6.34-5.71-12.92-3.99-20.19,1.32-5.56,4.96-10.13,6.55-15.62,2.04-7.03,2.56-14.46,1.36-21.68-.59-3.56-1.57-7.05-2.75-10.45-.37-1.05-2.04-7.37-3.08-7.68,8.35,2.44,20.05,7.31,22.2,31.1,0,0,0,0,.01,0,0,.07,0,.14.01.21.03.29.04.61.06.9.59,9.17.99,14.55,2.13,22.66.49,3.48,2.08,8.64,4.05,11.55,1.97,2.91,5.84,4.86,9.08,3.51,3.76-1.57,4.77-6.78,3.14-10.51-1.63-3.74-3.46-7.24-5.56-9.93,2.69,0,9.08.09,14.41,3.03,5.34,2.94,9.56,7.85,11.67,13.57,1.54,4.17,1.98,8.71,3.75,12.8,1.77,4.08,5.47,7.87,9.92,7.68,4.64-.19,8.29-5.5,6.8-9.9,6.93,3.67,12.75,9.78,15.12,17.26,2.36,7.48,1.66,15.87-1.9,22.86-8.66,4.9-18.12,8.62-27.86,10.7l-48.4,14.18-3.27,55.93-4.89,26.2c-.84-5.75-2.64-11.45-5.06-16.65-6.16-13.3-15.68-24.82-22-38.05-6.32-13.23-9.18-28.1-1.46-40.56.23,2.52.48,5.11,1.63,7.36Z"/>
  <g>
    <g class="cls-5">
      <path class="cls-6" d="M721.27,870.53s-88.86-4.34-143.33,7.81c5.68,27.73,21.4,53.41,45.41,68.58,20.27,12.81,44.22,18.37,65.71,29,9.93,4.91,19.26,10.97,27.87,17.93l24.91-33.5-20.57-89.83Z"/>
      <path class="cls-4" d="M623.34,946.92c-24-15.18-39.72-40.85-45.41-68.58-16.24,3.63-29.44,8.72-36.29,15.83-29.82,30.97,5.33,79.09,5.33,79.09l15.83,47.52,45.34,36.53,78.69-23.01,30.07-40.45c-8.61-6.96-17.94-13.02-27.87-17.93-21.49-10.63-45.45-16.19-65.71-29Z"/>
    </g>
    <g>
      <g class="cls-5">
        <path class="cls-6" d="M449.19,870.53s-88.86-4.34-143.33,7.81c5.68,27.73,21.4,53.41,45.41,68.58,20.27,12.81,44.22,18.37,65.71,29,9.93,4.91,19.26,10.97,27.87,17.93l24.91-33.5-20.57-89.83Z"/>
      </g>
      <g class="cls-5">
        <path class="cls-4" d="M351.26,946.92c-24-15.18-39.72-40.85-45.41-68.58-16.24,3.63-29.44,8.72-36.29,15.83-29.82,30.97,5.33,79.09,5.33,79.09l15.83,47.52,45.34,36.53,78.69-23.01,30.07-40.45c-8.61-6.96-17.94-13.02-27.87-17.93-21.49-10.63-45.45-16.19-65.71-29Z"/>
      </g>
    </g>
    <path class="cls-3" d="M526.44,933.74c-9.97,0-16.08-7.01-20.99-12.63-1.54-1.77-4.1-4.71-6.03-6.35-2.05,1.72-4.77,4.74-6.41,6.56-5.26,5.83-11.22,12.43-20.9,12.43v-35.16c-5.34,0-8.46,2.65-8.49,2.67.59-.51,2.15-2.24,3.29-3.51,6.84-7.57,17.17-19.02,32.36-19.02s26.39,12.06,32.68,19.26c1.05,1.21,2.49,2.85,3.04,3.35-.03-.03-3.14-2.76-8.55-2.76v35.16Z"/>
    <path class="cls-3" d="M633.58,1069.46c-42.63,0-80.36-25.91-101.09-70.68-10.61-22.91-17.08-43.59-19.77-63.22-.23-1.64-.43-3.28-.6-4.91-2.84-26.68,13.59-50.03,46.26-65.74,42.74-20.55,120.36-26.74,162.86-13,15.46,5,26.08,13.18,31.56,24.3,7.99,16.24,10.02,36.85,6.22,63.03-.69,4.75-1.56,9.65-2.66,14.97-12.94,62.54-52.22,105.08-105.07,113.78-5.97.99-11.89,1.47-17.7,1.47ZM665.14,879.77c-32.36,0-69.3,6.13-91.52,16.82h0c-12.92,6.21-28.01,16.52-26.53,30.35.14,1.29.3,2.57.47,3.85,2.21,16.11,7.72,33.52,16.84,53.22,16.88,36.46,47.2,54.9,81.18,49.3,37.94-6.24,66.48-38.48,76.36-86.22.96-4.63,1.71-8.84,2.3-12.89,2.71-18.66,1.71-32.94-2.97-42.45-.5-1.02-2.58-3.71-10.85-6.39-11.76-3.8-27.86-5.59-45.28-5.59Z"/>
    <path class="cls-3" d="M366.04,1069.46c-5.82,0-11.73-.48-17.7-1.47-52.85-8.7-92.13-51.24-105.07-113.79-1.1-5.32-1.97-10.22-2.66-14.97-3.8-26.18-1.77-46.79,6.21-63.01,5.49-11.13,16.11-19.31,31.57-24.31,42.48-13.75,120.11-7.56,162.85,13h0c32.67,15.7,49.1,39.06,46.26,65.75-.17,1.63-.37,3.26-.59,4.9-2.7,19.65-9.16,40.33-19.77,63.23-20.73,44.77-58.46,70.68-101.09,70.68ZM334.48,879.77c-17.43,0-33.52,1.78-45.28,5.58-8.27,2.67-10.34,5.37-10.85,6.4-4.67,9.49-5.67,23.77-2.96,42.44.59,4.05,1.34,8.27,2.3,12.89,9.88,47.75,38.42,79.98,76.36,86.23,33.92,5.62,64.29-12.83,81.18-49.3,9.12-19.69,14.63-37.1,16.84-53.23.17-1.27.33-2.55.46-3.83,1.48-13.84-13.61-24.15-26.53-30.36h0c-22.21-10.68-59.16-16.82-91.52-16.82Z"/>
  </g>
</svg>
