<?xml version="1.0" encoding="UTF-8"?>
<svg id="Layer_9" data-name="Layer 9" xmlns="http://www.w3.org/2000/svg" viewBox="0 0 1000 1500">
  <defs>
    <style>
      .cls-1 {
        fill: #3c2415;
        opacity: .6;
      }

      .cls-2 {
        fill: none;
        opacity: .65;
        stroke: #f1f2f2;
        stroke-linecap: round;
        stroke-miterlimit: 10;
        stroke-width: 6px;
      }

      .cls-3 {
        fill: #d9ac2a;
      }
    </style>
  </defs>
  <path class="cls-1" d="M724.28,916.92l-47.69,40.46c-.82.7-1.18,1.8-.93,2.85l14.8,60.77c.6,2.48-2.1,4.45-4.27,3.1l-53.22-32.86c-.92-.57-2.08-.57-3,0l-53.22,32.86c-2.17,1.34-4.88-.62-4.27-3.1l14.8-60.77c.26-1.05-.1-2.15-.93-2.85l-47.7-40.46c-1.95-1.65-.91-4.83,1.63-5.02l62.37-4.7c1.08-.08,2.02-.76,2.43-1.76l23.74-57.86c.97-2.36,4.31-2.36,5.28,0l23.74,57.86c.41,1,1.35,1.68,2.43,1.76l62.37,4.7c2.54.19,3.58,3.37,1.63,5.02Z"/>
  <path class="cls-1" d="M461.35,916.92l-47.69,40.46c-.82.7-1.18,1.8-.93,2.85l14.8,60.77c.6,2.48-2.1,4.45-4.27,3.1l-53.22-32.86c-.92-.57-2.08-.57-3,0l-53.22,32.86c-2.17,1.34-4.88-.62-4.27-3.1l14.8-60.77c.26-1.05-.1-2.15-.93-2.85l-47.7-40.46c-1.95-1.65-.91-4.83,1.63-5.02l62.37-4.7c1.08-.08,2.02-.76,2.43-1.76l23.74-57.86c.97-2.36,4.31-2.36,5.28,0l23.74,57.86c.41,1,1.35,1.68,2.43,1.76l62.37,4.7c2.54.19,3.58,3.37,1.63,5.02Z"/>
  <path class="cls-3" d="M770.36,896.39l-96.93-7.31c-1.08-.08-2.02-.76-2.43-1.76l-36.9-89.93c-.97-2.36-4.31-2.36-5.28,0l-36.9,89.93c-.41,1-1.35,1.68-2.43,1.76l-89.49,6.75-89.49-6.75c-1.08-.08-2.02-.76-2.43-1.76l-36.9-89.93c-.97-2.36-4.31-2.36-5.28,0l-36.9,89.93c-.41,1-1.35,1.68-2.43,1.76l-96.93,7.31c-2.54.19-3.58,3.37-1.63,5.02l74.12,62.88c.82.7,1.18,1.8.93,2.85l-23,94.44c-.6,2.48,2.1,4.45,4.27,3.1l82.71-51.06c.92-.57,2.08-.57,3,0l82.71,51.06c2.17,1.34,4.88-.62,4.27-3.1l-23-94.44c-.26-1.05.1-2.15.93-2.85l65.06-55.19,65.06,55.19c.82.7,1.18,1.8.93,2.85l-23,94.44c-.6,2.48,2.1,4.45,4.27,3.1l82.71-51.06c.92-.57,2.08-.57,3,0l82.71,51.06c2.17,1.34,4.88-.62,4.27-3.1l-23-94.44c-.26-1.05.1-2.15.93-2.85l74.12-62.88c1.95-1.65.91-4.83-1.63-5.02ZM461.35,916.92l-47.69,40.46c-.82.7-1.18,1.8-.93,2.85l14.8,60.77c.6,2.48-2.1,4.45-4.27,3.1l-53.22-32.86c-.92-.57-2.08-.57-3,0l-53.22,32.86c-2.17,1.34-4.88-.62-4.27-3.1l14.8-60.77c.26-1.05-.1-2.15-.93-2.85l-47.7-40.46c-1.95-1.65-.91-4.83,1.63-5.02l62.37-4.7c1.08-.08,2.02-.76,2.43-1.76l23.74-57.86c.97-2.36,4.31-2.36,5.28,0l23.74,57.86c.41,1,1.35,1.68,2.43,1.76l62.37,4.7c2.55.19,3.58,3.37,1.63,5.02ZM724.28,916.92l-47.69,40.46c-.82.7-1.18,1.8-.93,2.85l14.8,60.77c.6,2.48-2.1,4.45-4.27,3.1l-53.22-32.86c-.92-.57-2.08-.57-3,0l-53.22,32.86c-2.17,1.34-4.88-.62-4.27-3.1l14.8-60.77c.26-1.05-.1-2.15-.93-2.85l-47.7-40.46c-1.95-1.65-.91-4.83,1.63-5.02l62.37-4.7c1.08-.08,2.02-.76,2.43-1.76l23.74-57.86c.97-2.36,4.31-2.36,5.28,0l23.74,57.86c.41,1,1.35,1.68,2.43,1.76l62.37,4.7c2.54.19,3.58,3.37,1.63,5.02Z"/>
  <line class="cls-2" x1="392.56" y1="916.87" x2="336.54" y2="972.89"/>
  <line class="cls-2" x1="369.27" y1="915.02" x2="338.01" y2="946.28"/>
  <line class="cls-2" x1="400.53" y1="937.58" x2="369.27" y2="968.84"/>
  <line class="cls-2" x1="655.48" y1="910.5" x2="599.47" y2="966.52"/>
  <line class="cls-2" x1="632.2" y1="908.65" x2="600.94" y2="939.91"/>
  <line class="cls-2" x1="663.46" y1="931.21" x2="632.2" y2="962.47"/>
</svg>
