<?xml version="1.0" encoding="UTF-8"?>
<svg id="Layer_3" data-name="Layer 3" xmlns="http://www.w3.org/2000/svg" viewBox="0 0 1000 1000">
  <defs>
    <style>
      .cls-1 {
        fill: none;
        stroke: #000;
        stroke-linecap: round;
        stroke-linejoin: round;
        stroke-width: 6px;
      }
    </style>
  </defs>
  <path class="cls-1" d="M667.26,605.68s-7.08,5.15-16.34,9.11c-9.17,3.92-19.82,2.64-27.73-3.43-10.44-8.02-29.28-19.24-52.99-19.24-26.37,0-41.75,9.17-48.37,14.39l-4.91,3.54c-8.84,4.12-19.03,3.51-26.1,2.24-4.64-.83-8.93-2.86-12.63-5.78-6.62-5.23-22-14.39-48.37-14.39-23.71,0-42.56,11.22-52.99,19.24-7.91,6.07-18.56,7.35-27.73,3.43s-16.34-9.11-16.34-9.11"/>
  <path class="cls-1" d="M449.65,625.3c6.13,4.37,24.29,12.37,50.35,12.37s44.54-8.02,50.65-12.37"/>
</svg>
