<?xml version="1.0" encoding="UTF-8"?>
<svg id="Layer_3" data-name="Layer 3" xmlns="http://www.w3.org/2000/svg" viewBox="0 0 1000 1000">
  <defs>
    <style>
      .cls-1 {
        fill: #fff;
        stroke-linejoin: round;
      }

      .cls-1, .cls-2 {
        stroke: #000;
        stroke-linecap: round;
        stroke-width: 6px;
      }

      .cls-2 {
        fill: none;
        stroke-miterlimit: 10;
      }
    </style>
  </defs>
  <path class="cls-1" d="M338.81,546.09l11.27,9.95c18.92,16.71,41.37,28.94,65.67,35.78h0s168.5,0,168.5,0h0c24.3-6.84,46.75-19.07,65.67-35.78l11.27-9.95-14.36,30.05c-2.78,5.82-6.54,11.13-11.1,15.69l-27.99,27.99c-4.71,4.71-8.86,9.95-12.36,15.62l-15.22,24.62c-4.32,6.99-11.95,11.25-20.17,11.25h-119.95c-8.22,0-15.85-4.26-20.17-11.25l-15.22-24.62c-3.5-5.67-7.65-10.91-12.36-15.62l-27.99-27.99c-4.56-4.56-8.32-9.87-11.1-15.69l-14.36-30.05Z"/>
  <path class="cls-2" d="M412.53,616.2c19.88,6.45,51.91,10.21,87.47,10.21,39.37,0,66.78-3.5,87.47-10.21"/>
</svg>