<?xml version="1.0" encoding="UTF-8"?>
<svg id="Layer_3" data-name="Layer 3" xmlns="http://www.w3.org/2000/svg" viewBox="0 0 1000 1000">
  <defs>
    <style>
      .cls-1, .cls-2 {
        stroke: #000;
        stroke-linecap: round;
        stroke-linejoin: round;
        stroke-width: 6px;
      }

      .cls-2 {
        fill: #fff;
      }
    </style>
  </defs>
  <path class="cls-1" d="M377.44,567.67c42.94,12.32,79,14.89,103.74,14.93,20.99.03,40.21-.1,64.18-7.46,25.63-7.87,43.6-17.29,57.4-26.28,4.33-2.82,10.09-1.8,13.25,2.29l4.52,5.86c2.81,3.65,2.77,8.73-.13,12.31-17.31,21.45-77.11,91.55-119.05,91.55,0,0-30.48.23-37.93-2.9-14.55-27.96-85.99-90.31-85.99-90.31Z"/>
  <path class="cls-2" d="M377.4,567.67c42.94,12.32,79,14.89,103.74,14.93,20.99.03,40.21-.1,64.18-7.46,25.63-7.87,43.6-17.29,57.4-26.28,4.33-2.82,10.09-1.8,13.25,2.29l4.52,5.86s-51.89,46.98-73.58,46.98h-96.68s-29.07-6.19-72.83-36.33Z"/>
</svg>
