<?xml version="1.0" encoding="UTF-8"?>
<svg id="Layer_3" data-name="Layer 3" xmlns="http://www.w3.org/2000/svg" viewBox="0 0 1000 1000">
  <defs>
    <style>
      .cls-1 {
        fill: #fff;
      }

      .cls-1, .cls-2 {
        stroke: #000;
        stroke-miterlimit: 10;
        stroke-width: 6px;
      }

      .cls-2 {
        fill: none;
      }
    </style>
  </defs>
  <path class="cls-1" d="M634.31,619.75c0,27.03-21.68,48.95-48.61,49.39v.03c-9.57.75-25.31-1.54-60.47-1.54-16.22,0-38.49,9.88-55.09,17.6-8.71,4.05-15.85,7.51-19.76,8.64-.41.1-.79.21-1.13.27-5.04,1.2-10.36,1.85-15.78,1.85-37.46,0-67.78-30.32-67.78-67.75s30.32-67.78,67.78-67.78c7.34,0,14.37,1.17,20.99,3.33,12.66,3.7,37.63,17.12,66.48,17.39,23.19.21,35.23-3.7,44.46-6.89,2.78-.99,5.28-1.89,7.79-2.61,3.74-.93,7.65-1.41,11.66-1.41,27.3,0,49.46,22.16,49.46,49.46Z"/>
  <path class="cls-2" d="M470.14,685.23c-6,3.88-12.66,6.83-19.76,8.64,3.91-1.13,11.05-4.6,19.76-8.64Z"/>
  <path class="cls-2" d="M573.18,571.69c-2.5.72-5.01,1.61-7.79,2.61,2.5-1.1,5.08-1.96,7.79-2.61Z"/>
  <path class="cls-2" d="M584.85,570.28c-4.01,0-7.92.48-11.66,1.41,3.7-1.03,7.34-1.65,11.66-1.41Z"/>
  <path class="cls-2" d="M365.77,624.97c11.39-6.4,35.35-16.01,55.85-14.69,20.62,1.32,25.07,10.14,55.35,17.96,29.67,7.66,53.2,6.38,60.52,5.84,22.91-1.71,40.21-7.92,50.69-11.7,15.87-5.72,33.34-13.16,41.87-22.67"/>
  <path class="cls-2" d="M429.96,560.56c-3.29,9.67-7.33,34.88-9.03,56.54-2.72,34.71,4.46,67.64,10.55,78.89"/>
  <path class="cls-2" d="M475.7,571.69c-2.79,15.83-5.24,33.99-5.56,56.55-.28,19.99,2.47,44.47,5.56,56.99"/>
  <path class="cls-2" d="M531.62,580.97c1.17,10.55,2.02,27.17,2.32,39.37.38,15.24-1.3,34.53-2.32,47.32"/>
  <path class="cls-2" d="M584.85,570.28c3.61,10.69,3.78,31.67,3.35,52.09-.3,14.3-2.11,37.43-4.88,46.92"/>
</svg>
