<?xml version="1.0" encoding="UTF-8"?>
<svg id="Layer_3" data-name="Layer 3" xmlns="http://www.w3.org/2000/svg" viewBox="0 0 1000 1500">
  <defs>
    <style>
      .cls-1, .cls-2 {
        stroke-linejoin: round;
      }

      .cls-1, .cls-2, .cls-3 {
        stroke: #000;
        stroke-linecap: round;
        stroke-width: 6px;
      }

      .cls-1, .cls-3 {
        fill: none;
      }

      .cls-2 {
        fill: #fff;
      }

      .cls-3 {
        stroke-miterlimit: 10;
      }
    </style>
  </defs>
  <g>
    <path class="cls-3" d="M444.98,1043.92c2.78-9.58,11.47-16.26,21.32-16.47,10.19-.22,19.4,6.56,22.29,16.47"/>
    <path class="cls-3" d="M511.41,1043.92c2.78-9.58,11.47-16.26,21.32-16.47,10.19-.22,19.4,6.56,22.29,16.47"/>
  </g>
  <g>
    <path class="cls-2" d="M319.68,1178.06c8.01,9.06,10.98,20.42,6.66,30.01-3.12,6.95-9.54,11.65-17.45,13.71-4.17,13.09-17.02,24.5-34.04,28.62-11.79,2.88-23.35,1.68-32.6-2.49-4.7,2.83-10.21,4.46-16.11,4.46-17.45,0-31.64-14.14-31.64-31.6-15.63,0-28.34-14.86-28.34-33.18s12.71-33.18,28.34-33.18c.43,0,.86,0,1.25.1,4.89-22.39,23.83-39.03,46.41-39.03,18.12,0,33.95,10.79,41.95,26.66l132.76-59.02-97.19,94.93Z"/>
    <path class="cls-2" d="M680.32,1178.06c-8.01,9.06-10.98,20.42-6.66,30.01,3.12,6.95,9.54,11.65,17.45,13.71,4.17,13.09,17.02,24.5,34.04,28.62,11.79,2.88,23.35,1.68,32.6-2.49,4.7,2.83,10.21,4.46,16.11,4.46,17.45,0,31.64-14.14,31.64-31.6,15.63,0,28.34-14.86,28.34-33.18,0-18.32-12.71-33.18-28.34-33.18-.43,0-.86,0-1.25.1-4.89-22.39-23.83-39.03-46.41-39.03-18.12,0-33.95,10.79-41.95,26.66l-132.76-59.02,97.19,94.93Z"/>
  </g>
  <g>
    <line class="cls-1" x1="417.61" y1="1175.97" x2="449.07" y2="1208.92"/>
    <line class="cls-1" x1="582.39" y1="1126.68" x2="582.39" y2="1161.88"/>
    <path class="cls-1" d="M437.09,1188.85c16.05-10.97,40.72-25.13,73.34-34.45,28.64-8.19,53.8-9.9,71.96-9.74"/>
  </g>
</svg>
