<?xml version="1.0" encoding="UTF-8"?>
<svg id="Layer_3" data-name="Layer 3" xmlns="http://www.w3.org/2000/svg" viewBox="0 0 1000 1000">
  <defs>
    <style>
      .cls-1 {
        stroke: #000;
        stroke-linecap: round;
        stroke-linejoin: round;
      }

      .cls-1, .cls-2 {
        stroke-width: 6px;
      }

      .cls-2 {
        fill: #ff7bac;
        stroke: #ff4774;
        stroke-miterlimit: 10;
      }
    </style>
  </defs>
  <path class="cls-1" d="M505.08,614.93c68.21-8.69,122.26,10.42,132.77-7.67,7.95-13.7-19.48-48.6-49.77-67.86-51.17-32.54-116.36-24.19-160.61,0-30.36,16.6-74.24,53.44-65.6,81,5.79,18.47,33.78,28.39,55.42,28.71,36.74.54,45.69-28.81,87.79-34.17Z"/>
  <path class="cls-2" d="M450.24,571.05c-27.88,0-50.49,22.61-50.49,50.49,0,4.84.72,9.51,2,13.95,4.14.67,8.24,1.05,12.14,1.11,35.39.52,45.08-26.62,83.35-33.42-7.35-18.79-25.6-32.12-46.99-32.12Z"/>
</svg>
