<?xml version="1.0" encoding="UTF-8"?>
<svg id="Layer_3" data-name="Layer 3" xmlns="http://www.w3.org/2000/svg" viewBox="0 0 1000 1000">
  <defs>
    <style>
      .cls-1, .cls-2 {
        stroke: #000;
        stroke-linecap: round;
        stroke-linejoin: round;
        stroke-width: 6px;
      }

      .cls-2 {
        fill: #fff;
      }
    </style>
  </defs>
  <path class="cls-1" d="M645.02,557.61c-28.78,12.24-79.61,29.56-145.02,29.56s-116.24-17.32-145.02-29.56c18.76,13.25,40.17,30.47,61.93,52.52,15.56,15.77,28.61,31.29,39.47,45.66,4.37,5.79,11.16,9.22,18.42,9.22h50.42c7.25,0,14.05-3.43,18.42-9.22,10.86-14.37,23.9-29.88,39.47-45.66,21.76-22.05,43.17-39.27,61.93-52.52Z"/>
  <path class="cls-2" d="M354.98,557.61c28.78,12.24,79.61,29.56,145.02,29.56s116.24-17.32,145.02-29.56c0,0-71.89,47.16-90.11,54.2-8.34,3.22-26.52,4.23-35.44,4.89-9.71.72-29.21.31-38.94,0-8.94-.29-27.06-1.75-35.44-4.89-18.29-6.85-90.11-54.2-90.11-54.2Z"/>
</svg>