<?xml version="1.0" encoding="UTF-8"?>
<svg id="Layer_3" data-name="Layer 3" xmlns="http://www.w3.org/2000/svg" viewBox="0 0 1000 1000">
  <defs>
    <style>
      .cls-1 {
        fill: none;
      }

      .cls-1, .cls-2 {
        stroke: #000;
        stroke-linecap: round;
        stroke-linejoin: round;
        stroke-width: 6px;
      }

      .cls-2 {
        fill: #fff;
      }
    </style>
  </defs>
  <path class="cls-1" d="M353.02,549.96c3.39,5.6,56.43,83.24,146.84,83.4,62.73.11,114.34-29.8,146.84-83.4"/>
  <g>
    <path class="cls-2" d="M370.22,571.56l-14.24,16.25c-7.09,8.09-6.27,20.39,1.81,27.47l8.99,7.88c8.09,7.09,20.39,6.27,27.47-1.81l14.33-16.36c-8.88-6.22-31.48-26.71-38.37-33.43Z"/>
    <path class="cls-2" d="M416.13,611.15l-5.98,17.83c-3.42,10.19,2.08,21.23,12.27,24.65l11.33,3.8c10.19,3.42,21.23-2.08,24.65-12.27l5.38-16.04c-10.26-2.47-19.88-5.86-28.81-9.89-6.92-2.54-13.26-5.28-18.84-8.08Z"/>
    <path class="cls-2" d="M474.43,631.31v16.33c-.02,10.75,8.69,19.48,19.44,19.48h11.95c10.75.02,19.48-8.69,19.48-19.45v-15.9c-8.21,1.11-16.64,1.73-25.3,1.71-8.89-.02-17.41-.8-25.57-2.18Z"/>
    <path class="cls-2" d="M541.44,644.89c3.46,10.18,14.52,15.63,24.7,12.17l11.32-3.85c10.18-3.46,15.63-14.52,12.17-24.7l-5.52-16.24c-14.67,8.29-30.66,14.2-47.75,17.64l5.09,14.97Z"/>
    <path class="cls-2" d="M644.02,587.81l-13.26-15.13c-5.69,6.92-11.76,13.31-18.23,19.1,0,0-4.46,4.53-9.16,7.67-3.36,2.6-6.81,5.06-10.35,7.38l12.72,14.52c7.09,8.09,19.39,8.9,27.47,1.81l8.99-7.88c8.09-7.09,8.9-19.39,1.81-27.47Z"/>
  </g>
</svg>
