<?xml version="1.0" encoding="UTF-8"?>
<svg id="Layer_3" data-name="Layer 3" xmlns="http://www.w3.org/2000/svg" viewBox="0 0 1000 1500">
  <defs>
    <style>
      .cls-1 {
        stroke-width: 6px;
      }

      .cls-1, .cls-2 {
        stroke: #000;
        stroke-linecap: round;
        stroke-linejoin: round;
      }

      .cls-2 {
        fill: #fff;
        stroke-width: 2px;
      }
    </style>
  </defs>
  <path class="cls-1" d="M549.25,1098.81c20.76-2.66,76.63-33.72,76.63-33.72,6.27-2.76,13.59.02,16.44,6.25l3.88,8.46c2.05,4.47,1.29,9.73-1.93,13.44,0,0-33.14,43.93-47.65,54.86-15.37,11.58-52.51,32.47-71.66,34.35-12.89,1.27-39.06.5-51.79-1.86-18.92-3.51-54.4-20.91-69.77-32.49-14.51-10.93-47.65-54.86-47.65-54.86-3.22-3.71-3.98-8.97-1.93-13.44l3.88-8.46c2.85-6.22,10.17-9.01,16.44-6.25,0,0,56.15,29.41,76.63,33.72,18.15,3.82,74.07,3.13,98.49,0Z"/>
  <path class="cls-2" d="M646.19,1079.8s-26.84,20.14-36.41,26.7c-12.44,8.52-40.37,22.8-55.29,24.97-11.5,1.67-46.48,2.33-46.48,2.33h-18.3s-34.98-.66-46.48-2.33c-14.92-2.17-42.85-16.45-55.29-24.97-9.57-6.56-34.14-26.7-34.14-26.7h0l3.88-8.46c2.85-6.22,10.17-9.01,16.44-6.25,0,0,56.15,29.41,76.63,33.72,18.15,3.82,74.07,3.13,98.49,0,20.76-2.66,76.63-33.72,76.63-33.72,6.27-2.76,13.59.02,16.44,6.25l3.88,8.46h0Z"/>
</svg>
