<?xml version="1.0" encoding="UTF-8"?>
<svg id="Layer_3" data-name="Layer 3" xmlns="http://www.w3.org/2000/svg" viewBox="0 0 1000 1500">
  <defs>
    <style>
      .cls-1 {
        fill: #fff;
      }

      .cls-1, .cls-2, .cls-3 {
        stroke-miterlimit: 10;
        stroke-width: 6px;
      }

      .cls-1, .cls-3 {
        stroke: #000;
      }

      .cls-2 {
        fill: #ff7bac;
        stroke: #ff4774;
      }
    </style>
  </defs>
  <g>
    <path class="cls-3" d="M556.27,1151.06h-112.58c-29.61,0-50.85-28.54-42.34-56.91h0c7.56-25.2,37.05-43.08,71.05-43.08h55.19c32.86,0,61.66,16.72,70.31,40.81h0c10.34,28.82-11.01,59.18-41.63,59.18Z"/>
    <path class="cls-1" d="M570.52,1061.71c-16.37,20.96-41.86,34.44-70.52,34.44s-54.17-13.51-70.52-34.47c12.15-6.73,27.02-10.62,42.92-10.62h55.2c15.87,0,30.8,3.89,42.92,10.65Z"/>
  </g>
  <path class="cls-2" d="M559.88,1144.19c-1.2.11-2.39.17-3.61.17h-112.57c-1.22,0-2.42-.06-3.59-.17,13.4-18.57,35.22-30.63,59.87-30.63s46.5,12.06,59.9,30.63Z"/>
</svg>
