<?xml version="1.0" encoding="UTF-8"?>
<svg id="Layer_2" data-name="Layer 2" xmlns="http://www.w3.org/2000/svg" viewBox="0 0 1000 1500">
  <defs>
    <style>
      .cls-1, .cls-2, .cls-3 {
        stroke: #000;
        stroke-linecap: round;
        stroke-miterlimit: 10;
      }

      .cls-1, .cls-4 {
        fill: #fff;
      }

      .cls-1, .cls-3 {
        stroke-width: 6px;
      }

      .cls-2 {
        stroke-width: 2px;
      }

      .cls-3 {
        fill: none;
      }
    </style>
  </defs>
  <path class="cls-3" d="M280.62,816.5c22.04,17.37,58.83,41.84,109.74,56.85,37.09,10.93,69.88,13.37,93.87,13.23"/>
  <path class="cls-1" d="M390.36,873.35c-24.71-7.28-46.06-16.8-64.04-26.64-8.23,16.87-13.02,36.87-13.02,58.34,0,60.19,37.47,108.98,83.68,108.98s83.68-48.79,83.68-108.98c0-6.3-.43-12.47-1.22-18.48-23.49-.2-54.4-3-89.08-13.22Z"/>
  <path class="cls-2" d="M390.36,873.35c-9.71-2.86-18.9-6.07-27.58-9.51-5.38,7.16-8.61,16.03-8.61,25.67,0,23.64,19.17,42.81,42.81,42.81s42.81-19.17,42.81-42.81c0-1.97-.18-3.89-.44-5.78-15.08-2-31.55-5.24-49-10.39Z"/>
  <path class="cls-4" d="M390.36,876.6c-2.83-.84-5.61-1.71-8.35-2.6-4.2,3.57-6.88,8.88-6.88,14.83,0,10.74,8.71,19.45,19.45,19.45s19.45-8.71,19.45-19.45c0-2.27-.41-4.45-1.13-6.47-7.31-1.59-14.83-3.48-22.55-5.76Z"/>
  <path d="M442.76,774.19c-7.73-10.08-18.74-18.06-31.03-21.54-21.95-6.45-45.09,1.9-59.12,19.73-2.35,3.03-6.94-.39-4.61-3.52,7.75-9.61,17.68-17.41,29.06-22.26,26.89-11.91,57.48-2.45,75.31,20.41,4.66,6.55-4.64,13.52-9.62,7.18h0Z"/>
  <path class="cls-3" d="M719.38,816.5c-22.04,17.37-58.83,41.84-109.74,56.85-37.09,10.93-69.88,13.37-93.87,13.23"/>
  <path class="cls-1" d="M609.64,873.35c24.71-7.28,46.06-16.8,64.04-26.64,8.23,16.87,13.02,36.87,13.02,58.34,0,60.19-37.47,108.98-83.68,108.98-46.22,0-83.68-48.79-83.68-108.98,0-6.3.43-12.47,1.22-18.48,23.49-.2,54.4-3,89.08-13.22Z"/>
  <path class="cls-2" d="M609.64,873.35c9.71-2.86,18.9-6.07,27.58-9.51,5.38,7.16,8.61,16.03,8.61,25.67,0,23.64-19.17,42.81-42.81,42.81-23.64,0-42.81-19.17-42.81-42.81,0-1.97.18-3.89.44-5.78,15.08-2,31.55-5.24,49-10.39Z"/>
  <path class="cls-4" d="M609.64,876.6c2.83-.84,5.61-1.71,8.35-2.6,4.2,3.57,6.88,8.88,6.88,14.83,0,10.74-8.71,19.45-19.45,19.45s-19.45-8.71-19.45-19.45c0-2.27.41-4.45,1.13-6.47,7.31-1.59,14.83-3.48,22.55-5.76Z"/>
  <path d="M547.62,767.02c17.84-22.87,48.43-32.32,75.31-20.41,7.96,3.33,15.21,8.29,21.5,14.12,2.73,2.55,5.19,5.14,7.56,8.14.99,1.26.77,3.08-.49,4.07-1.29,1.02-3.19.75-4.15-.59-1.27-1.71-2.84-3.39-4.4-4.98-7.93-7.81-18.01-13.72-28.95-15.86-12.75-2.41-26.29-.36-37.56,6.08-7.42,4.1-14.12,9.92-19.24,16.65-4.96,6.26-14.25-.67-9.59-7.22h0Z"/>
</svg>
