<?xml version="1.0" encoding="UTF-8"?>
<svg id="Layer_2" data-name="Layer 2" xmlns="http://www.w3.org/2000/svg" viewBox="0 0 1000 1000">
  <defs>
    <style>
      .cls-1, .cls-2 {
        fill: #fff;
      }

      .cls-1, .cls-2, .cls-3 {
        stroke: #000;
        stroke-miterlimit: 10;
      }

      .cls-1, .cls-3 {
        stroke-linecap: round;
        stroke-width: 6px;
      }

      .cls-2 {
        stroke-width: .25px;
      }

      .cls-3 {
        fill: none;
      }
    </style>
  </defs>
  <path class="cls-1" d="M452.62,327.65c-12.65,9.96-29.42,19.9-50.75,25.85-22.95,6.41-43.84,6.15-60.68,3.61-10.85,18.71-17.28,41.99-17.28,67.24,0,61.7,38.41,111.72,85.79,111.72s85.79-50.02,85.79-111.72c0-41.33-17.24-77.38-42.86-96.71Z"/>
  <path class="cls-3" d="M480.46,299c-7.19,9.84-32.29,41.58-78.59,54.5-48.52,13.54-88.09-2.58-98.87-7.39"/>
  <g>
    <path class="cls-1" d="M614.93,406.79c-23.34-.13-41.73-5.31-53.66-10.55-1.9,7.35-2.94,15.21-2.94,23.38,0,40.53,25.23,73.39,56.35,73.39s56.35-32.86,56.35-73.39c0-8.39-1.1-16.44-3.09-23.95-13.68,6.1-31.59,11.23-53.02,11.11Z"/>
    <ellipse cx="604.93" cy="435.84" rx="21.21" ry="24.11"/>
    <circle class="cls-2" cx="601.71" cy="426.3" r="9.54"/>
    <path class="cls-3" d="M549.15,389.54c8.39,6.21,31.86,17.06,65.78,17.25,46.33.25,76.49-23.97,82.07-29.67"/>
  </g>
  <ellipse cx="409.22" cy="411.54" rx="36.03" ry="40.96"/>
  <circle class="cls-2" cx="403.76" cy="395.33" r="16.21"/>
</svg>
