<?xml version="1.0" encoding="UTF-8"?>
<svg id="Layer_2" data-name="Layer 2" xmlns="http://www.w3.org/2000/svg" viewBox="0 0 1000 1500">
  <defs>
    <style>
      .cls-1, .cls-2 {
        fill: #fff;
      }

      .cls-1, .cls-3 {
        stroke: #000;
        stroke-linecap: round;
        stroke-miterlimit: 10;
        stroke-width: 6px;
      }

      .cls-3 {
        fill: none;
      }
    </style>
  </defs>
  <path class="cls-1" d="M395.78,902.56c-31.34,0-56.06-.2-77.19-2.49-1.53,8.2-2.36,16.76-2.36,25.57,0,59.65,37.13,108,82.93,108s82.93-48.35,82.93-108c0-10.49-1.17-20.61-3.31-30.2-24.04,6.15-54.41,7.12-83,7.12Z"/>
  <path d="M365.32,902.4c-5.3,6.95-8.52,15.99-8.52,25.9,0,21.87,15.59,39.6,34.83,39.6s34.83-17.73,34.83-39.6c0-9.96-3.26-19.04-8.61-26-7.38.2-14.78.26-22.07.26-10.93,0-21.01-.03-30.46-.16Z"/>
  <circle class="cls-2" cx="383.48" cy="920.25" r="15.67"/>
  <path class="cls-3" d="M287.72,894.41c27.71,7.72,60.2,8.15,108.06,8.15,33.31,0,69.06-1.29,94.36-10.6"/>
  <path class="cls-3" d="M305.78,828.93c17.72,6.04,45.06,9.08,79,8.92,32.82-.15,59.38-2.97,76.82-8.92"/>
  <path class="cls-1" d="M604.22,902.56c31.34,0,56.06-.2,77.19-2.49,1.53,8.2,2.36,16.76,2.36,25.57,0,59.65-37.13,108-82.93,108s-82.93-48.35-82.93-108c0-10.49,1.17-20.61,3.31-30.2,24.04,6.15,54.41,7.12,83,7.12Z"/>
  <path d="M634.68,902.4c5.3,6.95,8.52,15.99,8.52,25.9,0,21.87-15.59,39.6-34.83,39.6s-34.83-17.73-34.83-39.6c0-9.96,3.26-19.04,8.61-26,7.38.2,14.78.26,22.07.26,10.93,0,21.01-.03,30.46-.16Z"/>
  <circle class="cls-2" cx="616.52" cy="920.25" r="15.67"/>
  <path class="cls-3" d="M712.28,894.41c-27.71,7.72-60.2,8.15-108.06,8.15-33.31,0-69.06-1.29-94.36-10.6"/>
  <path class="cls-3" d="M694.22,828.93c-17.72,6.04-45.06,9.08-79,8.92-32.82-.15-59.38-2.97-76.82-8.92"/>
</svg>
