<?xml version="1.0" encoding="UTF-8"?>
<svg id="Layer_2" data-name="Layer 2" xmlns="http://www.w3.org/2000/svg" viewBox="0 0 1000 1000">
  <defs>
    <style>
      .cls-1 {
        stroke-width: 6px;
      }

      .cls-1, .cls-2 {
        stroke: #000;
        stroke-linecap: round;
        stroke-miterlimit: 10;
      }

      .cls-1, .cls-3 {
        fill: #fff;
      }

      .cls-2 {
        stroke-width: 2px;
      }
    </style>
  </defs>
  <path d="M390.4,294.66c-8.4,2.14-17.43,4.01-25.85,6.03-8.32,2.08-16.49,4.77-24.44,8.03-7.95,3.29-15.73,7.13-23.17,11.61-7.67,4.68-15.47,9.15-24.02,12.24-.98.37-1.9-.89-1.18-1.7,2.97-3.54,6.23-6.68,9.56-9.7,13.66-12.23,29.45-22.15,46.5-28.96,12.6-5.13,26.15-8.03,39.35-11.17,9.01-1.72,12.1,11.06,3.25,13.62h0Z"/>
  <path class="cls-1" d="M469.34,486c8.55-17.36,13.54-38.11,13.54-60.42,0-60.96-37.12-110.38-82.91-110.38s-82.91,49.42-82.91,110.38c0,21.68,4.71,41.89,12.83,58.95,15.96-6.21,38.83-12.62,66.72-12.79,31.25-.2,56.4,7.51,72.74,14.27Z"/>
  <path class="cls-2" d="M420.15,473.09c6.14-6.48,9.94-15.3,9.94-25.04,0-19.89-15.77-36.02-35.23-36.02s-35.23,16.12-35.23,36.02c0,10.11,4.08,19.23,10.64,25.77,8.18-1.22,16.93-2.03,26.32-2.09,8.31-.05,16.17.47,23.56,1.36Z"/>
  <ellipse class="cls-3" cx="384.88" cy="439.53" rx="13.14" ry="13.43"/>
  <path d="M612.85,278.19c13.2,3.14,26.74,6.04,39.35,11.17,21.17,8.64,40.81,21.54,56.07,38.66.7.79-.19,2.09-1.18,1.7-8.55-3.09-16.35-7.56-24.02-12.24-11.15-6.71-22.97-12-35.26-16.09-12.41-4.12-25.54-6.32-38.2-9.58-8.82-2.52-5.81-15.33,3.25-13.62h0Z"/>
  <path class="cls-1" d="M530.66,483.15c-8.55-17.36-13.54-38.11-13.54-60.42,0-60.96,37.12-110.38,82.91-110.38,45.79,0,82.91,49.42,82.91,110.38,0,21.68-4.71,41.89-12.83,58.95-15.96-6.21-38.83-12.62-66.72-12.79-31.25-.2-56.4,7.51-72.74,14.27Z"/>
  <g>
    <path class="cls-2" d="M629.67,470.88c6.3-6.32,10.32-15.04,10.56-24.78.49-19.88-14.88-36.41-34.33-36.91s-35.62,15.21-36.11,35.09c-.25,10.1,3.61,19.33,10,26.04,8.2-1.01,16.98-1.59,26.36-1.41,8.31.16,16.15.88,23.52,1.97Z"/>
    <ellipse class="cls-3" cx="595.24" cy="436.42" rx="13.14" ry="13.43"/>
  </g>
</svg>