<?xml version="1.0" encoding="UTF-8"?>
<svg id="Layer_2" data-name="Layer 2" xmlns="http://www.w3.org/2000/svg" viewBox="0 0 1000 1000">
  <defs>
    <style>
      .cls-1 {
        fill: none;
        stroke-linecap: round;
        stroke-linejoin: round;
      }

      .cls-1, .cls-2 {
        stroke: #000;
        stroke-width: 6px;
      }

      .cls-2 {
        stroke-miterlimit: 10;
      }

      .cls-2, .cls-3 {
        fill: #fff;
      }
    </style>
  </defs>
  <path d="M622.33,273.59c11.42,6.98,23.23,13.86,33.51,22.51,17.26,14.56,31.86,32.57,40.99,53.3.4.96-.8,1.93-1.64,1.26-3.64-2.76-6.89-5.82-10.03-8.96-3.09-3.09-6.07-6.48-8.9-9.75-11.28-12.81-24.4-23.8-38.82-32.84-7.31-4.48-15.18-8.98-22.42-13.57-7.6-5.13-.76-16.37,7.31-11.94h0Z"/>
  <path d="M406.74,338.59c-8.56.13-17.63-.14-26.2-.13-8.47.08-16.93.77-25.31,2.03-8.4,1.3-16.75,3.16-24.94,5.71-8.45,2.69-16.99,5.14-25.92,6.07-1.03.12-1.63-1.31-.74-1.93,3.67-2.72,7.53-4.97,11.43-7.09,15.94-8.55,33.41-14.36,51.36-16.96,13.28-2.01,26.94-1.71,40.33-1.7,9.16.41,9.2,13.57,0,14h0Z"/>
  <path class="cls-1" d="M437.45,416.75s12.61,11.03,15.76,27.59c0,0-15.76-7.88-32.31,4.73"/>
  <path class="cls-1" d="M322.65,442.96c11.51-6.38,35.9-17.83,68.58-17.83,25.97,0,46.17,7.23,57.61,12.34"/>
  <ellipse class="cls-2" cx="601.69" cy="425.13" rx="82.17" ry="107.01"/>
  <ellipse cx="601.69" cy="425.13" rx="34.51" ry="39.23"/>
  <circle class="cls-3" cx="596.46" cy="409.6" r="15.53"/>
</svg>