<?xml version="1.0" encoding="UTF-8"?>
<svg id="Layer_2" data-name="Layer 2" xmlns="http://www.w3.org/2000/svg" viewBox="0 0 1000 1500">
  <defs>
    <style>
      .cls-1, .cls-2 {
        fill: #fff;
      }

      .cls-1, .cls-3 {
        stroke: #000;
        stroke-miterlimit: 10;
        stroke-width: 6px;
      }

      .cls-3 {
        fill: none;
        stroke-linecap: round;
      }
    </style>
  </defs>
  <path class="cls-3" d="M316.77,814.83c5.24,5.3,36.45,35.81,85.49,34.77,45.91-.98,74.73-28.91,80.52-34.77"/>
  <path class="cls-1" d="M450.06,837.97c-12.73,6.18-28.77,11.23-47.8,11.64-20.17.43-37.26-4.5-50.83-10.8-22.91,18.39-37.94,49.08-37.94,83.86,0,56.27,39.3,101.89,87.77,101.89s87.77-45.62,87.77-101.89c0-35.31-15.48-66.42-38.98-84.7Z"/>
  <ellipse cx="406.46" cy="910.03" rx="34.3" ry="38.75"/>
  <circle class="cls-2" cx="400.38" cy="898.73" r="16.26"/>
  <path class="cls-3" d="M462.58,995.56s-25.84,46.96-57.17,46.96"/>
  <path class="cls-3" d="M694.23,814.83c-5.24,5.3-36.45,35.81-85.49,34.77-45.91-.98-74.73-28.91-80.52-34.77"/>
  <path class="cls-1" d="M560.94,837.97c12.73,6.18,28.77,11.23,47.8,11.64,20.17.43,37.26-4.5,50.83-10.8,22.91,18.39,37.94,49.08,37.94,83.86,0,56.27-39.3,101.89-87.77,101.89-48.47,0-87.77-45.62-87.77-101.89,0-35.31,15.48-66.42,38.98-84.7Z"/>
  <ellipse cx="604.54" cy="910.03" rx="34.3" ry="38.75"/>
  <circle class="cls-2" cx="596.62" cy="898.73" r="16.26"/>
  <path class="cls-3" d="M548.42,995.56s25.84,46.96,57.17,46.96"/>
</svg>
