<?xml version="1.0" encoding="UTF-8"?>
<svg id="Layer_2" data-name="Layer 2" xmlns="http://www.w3.org/2000/svg" viewBox="0 0 1000 1000">
  <defs>
    <style>
      .cls-1 {
        stroke-width: 2px;
      }

      .cls-1, .cls-2, .cls-3 {
        stroke: #000;
        stroke-miterlimit: 10;
      }

      .cls-2, .cls-4 {
        fill: #fff;
      }

      .cls-2, .cls-3 {
        stroke-width: 6px;
      }

      .cls-3 {
        fill: none;
        stroke-linecap: round;
      }
    </style>
  </defs>
  <g>
    <path class="cls-2" d="M480.14,466c3.29-11.95,5.1-24.83,5.1-38.26,0-62.56-38.94-113.27-86.98-113.27s-86.98,50.71-86.98,113.27c0,13.43,1.81,26.31,5.1,38.26,21.21-6.12,49.45-11.71,82.89-11.6,32.52.11,60.04,5.58,80.87,11.6Z"/>
    <path class="cls-1" d="M440.48,423.79c0-23.31-18.9-42.21-42.21-42.21s-42.21,18.9-42.21,42.21c0,12.78,5.7,24.21,14.68,31.95,9.04-.85,18.52-1.37,28.54-1.34,9.28.03,18.1.54,26.53,1.33,8.97-7.74,14.67-19.17,14.67-31.94Z"/>
    <circle class="cls-4" cx="391.51" cy="413.52" r="16.7"/>
    <path class="cls-3" d="M334.18,316.89c2.49-3.33,24.9-32.3,64.26-32.67,38.42-.36,61.15,26.84,63.9,30.25"/>
  </g>
  <g>
    <path class="cls-2" d="M683.6,465.94c3.29-11.95,5.1-24.83,5.1-38.26,0-62.56-38.94-113.27-86.98-113.27s-86.98,50.71-86.98,113.27c0,13.43,1.81,26.31,5.1,38.26,21.21-6.12,49.45-11.71,82.89-11.6,32.52.11,60.04,5.58,80.87,11.6Z"/>
    <path class="cls-1" d="M643.93,423.73c0-23.31-18.9-42.21-42.21-42.21s-42.21,18.9-42.21,42.21c0,12.78,5.7,24.21,14.68,31.95,9.04-.85,18.52-1.37,28.54-1.34,9.28.03,18.1.54,26.53,1.33,8.97-7.74,14.67-19.17,14.67-31.94Z"/>
    <circle class="cls-4" cx="594.97" cy="413.46" r="16.7"/>
    <path class="cls-3" d="M537.64,316.83c2.49-3.33,24.9-32.3,64.26-32.67,38.42-.36,61.15,26.84,63.9,30.25"/>
  </g>
</svg>
