<?xml version="1.0" encoding="UTF-8"?>
<svg id="Layer_2" data-name="Layer 2" xmlns="http://www.w3.org/2000/svg" viewBox="0 0 1000 1000">
  <defs>
    <style>
      .cls-1, .cls-2, .cls-3 {
        stroke: #000;
        stroke-linecap: round;
        stroke-miterlimit: 10;
      }

      .cls-1, .cls-4 {
        fill: #fff;
      }

      .cls-1, .cls-3 {
        stroke-width: 6px;
      }

      .cls-2 {
        stroke-width: 2px;
      }

      .cls-3 {
        fill: none;
      }
    </style>
  </defs>
  <path class="cls-3" d="M316.02,503.19c15.99-7.1,45.19-17.59,83.04-17.52,37.44.07,66.34,10.45,82.28,17.52"/>
  <path class="cls-1" d="M399.06,485.67c30.16.06,54.75,6.8,71.52,13.12,11.72-19.4,18.74-43.91,18.74-70.59,0-62.81-38.79-113.74-86.65-113.74s-86.65,50.92-86.65,113.74c0,25.61,6.45,49.24,17.33,68.25,16.5-5.58,38.92-10.82,65.71-10.77Z"/>
  <path class="cls-2" d="M319.55,396.03c6.95,8.79,17.08,14.36,28.39,14.36,20.95,0,37.93-19,37.93-42.44,0-18.19-10.24-33.65-24.61-39.69-19.97,14.29-35.17,38.6-41.71,67.77Z"/>
  <path class="cls-4" d="M346.61,346.06c-.2,0-.4.02-.61.03-6.93,8.73-12.76,18.95-17.19,30.28,3.49,6.24,10.14,10.46,17.8,10.46,11.26,0,20.39-9.13,20.39-20.39s-9.13-20.39-20.39-20.39Z"/>
  <path class="cls-3" d="M284,328.26c12.03-1.67,34.63-6.44,57.94-22.29,25.12-17.08,38.19-38.27,43.93-49.14"/>
  <path class="cls-3" d="M513.35,503.19c15.99-7.1,45.19-17.59,83.04-17.52,37.44.07,66.34,10.45,82.28,17.52"/>
  <path class="cls-1" d="M596.39,485.67c30.16.06,54.75,6.8,71.52,13.12,11.72-19.4,18.74-43.91,18.74-70.59,0-62.81-38.79-113.74-86.65-113.74s-86.65,50.92-86.65,113.74c0,25.61,6.45,49.24,17.33,68.25,16.5-5.58,38.92-10.82,65.71-10.77Z"/>
  <path class="cls-2" d="M516.89,396.03c6.95,8.79,17.08,14.36,28.39,14.36,20.95,0,37.93-19,37.93-42.44,0-18.19-10.24-33.65-24.61-39.69-19.97,14.29-35.17,38.6-41.71,67.77Z"/>
  <path class="cls-4" d="M543.95,346.06c-.2,0-.4.02-.61.03-6.93,8.73-12.76,18.95-17.19,30.28,3.49,6.24,10.14,10.46,17.8,10.46,11.26,0,20.39-9.13,20.39-20.39s-9.13-20.39-20.39-20.39Z"/>
  <path class="cls-3" d="M716,328.26c-12.03-1.67-34.63-6.44-57.94-22.29-25.12-17.08-38.19-38.27-43.93-49.14"/>
</svg>
