<?xml version="1.0" encoding="UTF-8"?>
<svg id="Layer_2" data-name="Layer 2" xmlns="http://www.w3.org/2000/svg" viewBox="0 0 1000 1500">
  <defs>
    <style>
      .cls-1 {
        stroke: #000;
        stroke-linecap: round;
        stroke-linejoin: round;
        stroke-width: 6px;
      }

      .cls-1, .cls-2 {
        fill: #fff;
      }
    </style>
  </defs>
  <path class="cls-1" d="M463.31,849.48c43.54,50.88,22.78,175.64-66.07,175.64s-81.34-116.65-81.34-116.65h-29.4,64.81c17.27-.56,32.32-2.8,45.35-6.03,41.43-10.26,72.01-45.42,77.61-87.74h0"/>
  <path d="M398.72,961.82c-20.16,0-36.5,16.34-36.5,36.5,0,7.61,2.34,14.68,6.32,20.52,7.82,2.72,16.7,4.32,26.91,4.32,13.41,0,25.25-2.88,35.57-7.89,2.67-5.07,4.19-10.83,4.19-16.96,0-20.16-16.34-36.5-36.5-36.5Z"/>
  <circle class="cls-2" cx="386.86" cy="999.62" r="17.26"/>
  <path class="cls-1" d="M536.69,849.48c-43.54,50.88-22.78,175.64,66.07,175.64,88.85,0,81.34-116.65,81.34-116.65h29.4s-64.81,0-64.81,0c-17.27-.56-32.32-2.8-45.35-6.03-41.43-10.26-72.01-45.42-77.61-87.74h0"/>
  <path d="M601.28,961.82c20.16,0,36.5,16.34,36.5,36.5,0,7.61-2.34,14.68-6.32,20.52-7.82,2.72-16.7,4.32-26.91,4.32-13.41,0-25.25-2.88-35.57-7.89-2.67-5.07-4.19-10.83-4.19-16.96,0-20.16,16.34-36.5,36.5-36.5Z"/>
  <circle class="cls-2" cx="587.16" cy="999.62" r="17.26"/>
  <path d="M561.03,780.94c13.59,0,27.45-.32,40.93,1.71,22.66,3.44,44.82,11.3,63.74,24.33.86.6.31,2.08-.74,1.93-4.61-.47-9.04-1.41-13.42-2.48-4.31-1.05-8.69-2.41-12.87-3.74-16.56-5.13-33.75-7.7-51.03-7.89-8.71,0-17.9.27-26.6.13-9.16-.41-9.2-13.57,0-14h0Z"/>
  <path d="M438.95,794.94c-8.7.13-17.9-.14-26.6-.13-8.6.08-17.19.79-25.71,2.08-8.53,1.32-17.01,3.22-25.32,5.81-8.58,2.73-17.23,5.24-26.29,6.22-1.03.13-1.64-1.32-.74-1.93,3.74-2.74,7.65-5.02,11.62-7.16,16.19-8.65,33.91-14.54,52.13-17.17,13.47-2.03,27.34-1.72,40.93-1.71,9.17.41,9.2,13.57,0,14h0Z"/>
</svg>
