<?xml version="1.0" encoding="UTF-8"?>
<svg id="Layer_2" data-name="Layer 2" xmlns="http://www.w3.org/2000/svg" viewBox="0 0 1000 1500">
  <defs>
    <style>
      .cls-1, .cls-2, .cls-3 {
        stroke: #000;
        stroke-linecap: round;
        stroke-miterlimit: 10;
      }

      .cls-1, .cls-4 {
        fill: #fff;
      }

      .cls-1, .cls-3 {
        stroke-width: 6px;
      }

      .cls-2 {
        stroke-width: 2px;
      }

      .cls-3 {
        fill: none;
      }
    </style>
  </defs>
  <g>
    <path class="cls-3" d="M464.07,795.24c2.38,2.75,17.4,20.59,11.98,38.58-4.92,16.35-23.65,22.62-35.08,26.46-53.84,18.05-116.52-13.59-139.48-26.46"/>
    <path class="cls-1" d="M460.74,851.86c-6.67,4.02-14.11,6.52-19.77,8.41-34.98,11.73-73.68,2.47-102.81-8.97-14.1,19.54-22.75,45.82-22.75,74.74,0,60.3,37.54,109.18,83.84,109.18s83.84-48.88,83.84-109.18c0-28.65-8.48-54.71-22.34-74.18Z"/>
    <ellipse class="cls-2" cx="374.66" cy="921.65" rx="40.97" ry="47.08"/>
    <ellipse class="cls-4" cx="355.88" cy="905.11" rx="20.15" ry="12.73" transform="translate(-615.93 866.9) rotate(-66.28)"/>
    <circle class="cls-4" cx="366.4" cy="940.59" r="12.77"/>
    <ellipse class="cls-4" cx="388.85" cy="912.3" rx="11.38" ry="16.39" transform="translate(-367.19 270.5) rotate(-26.59)"/>
  </g>
  <g>
    <path class="cls-3" d="M535.93,794.84c-2.38,2.75-17.4,20.59-11.98,38.58,4.92,16.35,23.65,22.62,35.08,26.46,53.84,18.05,116.52-13.59,139.48-26.46"/>
    <path class="cls-1" d="M539.26,851.46c6.67,4.02,14.11,6.52,19.77,8.41,34.98,11.73,73.68,2.47,102.81-8.97,14.1,19.54,22.75,45.82,22.75,74.74,0,60.3-37.54,109.18-83.84,109.18-46.3,0-83.84-48.88-83.84-109.18,0-28.65,8.48-54.71,22.34-74.18Z"/>
    <ellipse class="cls-2" cx="590.1" cy="921.24" rx="40.97" ry="47.08"/>
    <ellipse class="cls-4" cx="571.31" cy="904.7" rx="20.15" ry="12.73" transform="translate(-486.77 1063.9) rotate(-66.28)"/>
    <circle class="cls-4" cx="581.83" cy="940.18" r="12.77"/>
    <ellipse class="cls-4" cx="604.28" cy="911.9" rx="11.38" ry="16.39" transform="translate(-344.23 366.88) rotate(-26.59)"/>
  </g>
</svg>
