<?xml version="1.0" encoding="UTF-8"?>
<svg id="Layer_2" data-name="Layer 2" xmlns="http://www.w3.org/2000/svg" viewBox="0 0 1000 1000">
  <defs>
    <style>
      .cls-1, .cls-2 {
        fill: #fff;
      }

      .cls-1, .cls-2, .cls-3 {
        stroke: #000;
        stroke-miterlimit: 10;
      }

      .cls-1, .cls-3 {
        stroke-width: 6px;
      }

      .cls-2 {
        stroke-width: .25px;
      }

      .cls-3 {
        fill: none;
        stroke-linecap: round;
      }
    </style>
  </defs>
  <ellipse class="cls-1" cx="398.5" cy="426.34" rx="85.61" ry="111.49"/>
  <ellipse cx="398.5" cy="426.34" rx="35.96" ry="40.88"/>
  <circle class="cls-2" cx="393.05" cy="410.16" r="16.18"/>
  <path class="cls-3" d="M468.95,512.06c-3.81,6.88-10.82,17.21-22.83,25.76-25.6,18.23-54.16,14.34-61.12,13.19"/>
  <path d="M294.07,348.43c1.3-38.8,29.16-68.02,69.09-63.5,5.05.63,9.99,1.72,14.78,3.58,1.79.69,2.68,2.7,1.99,4.49-.65,1.67-2.45,2.56-4.14,2.1-2.16-.53-4.38-.98-6.62-1.28-6.64-.98-13.52-1.07-20.12-.02-22.46,3.35-41.98,19.48-49.06,41.17-1.53,4.4-2.71,9.03-3.26,13.64-.2,1.62-2.65,1.52-2.66-.17h0Z"/>
  <ellipse class="cls-1" cx="601.5" cy="426.34" rx="85.61" ry="111.49"/>
  <path d="M637.45,426.34c0,22.58-16.1,40.88-35.96,40.88-19.86,0-35.96-18.3-35.96-40.88s16.1-40.88,35.96-40.88c19.86,0,35.96,18.3,35.96,40.88Z"/>
  <circle class="cls-2" cx="596.05" cy="410.16" r="16.18"/>
  <path class="cls-3" d="M531.05,512.06c3.81,6.88,10.82,17.21,22.83,25.76,25.6,18.23,54.16,14.34,61.12,13.19"/>
  <path d="M703.27,348.55c-2.64-20.52-14.77-39.42-33.51-48.61-13.86-7.35-30.49-8.57-45.64-4.83-1.86.45-3.74-.69-4.2-2.55-.42-1.72.52-3.44,2.12-4.06,4.8-1.85,9.74-2.95,14.78-3.58,26.67-3.28,51.67,9.9,62.5,34.77,2.1,4.55,3.65,9.29,4.76,14.09,1.09,4.82,1.78,9.66,1.83,14.64,0,.74-.58,1.34-1.32,1.35-.71,0-1.29-.54-1.34-1.23h0Z"/>
</svg>
