<?xml version="1.0" encoding="UTF-8"?>
<svg id="Layer_2" data-name="Layer 2" xmlns="http://www.w3.org/2000/svg" viewBox="0 0 1000 1000">
  <defs>
    <style>
      .cls-1 {
        fill: #ff7bac;
        stroke: #ff4774;
        stroke-miterlimit: 10;
        stroke-width: 6px;
      }
    </style>
  </defs>
  <g>
    <path d="M311.5,309.88c9.96-7.31,20.22-14.06,31.31-19.47,27.8-13.53,59.44-19.66,90.27-16.75,6.1.62,12.16,1.39,18.24,2.49-6.07,1.08-12.17,1.76-18.22,2.43-29.74,3.07-59.03,9.17-87.28,19.07-11.35,3.82-22.82,8.8-34.33,12.23h0Z"/>
    <path class="cls-1" d="M483.3,397.54c0,13.03-4.97,26.09-14.91,36.03l-6.16,6.19-72.09,72.06-72.06-72.06-6.16-6.19c-19.9-19.9-19.9-52.15,0-72.06,9.94-9.94,22.97-14.94,36.03-14.94s26.09,5,36.03,14.94l6.16,6.16,6.16-6.16c19.9-19.9,52.18-19.9,72.09,0,9.94,9.94,14.91,23,14.91,36.03Z"/>
  </g>
  <g>
    <path d="M688.5,309.88c-11.5-3.43-22.98-8.42-34.33-12.23-28.25-9.9-57.54-16-87.28-19.07-6.05-.67-12.15-1.35-18.22-2.43,6.08-1.1,12.13-1.87,18.24-2.49,30.83-2.91,62.47,3.22,90.27,16.75,11.1,5.41,21.36,12.16,31.31,19.47h0Z"/>
    <path class="cls-1" d="M516.7,397.54c0,13.03,4.97,26.09,14.91,36.03l6.16,6.19,72.09,72.06,72.06-72.06,6.16-6.19c19.9-19.9,19.9-52.15,0-72.06-9.94-9.94-22.97-14.94-36.03-14.94-13.03,0-26.09,5-36.03,14.94l-6.16,6.16-6.16-6.16c-19.9-19.9-52.18-19.9-72.09,0-9.94,9.94-14.91,23-14.91,36.03Z"/>
  </g>
</svg>