<?xml version="1.0" encoding="UTF-8"?>
<svg id="Layer_2" data-name="Layer 2" xmlns="http://www.w3.org/2000/svg" viewBox="0 0 1000 1000">
  <defs>
    <style>
      .cls-1, .cls-2 {
        fill: #fff;
      }

      .cls-1, .cls-3 {
        stroke: #000;
        stroke-linecap: round;
        stroke-miterlimit: 10;
        stroke-width: 6px;
      }

      .cls-3 {
        fill: none;
      }
    </style>
  </defs>
  <path d="M377.86,293.66c-8.03,3.95-16.69,7.83-24.72,11.77-16.03,8.03-30.85,18.37-43.82,30.81-6.6,6.41-13.31,12.74-20.77,18.21-.34.24-.81.17-1.05-.17-.19-.26-.19-.59-.02-.85,2.52-3.93,5.3-7.62,8.15-11.24,2.89-3.61,5.77-7.12,8.92-10.58,14.12-15.72,31.36-28.74,50.4-37.98,5.99-2.89,12.6-6.19,18.6-8.99,5.99-2.6,10.13,5.94,4.32,9.02h0Z"/>
  <path class="cls-1" d="M461.69,501.55c13.84-19.81,22.28-46.14,22.28-75.03,0-61.59-38.34-111.53-85.64-111.53s-85.64,49.93-85.64,111.53c0,32.09,10.42,61,27.09,81.35,14.56-6.68,33.68-12.93,56.66-14.64,26.64-1.98,49.07,2.86,65.25,8.33Z"/>
  <ellipse cx="402.44" cy="426.51" rx="35.97" ry="40.89"/>
  <circle class="cls-2" cx="396.99" cy="410.33" r="16.19"/>
  <path class="cls-3" d="M482.7,510.28c-13.2-6.61-44.63-20.15-86.26-17.06-41.41,3.07-70.37,20.92-82.47,29.39"/>
  <path d="M626.46,284.64c8.19,3.93,16.82,7.96,24.87,12.21,24.82,13.27,45.63,33.27,61.21,56.58.42.65-.4,1.52-1.08,1.01-7.47-5.46-14.18-11.8-20.77-18.21-6.5-6.24-13.48-11.93-20.81-17.08-10.96-7.82-23.06-14-35.3-19.57-4.15-1.95-8.31-3.91-12.43-5.93-5.78-3.04-1.72-11.62,4.32-9.02h0Z"/>
  <path class="cls-1" d="M538.31,501.55c-13.84-19.81-22.28-46.14-22.28-75.03,0-61.59,38.34-111.53,85.64-111.53s85.64,49.93,85.64,111.53c0,32.09-10.42,61-27.09,81.35-14.56-6.68-33.68-12.93-56.66-14.64-26.64-1.98-49.07,2.86-65.25,8.33Z"/>
  <ellipse cx="597.56" cy="426.51" rx="35.97" ry="40.89"/>
  <path class="cls-2" d="M608.3,410.33c0,8.94-7.25,16.19-16.19,16.19-8.94,0-16.19-7.25-16.19-16.19s7.25-16.19,16.19-16.19c8.94,0,16.19,7.25,16.19,16.19Z"/>
  <path class="cls-3" d="M517.3,510.28c13.2-6.61,44.63-20.15,86.26-17.06,41.41,3.07,70.37,20.92,82.47,29.39"/>
</svg>
