<?xml version="1.0" encoding="UTF-8"?>
<svg id="Layer_2" data-name="Layer 2" xmlns="http://www.w3.org/2000/svg" viewBox="0 0 1000 1000">
  <defs>
    <style>
      .cls-1, .cls-2 {
        fill: #fff;
      }

      .cls-1, .cls-2, .cls-3 {
        stroke: #000;
        stroke-miterlimit: 10;
      }

      .cls-1, .cls-3 {
        stroke-linecap: round;
        stroke-width: 6px;
      }

      .cls-2 {
        stroke-width: .25px;
      }

      .cls-3 {
        fill: none;
      }
    </style>
  </defs>
  <path class="cls-3" d="M426.65,284.83c-5.97-4.19-24.6-16.1-49.82-14.16-40.59,3.11-61.16,39.24-62.79,42.23"/>
  <path class="cls-3" d="M341.99,534.19c29.95-11.36,55.52-18.34,74.34-11.89,18.08,6.2,7.7,18.3,3.9,21.24"/>
  <path class="cls-1" d="M482.29,423.13c0-60.88-37.9-110.23-84.65-110.23s-84.65,49.35-84.65,110.23c0,46.64,22.25,86.48,53.68,102.59,19.4-5.76,36.25-8.01,49.66-3.41,4.29,1.47,6.94,3.28,8.49,5.21,33.41-14.75,57.47-55.9,57.47-104.39Z"/>
  <ellipse cx="417.92" cy="427.79" rx="35.55" ry="40.42"/>
  <circle class="cls-2" cx="412.53" cy="411.79" r="16"/>
  <path class="cls-3" d="M573.35,284.83c5.97-4.19,24.6-16.1,49.82-14.16,40.59,3.11,61.16,39.24,62.79,42.23"/>
  <path class="cls-3" d="M658.01,534.19c-29.95-11.36-55.52-18.34-74.34-11.89-18.08,6.2-7.7,18.3-3.9,21.24"/>
  <path class="cls-1" d="M517.71,423.13c0-60.88,37.9-110.23,84.65-110.23,46.75,0,84.65,49.35,84.65,110.23,0,46.64-22.25,86.48-53.68,102.59-19.4-5.76-36.25-8.01-49.66-3.41-4.29,1.47-6.94,3.28-8.49,5.21-33.41-14.75-57.47-55.9-57.47-104.39Z"/>
  <ellipse cx="582.08" cy="427.79" rx="35.55" ry="40.42"/>
  <circle class="cls-2" cx="576.69" cy="411.79" r="16"/>
</svg>
