<?xml version="1.0" encoding="UTF-8"?>
<svg id="Layer_2" data-name="Layer 2" xmlns="http://www.w3.org/2000/svg" viewBox="0 0 1000 1500">
  <defs>
    <style>
      .cls-1 {
        stroke-width: 6px;
      }

      .cls-1, .cls-2, .cls-3 {
        fill: #fff;
      }

      .cls-1, .cls-3 {
        stroke: #000;
        stroke-miterlimit: 10;
      }

      .cls-3 {
        stroke-width: .25px;
      }
    </style>
  </defs>
  <ellipse class="cls-1" cx="398.3" cy="925.64" rx="84.8" ry="110.62"/>
  <ellipse cx="398.3" cy="925.64" rx="35.61" ry="40.56"/>
  <ellipse class="cls-3" cx="392.9" cy="909.58" rx="16.03" ry="16.05"/>
  <ellipse class="cls-1" cx="601.7" cy="925.64" rx="84.8" ry="110.62"/>
  <ellipse cx="601.7" cy="925.64" rx="35.61" ry="40.56"/>
  <ellipse class="cls-2" cx="596.3" cy="909.58" rx="16.03" ry="16.05"/>
  <path d="M324.97,782.26c33.63-19.99,70.87-26.07,108.95-16.71-4.69.26-9.38.22-14.04.26-23.01-.09-45.9,2.65-68.11,8.7-8.98,2.33-17.76,5.5-26.8,7.75h0Z"/>
  <path d="M675.03,782.26c-9.04-2.25-17.82-5.42-26.8-7.75-22.21-6.04-45.1-8.78-68.11-8.7-4.66-.04-9.34,0-14.04-.26,38.09-9.37,75.32-3.28,108.95,16.71h0Z"/>
</svg>
