<?xml version="1.0" encoding="UTF-8"?>
<svg id="Layer_2" data-name="Layer 2" xmlns="http://www.w3.org/2000/svg" viewBox="0 0 1000 1000">
  <defs>
    <style>
      .cls-1 {
        stroke: #000;
        stroke-linecap: round;
        stroke-miterlimit: 10;
        stroke-width: 6px;
      }

      .cls-1, .cls-2 {
        fill: #fff;
      }
    </style>
  </defs>
  <path class="cls-1" d="M476.59,467.21c4.59-13.59,7.15-28.61,7.15-44.41,0-61.04-38-110.52-84.87-110.52s-84.87,49.48-84.87,110.52c0,35.18,12.64,66.5,32.3,86.74,11.81-10.08,31.5-24.24,59.12-33.54,29.49-9.93,55.28-10.04,71.16-8.79Z"/>
  <ellipse cx="402.17" cy="425.73" rx="35.64" ry="40.52"/>
  <circle class="cls-2" cx="396.77" cy="409.69" r="16.04"/>
  <path d="M491.98,352.62c-19.93-10.3-38.55-24.72-51.85-43.18-2.66-3.76-4.92-7.82-7.34-11.2-17.84-23.37-57.47-21.31-82.19-11.04-12.11,4.91-22.81,12.47-31.42,22.53-.46.53-1.27.59-1.8.13-.48-.41-.57-1.09-.27-1.62,4.65-7.87,11.06-14.83,18.59-20.32,26.23-18.96,65.55-23.75,92.73-4.11,3.83,2.86,7.39,6.65,9.87,10.77,2.42,3.96,4.24,7.9,6.59,11.77,11.66,18.76,28.71,33.73,47.67,45.22.29.17.38.54.21.83-.16.27-.51.37-.79.23h0Z"/>
  <path class="cls-1" d="M523.41,468.31c-4.59-13.59-7.15-28.61-7.15-44.41,0-61.04,38-110.52,84.87-110.52,46.87,0,84.87,49.48,84.87,110.52,0,35.18-12.64,66.5-32.3,86.74-11.81-10.08-31.5-24.24-59.12-33.54-29.49-9.93-55.28-10.04-71.16-8.79Z"/>
  <ellipse cx="597.83" cy="426.83" rx="35.64" ry="40.52"/>
  <circle class="cls-2" cx="603.23" cy="410.79" r="16.04"/>
  <path d="M507.44,352.67c18.96-11.49,36-26.46,47.67-45.22,2.35-3.87,4.17-7.81,6.59-11.77,2.48-4.11,6.04-7.91,9.87-10.77,27.18-19.64,66.49-14.85,92.73,4.11,7.53,5.49,13.94,12.45,18.59,20.32.36.61.16,1.39-.45,1.75-.54.32-1.22.19-1.62-.27-8.61-10.05-19.31-17.61-31.42-22.53-24.7-10.26-64.36-12.33-82.19,11.04-2.41,3.38-4.68,7.44-7.34,11.2-13.3,18.46-31.92,32.88-51.85,43.18-.3.15-.66.03-.81-.26-.15-.28-.04-.63.23-.79h0Z"/>
</svg>