<?xml version="1.0" encoding="UTF-8"?>
<svg id="Layer_2" data-name="Layer 2" xmlns="http://www.w3.org/2000/svg" viewBox="0 0 1000 1500">
  <defs>
    <style>
      .cls-1, .cls-2, .cls-3 {
        fill: #fff;
      }

      .cls-1, .cls-3, .cls-4 {
        stroke: #000;
        stroke-miterlimit: 10;
      }

      .cls-1, .cls-4 {
        stroke-width: 6px;
      }

      .cls-3 {
        stroke-width: .25px;
      }

      .cls-4 {
        fill: none;
      }
    </style>
  </defs>
  <ellipse class="cls-1" cx="402.01" cy="920.1" rx="84.27" ry="110.79"/>
  <path class="cls-4" d="M319.79,897.7s43.45-39.17,94.47-39.64c51.01-.47,64.6,15.63,64.6,15.63"/>
  <ellipse cx="402.01" cy="920.1" rx="35.39" ry="40.62"/>
  <ellipse class="cls-3" cx="390.09" cy="904.02" rx="15.93" ry="16.08"/>
  <ellipse class="cls-1" cx="604.13" cy="920.1" rx="84.27" ry="110.79"/>
  <path class="cls-4" d="M527.61,873.69s13.59-16.1,64.6-15.63c51.01.47,94.47,39.64,94.47,39.64"/>
  <ellipse cx="604.13" cy="920.1" rx="35.39" ry="40.62"/>
  <ellipse class="cls-2" cx="592.21" cy="904.02" rx="15.93" ry="16.08"/>
  <path d="M417.65,785.98c-16.26-6.03-32.71-8.19-49.54-5.78-2.18.48-5.38,1.02-7.46,1.77,0,0-3.67,1.18-3.67,1.18l-3.54,1.53c-18.09,8-31.49,24.45-37.7,43.16,0,0-.68-.17-.68-.17,3.6-15.97,12.6-30.86,25.51-41.06,0,0,3.34-2.51,3.34-2.51,1.3-.76,4.07-2.6,5.33-3.31,1.18-.6,4.39-2.21,5.61-2.82,1.29-.51,4.61-1.83,5.85-2.34,1.36-.5,4.64-1.4,6.05-1.86,0,0,4.14-.88,4.14-.88,11.07-2.18,22.74-.43,33.04,3.9,5.1,2.19,9.97,4.93,14.1,8.59l-.37.59h0Z"/>
  <path d="M582.04,785.39c12.72-10.72,30.72-15.56,47.13-12.49,0,0,4.14.88,4.14.88,1.43.49,4.68,1.37,6.05,1.86,1.23.5,4.58,1.83,5.85,2.34,1.23.62,4.42,2.22,5.61,2.82,1.26.69,4.06,2.56,5.33,3.31,0,0,3.34,2.51,3.34,2.51,12.91,10.21,21.91,25.09,25.51,41.06,0,0-.68.17-.68.17-6.21-18.72-19.61-35.16-37.7-43.16,0,0-3.54-1.53-3.54-1.53l-3.67-1.18c-2.07-.76-5.29-1.3-7.46-1.77-6.26-.8-12.68-1.25-19.01-.82-10.19.56-20.41,2.88-30.54,6.6l-.37-.59h0Z"/>
</svg>
