<?xml version="1.0" encoding="UTF-8"?>
<svg id="Layer_2" data-name="Layer 2" xmlns="http://www.w3.org/2000/svg" viewBox="0 0 1000 1000">
  <defs>
    <style>
      .cls-1 {
        stroke-width: 6px;
      }

      .cls-1, .cls-2 {
        stroke: #000;
        stroke-linecap: round;
        stroke-miterlimit: 10;
      }

      .cls-1, .cls-3 {
        fill: #fff;
      }

      .cls-2 {
        stroke-width: .25px;
      }
    </style>
  </defs>
  <path d="M289.06,333.26c16.62-32.09,46.14-57.47,81.08-67.33,2.29-.69,4.58-1.36,6.92-1.93-3.94,2.76-8.03,5.23-12.08,7.68-20.04,11.89-38.73,25.69-55.53,41.83-6.87,6.43-13.25,13.53-20.38,19.74h0Z"/>
  <path class="cls-1" d="M421.75,315.33c-6.81,11.66-18.25,26.13-37.04,40.91-29.29,23.05-53.5,29.88-69.05,31.61-2.8,11.06-4.33,22.86-4.33,35.14,0,61.97,38.58,112.21,86.16,112.21s86.16-50.24,86.16-112.21c0-51-26.13-94.02-61.9-107.67Z"/>
  <path class="cls-2" d="M407.89,414.79c0,26.59,21.55,48.14,48.14,48.14,8.61,0,16.67-2.29,23.66-6.24,2.57-10.64,3.96-21.95,3.96-33.69,0-19.2-3.71-37.27-10.24-53.06-5.4-2.09-11.24-3.29-17.38-3.29-26.59,0-48.14,21.55-48.14,48.14Z"/>
  <circle class="cls-3" cx="438.91" cy="402.4" r="19.4"/>
  <path d="M710.94,336.06c-7.14-6.21-13.51-13.31-20.38-19.74-16.81-16.15-35.5-29.94-55.53-41.83-4.06-2.45-8.15-4.93-12.08-7.68,2.34.57,4.63,1.25,6.92,1.93,34.94,9.86,64.46,35.24,81.08,67.33h0Z"/>
  <path class="cls-1" d="M578.25,318.13c6.81,11.66,18.25,26.13,37.04,40.91,29.29,23.05,53.5,29.88,69.05,31.61,2.8,11.06,4.33,22.86,4.33,35.14,0,61.97-38.58,112.21-86.16,112.21s-86.16-50.24-86.16-112.21c0-51,26.13-94.02,61.9-107.67Z"/>
  <path class="cls-2" d="M592.11,417.59c0,26.59-21.55,48.14-48.14,48.14-8.61,0-16.67-2.29-23.66-6.24-2.57-10.64-3.96-21.95-3.96-33.69,0-19.2,3.71-37.27,10.24-53.06,5.4-2.09,11.24-3.29,17.38-3.29,26.59,0,48.14,21.55,48.14,48.14Z"/>
  <circle class="cls-3" cx="561.09" cy="405.2" r="19.4"/>
</svg>