<?xml version="1.0" encoding="UTF-8"?>
<svg id="Layer_2" data-name="Layer 2" xmlns="http://www.w3.org/2000/svg" viewBox="0 0 1000 1000">
  <defs>
    <style>
      .cls-1, .cls-2 {
        fill: #fff;
      }

      .cls-1, .cls-3 {
        stroke: #000;
        stroke-linecap: round;
        stroke-miterlimit: 10;
        stroke-width: 6px;
      }

      .cls-3 {
        fill: none;
      }
    </style>
  </defs>
  <g>
    <path class="cls-3" d="M586.87,281.22c-5.5,8.33-16.25,27.3-11.01,47.33,4.09,15.62,16.09,25.01,39.99,39.99,21.41,13.42,51.25,30.63,89.15,48.06"/>
    <path class="cls-1" d="M615.85,368.53c-23.9-14.98-35.9-24.37-39.99-39.99-.69-2.66-1.09-5.29-1.27-7.89-33.81,14.93-58.15,56.58-58.15,105.66,0,61.62,38.36,111.58,85.68,111.58s85.68-49.95,85.68-111.58c0-6.3-.42-12.46-1.19-18.47-29.27-14.36-52.94-28.15-70.75-39.31Z"/>
    <circle cx="618.54" cy="440.15" r="42.59"/>
    <rect class="cls-2" x="587.34" y="422.29" width="25.99" height="38.01" rx="12.99" ry="12.99"/>
    <circle class="cls-2" cx="630.25" cy="422.29" r="11.71"/>
    <ellipse class="cls-2" cx="635.06" cy="460.3" rx="12.18" ry="7.91" transform="translate(-120.42 671.08) rotate(-51.52)"/>
  </g>
  <g>
    <path class="cls-3" d="M412.63,281.62c5.5,8.33,16.25,27.3,11.01,47.33-4.09,15.62-16.09,25.01-39.99,39.99-21.41,13.42-51.25,30.63-89.15,48.06"/>
    <path class="cls-1" d="M383.65,368.94c23.9-14.98,35.9-24.37,39.99-39.99.69-2.66,1.09-5.29,1.27-7.89,33.81,14.93,58.15,56.58,58.15,105.66,0,61.62-38.36,111.58-85.68,111.58-47.32,0-85.68-49.95-85.68-111.58,0-6.3.42-12.46,1.19-18.47,29.27-14.36,52.94-28.15,70.75-39.31Z"/>
    <circle cx="380.96" cy="440.55" r="42.59"/>
    <rect class="cls-2" x="386.17" y="422.7" width="25.99" height="38.01" rx="12.99" ry="12.99" transform="translate(798.33 883.4) rotate(-180)"/>
    <circle class="cls-2" cx="369.25" cy="422.7" r="11.71"/>
    <ellipse class="cls-2" cx="364.44" cy="460.71" rx="7.91" ry="12.18" transform="translate(-207.51 326.78) rotate(-38.48)"/>
  </g>
</svg>