<?xml version="1.0" encoding="UTF-8"?>
<svg id="Layer_2" data-name="Layer 2" xmlns="http://www.w3.org/2000/svg" viewBox="0 0 1000 1500">
  <defs>
    <style>
      .cls-1, .cls-2 {
        fill: #fff;
      }

      .cls-1, .cls-2, .cls-3 {
        stroke: #000;
        stroke-miterlimit: 10;
      }

      .cls-1, .cls-3 {
        stroke-width: 6px;
      }

      .cls-2 {
        stroke-width: .25px;
      }

      .cls-3 {
        fill: none;
        stroke-linecap: round;
      }
    </style>
  </defs>
  <ellipse class="cls-1" cx="396.68" cy="926.95" rx="82.68" ry="107.68"/>
  <ellipse cx="386.09" cy="945.67" rx="21.08" ry="23.97"/>
  <circle class="cls-2" cx="382.89" cy="936.18" r="9.49"/>
  <path class="cls-3" d="M410.86,786.83h0c-30.45-6.64-63.91,1.26-93.7,22.12l-3.16,2.21"/>
  <path class="cls-1" d="M686,926.95c0,59.47-37.02,107.68-82.68,107.68-45.67,0-82.68-48.21-82.68-107.68s37.02-107.68,82.68-107.68c45.67,0,82.68,48.21,82.68,107.68Z"/>
  <ellipse cx="592.72" cy="945.67" rx="21.08" ry="23.97"/>
  <circle class="cls-2" cx="589.52" cy="936.18" r="9.49"/>
  <path class="cls-3" d="M589.14,786.83h0c30.45-6.64,63.91,1.26,93.7,22.12l3.16,2.21"/>
</svg>
