<?xml version="1.0" encoding="UTF-8"?>
<svg id="Layer_2" data-name="Layer 2" xmlns="http://www.w3.org/2000/svg" viewBox="0 0 1000 1500">
  <defs>
    <style>
      .cls-1, .cls-2, .cls-3 {
        fill: #fff;
      }

      .cls-1, .cls-4 {
        stroke: #000;
        stroke-linecap: round;
        stroke-miterlimit: 10;
        stroke-width: 6px;
      }

      .cls-2 {
        opacity: .37;
      }

      .cls-5 {
        fill: #29abe2;
      }

      .cls-4 {
        fill: none;
      }
    </style>
  </defs>
  <path class="cls-1" d="M350.64,965.77c11.81-3.13,25.3-5.73,40.26-6.99,23.87-2.01,44.82-.06,61.63,3.01,19.95-18.1,32.77-46.11,32.77-77.58,0-54.59-38.53-98.84-86.06-98.84s-86.06,44.25-86.06,98.84c0,33.87,14.84,63.75,37.46,81.56Z"/>
  <path d="M412.69,901.49c-17.89,0-32.4,17.28-32.4,38.59,0,7.07,1.62,13.68,4.41,19.38,2.06-.23,4.08-.49,6.2-.67,18.46-1.55,35.15-.73,49.55,1.14,2.93-5.8,4.65-12.58,4.65-19.84,0-21.31-14.51-38.59-32.4-38.59Z"/>
  <circle class="cls-3" cx="417.25" cy="930.71" r="15.86"/>
  <g>
    <path class="cls-5" d="M330.03,1009.21c-4.5,11.45-15.45,17.87-24.44,14.34-9-3.54-12.65-15.69-8.15-27.15,1.69-4.29,4.28-7.88,7.34-10.49.02-.02.03-.02.05-.04h0c7.94-7.56,17.85-12.73,28.58-14.94l8.74-1.8h0c-7.21,6.71-11.04,16.29-10.43,26.13l.07,1.21s0,.04,0,.06c.46,4-.08,8.4-1.77,12.68Z"/>
    <ellipse class="cls-2" cx="304.54" cy="1005.63" rx="10.71" ry="6.95" transform="translate(-719.44 1241.21) rotate(-86.11)"/>
  </g>
  <path class="cls-4" d="M378.88,762.54h0c-39.22,7.28-74.24,29.11-98.05,61.11l-2.53,3.4"/>
  <path class="cls-1" d="M649.36,965.77c-11.81-3.13-25.3-5.73-40.26-6.99-23.87-2.01-44.82-.06-61.63,3.01-19.95-18.1-32.77-46.11-32.77-77.58,0-54.59,38.53-98.84,86.06-98.84,47.53,0,86.06,44.25,86.06,98.84,0,33.87-14.84,63.75-37.46,81.56Z"/>
  <path d="M587.31,901.49c17.89,0,32.4,17.28,32.4,38.59,0,7.07-1.62,13.68-4.41,19.38-2.06-.23-4.08-.49-6.2-.67-18.46-1.55-35.15-.73-49.55,1.14-2.93-5.8-4.65-12.58-4.65-19.84,0-21.31,14.51-38.59,32.4-38.59Z"/>
  <circle class="cls-3" cx="582.75" cy="930.71" r="15.86"/>
  <g>
    <path class="cls-5" d="M669.97,1009.21c4.5,11.45,15.45,17.87,24.44,14.34,9-3.54,12.65-15.69,8.15-27.15-1.69-4.29-4.28-7.88-7.34-10.49-.02-.02-.03-.02-.05-.04h0c-7.94-7.56-17.85-12.73-28.58-14.94l-8.74-1.8h0c7.21,6.71,11.04,16.29,10.43,26.13l-.07,1.21s0,.04,0,.06c-.46,4,.08,8.4,1.77,12.68Z"/>
    <ellipse class="cls-2" cx="695.46" cy="1005.63" rx="6.95" ry="10.71" transform="translate(-66.66 49.53) rotate(-3.89)"/>
  </g>
  <path class="cls-4" d="M621.12,762.54h0c39.22,7.28,74.24,29.11,98.05,61.11l2.53,3.4"/>
</svg>
