<?xml version="1.0" encoding="UTF-8"?>
<svg id="Layer_2" data-name="Layer 2" xmlns="http://www.w3.org/2000/svg" viewBox="0 0 1000 1000">
  <defs>
    <style>
      .cls-1, .cls-2 {
        fill: #fff;
      }

      .cls-1, .cls-2, .cls-3 {
        stroke: #000;
        stroke-miterlimit: 10;
      }

      .cls-1, .cls-3 {
        stroke-linecap: round;
        stroke-width: 6px;
      }

      .cls-2 {
        stroke-width: .25px;
      }

      .cls-3 {
        fill: none;
      }
    </style>
  </defs>
  <path d="M415.37,295.1c-15.92-6.26-32.41-8.51-49.08-6.06-1.26.27-4.38.93-5.59,1.2-1.15.36-4.28,1.37-5.47,1.76-19.58,7.39-34.45,24.36-40.88,44.21,0,0-.58-.15-.58-.15,3.68-15.7,12.71-30.27,25.54-40.16,2.5-1.97,5.8-4.04,8.57-5.62,1.8-.87,3.74-1.88,5.54-2.72,0,0,3.84-1.49,3.84-1.49l1.92-.76,1.98-.59,3.98-1.17s4.07-.83,4.07-.83c10.87-2.04,22.29-.4,32.45,3.72,5.05,2.06,9.87,4.68,14.02,8.16l-.31.51h0Z"/>
  <path class="cls-3" d="M312.62,506.11c11.7-3.75,44.54-12.54,83,0,29.86,9.74,48.65,27.62,57.18,36.89"/>
  <path class="cls-1" d="M395.63,505.06c15.8,5.15,28.47,12.58,38.2,19.81,29.02-17.02,49.24-54.99,49.24-99.12,0-60.03-37.37-108.69-83.46-108.69s-83.46,48.66-83.46,108.69c0,28.48,8.42,54.39,22.19,73.77,15.38-1.82,35.42-1.59,57.3,5.54Z"/>
  <g>
    <ellipse cx="405.07" cy="420.97" rx="35.05" ry="39.85"/>
    <circle class="cls-2" cx="399.76" cy="405.19" r="15.77"/>
  </g>
  <path d="M584.31,294.59c12.79-10.19,30.31-14.76,46.47-11.88,0,0,4.07.83,4.07.83l3.98,1.17,1.98.59,1.92.76,3.84,1.49c1.8.84,3.75,1.85,5.54,2.72,2.77,1.58,6.07,3.65,8.57,5.62,12.83,9.89,21.86,24.47,25.54,40.16,0,0-.58.15-.58.15-6.07-18.55-19.42-34.83-37.36-42.7-1.18-.5-2.34-1.03-3.52-1.51-1.2-.38-4.3-1.4-5.47-1.75-1.2-.27-4.35-.93-5.59-1.2-6.23-.82-12.63-1.27-18.91-.8-10.14.61-20.27,3.01-30.16,6.86l-.31-.51h0Z"/>
  <path class="cls-3" d="M687.38,506.11c-11.7-3.75-44.54-12.54-83,0-29.86,9.74-48.65,27.62-57.18,36.89"/>
  <path class="cls-1" d="M604.37,505.06c-15.8,5.15-28.47,12.58-38.2,19.81-29.02-17.02-49.24-54.99-49.24-99.12,0-60.03,37.37-108.69,83.46-108.69s83.46,48.66,83.46,108.69c0,28.48-8.42,54.39-22.19,73.77-15.38-1.82-35.42-1.59-57.3,5.54Z"/>
  <g>
    <ellipse cx="594.93" cy="420.97" rx="35.05" ry="39.85"/>
    <circle class="cls-2" cx="589.62" cy="405.19" r="15.77"/>
  </g>
</svg>