<?xml version="1.0" encoding="UTF-8"?>
<svg id="Layer_2" data-name="Layer 2" xmlns="http://www.w3.org/2000/svg" viewBox="0 0 1000 1500">
  <defs>
    <style>
      .cls-1, .cls-2 {
        fill: #fff;
      }

      .cls-1, .cls-3 {
        stroke: #000;
        stroke-linecap: round;
        stroke-miterlimit: 10;
        stroke-width: 6px;
      }

      .cls-3 {
        fill: none;
      }
    </style>
  </defs>
  <g>
    <path class="cls-3" d="M587.12,781.05c-5.5,8.33-16.25,27.3-11.01,47.33,4.09,15.62,16.09,25.01,39.99,39.99,21.41,13.42,51.25,30.63,89.15,48.06"/>
    <path class="cls-1" d="M616.1,868.36c-23.9-14.98-35.9-24.37-39.99-39.99-.69-2.66-1.09-5.29-1.27-7.89-33.81,14.93-58.15,56.58-58.15,105.66,0,61.62,38.36,111.58,85.68,111.58s85.68-49.95,85.68-111.58c0-6.3-.42-12.46-1.19-18.47-29.27-14.36-52.94-28.15-70.75-39.31Z"/>
    <circle cx="618.79" cy="939.98" r="42.59"/>
    <rect class="cls-2" x="587.59" y="922.12" width="25.99" height="38.01" rx="12.99" ry="12.99"/>
    <circle class="cls-2" cx="630.5" cy="922.12" r="11.71"/>
    <ellipse class="cls-2" cx="635.31" cy="960.13" rx="12.18" ry="7.91" transform="translate(-511.63 860.12) rotate(-51.52)"/>
  </g>
  <g>
    <path class="cls-3" d="M412.88,781.45c5.5,8.33,16.25,27.3,11.01,47.33-4.09,15.62-16.09,25.01-39.99,39.99-21.41,13.42-51.25,30.63-89.15,48.06"/>
    <path class="cls-1" d="M383.9,868.76c23.9-14.98,35.9-24.37,39.99-39.99.69-2.66,1.09-5.29,1.27-7.89,33.81,14.93,58.15,56.58,58.15,105.66,0,61.62-38.36,111.58-85.68,111.58-47.32,0-85.68-49.95-85.68-111.58,0-6.3.42-12.46,1.19-18.47,29.27-14.36,52.94-28.15,70.75-39.31Z"/>
    <circle cx="381.21" cy="940.38" r="42.59"/>
    <rect class="cls-2" x="386.42" y="922.52" width="25.99" height="38.01" rx="12.99" ry="12.99" transform="translate(798.83 1883.06) rotate(-180)"/>
    <circle class="cls-2" cx="369.5" cy="922.52" r="11.71"/>
    <ellipse class="cls-2" cx="364.69" cy="960.53" rx="7.91" ry="12.18" transform="translate(-518.44 435.46) rotate(-38.48)"/>
  </g>
</svg>
