<?xml version="1.0" encoding="UTF-8"?>
<svg id="Layer_2" data-name="Layer 2" xmlns="http://www.w3.org/2000/svg" viewBox="0 0 1000 1000">
  <defs>
    <style>
      .cls-1, .cls-2 {
        fill: #fff;
      }

      .cls-1, .cls-2, .cls-3 {
        stroke: #000;
        stroke-miterlimit: 10;
      }

      .cls-1, .cls-3 {
        stroke-linecap: round;
        stroke-width: 6px;
      }

      .cls-2 {
        stroke-width: .25px;
      }

      .cls-3 {
        fill: none;
      }
    </style>
  </defs>
  <g>
    <path class="cls-3" d="M307.18,486.06c19.7-7.25,44.77-14.51,74.34-18.59,38.85-5.35,72.3-3.4,97.06,0"/>
    <path class="cls-1" d="M471.85,466.62c4.63-13.39,7.22-28.23,7.22-43.86,0-59.1-36.79-107.01-82.17-107.01s-82.17,47.91-82.17,107.01c0,20.8,4.57,40.2,12.46,56.63,15.81-4.78,33.97-9.11,54.34-11.91,35.45-4.88,66.37-3.68,90.33-.85Z"/>
    <ellipse cx="403.99" cy="419.05" rx="34.51" ry="39.23"/>
    <circle class="cls-2" cx="398.76" cy="403.52" r="15.53"/>
    <path class="cls-3" d="M438.5,286.34c-4.86-4.42-26.16-22.79-58.26-22.39-39.11.49-62.36,28.45-65.52,32.39"/>
  </g>
  <g>
    <path class="cls-3" d="M690.65,486c-19.7-7.25-44.77-14.51-74.34-18.59-38.85-5.35-72.3-3.4-97.06,0"/>
    <path class="cls-1" d="M525.98,466.56c-4.63-13.39-7.22-28.23-7.22-43.86,0-59.1,36.79-107.01,82.17-107.01s82.17,47.91,82.17,107.01c0,20.8-4.57,40.2-12.46,56.63-15.81-4.78-33.97-9.11-54.34-11.91-35.45-4.88-66.37-3.68-90.33-.85Z"/>
    <ellipse cx="593.83" cy="419" rx="34.51" ry="39.23"/>
    <circle class="cls-2" cx="599.06" cy="403.47" r="15.53"/>
    <path class="cls-3" d="M559.32,286.28c4.86-4.42,26.16-22.79,58.26-22.39,39.11.49,62.36,28.45,65.52,32.39"/>
  </g>
</svg>
