<?xml version="1.0" encoding="UTF-8"?>
<svg id="Layer_2" data-name="Layer 2" xmlns="http://www.w3.org/2000/svg" viewBox="0 0 1000 1000">
  <defs>
    <style>
      .cls-1 {
        stroke-width: 6px;
      }

      .cls-1, .cls-2, .cls-3 {
        fill: #fff;
      }

      .cls-1, .cls-3 {
        stroke: #000;
        stroke-miterlimit: 10;
      }

      .cls-3 {
        stroke-width: .25px;
      }
    </style>
  </defs>
  <g>
    <ellipse class="cls-1" cx="398.3" cy="425.64" rx="84.8" ry="110.62"/>
    <ellipse cx="398.3" cy="425.64" rx="35.61" ry="40.56"/>
    <ellipse class="cls-3" cx="392.9" cy="409.58" rx="16.03" ry="16.05"/>
    <ellipse class="cls-1" cx="601.7" cy="425.64" rx="84.8" ry="110.62"/>
    <ellipse cx="601.7" cy="425.64" rx="35.61" ry="40.56"/>
    <ellipse class="cls-2" cx="596.3" cy="409.58" rx="16.03" ry="16.05"/>
  </g>
  <g>
    <path d="M420.31,292.74c-16.5-6.09-33.2-8.26-50.3-5.87-1.29.27-4.48.93-5.71,1.19-1.18.36-4.38,1.38-5.59,1.77-20.08,7.5-35.35,24.79-42.06,45.09,0,0-.68-.17-.68-.17,3.7-16.18,12.94-31.22,26.11-41.46,2.57-2.04,5.97-4.19,8.82-5.83,1.85-.91,3.85-1.95,5.7-2.83,0,0,3.96-1.56,3.96-1.56,9.22-3.6,19.56-5.38,29.42-3.98,11.16,1.55,22.12,5.73,30.71,13.04,0,0-.37.6-.37.6h0Z"/>
    <path d="M579.55,292.15c12.93-10.77,31.2-15.62,47.8-12.58,0,0,4.2.88,4.2.88l4.1,1.23,2.04.62,1.98.79,3.96,1.56c1.85.88,3.86,1.92,5.7,2.83,2.86,1.64,6.24,3.78,8.82,5.83,13.17,10.24,22.41,25.28,26.11,41.46,0,0-.68.17-.68.17-6.71-20.3-21.98-37.59-42.06-45.09-2.11-.65-5.34-1.81-7.5-2.17,0,0-3.81-.79-3.81-.79-6.36-.79-12.88-1.24-19.3-.79-10.35.58-20.72,2.92-30.99,6.67l-.37-.6h0Z"/>
  </g>
</svg>