<?xml version="1.0" encoding="UTF-8"?>
<svg id="Layer_2" data-name="Layer 2" xmlns="http://www.w3.org/2000/svg" viewBox="0 0 1000 1000">
  <defs>
    <style>
      .cls-1 {
        stroke-width: 2px;
      }

      .cls-1, .cls-2, .cls-3 {
        stroke: #000;
        stroke-miterlimit: 10;
      }

      .cls-2, .cls-4 {
        fill: #fff;
      }

      .cls-2, .cls-3 {
        stroke-width: 6px;
      }

      .cls-3 {
        fill: #999;
      }
    </style>
  </defs>
  <ellipse class="cls-2" cx="398.83" cy="422.85" rx="85.67" ry="111.56"/>
  <path class="cls-1" d="M330.65,394.24c-5.38,0-10.51,1.08-15.2,3-1.48,8.23-2.29,16.79-2.29,25.61,0,18.26,3.39,35.47,9.36,50.69,2.63.54,5.34.83,8.13.83,22.13,0,40.06-17.94,40.06-40.06s-17.94-40.06-40.06-40.06Z"/>
  <path class="cls-3" d="M481.89,395.55c-54.76,12.04-111.45,11.97-166.14-.1,9.37-48.35,43.02-84.17,83.07-84.17s73.73,35.85,83.07,84.27Z"/>
  <path class="cls-4" d="M324.69,409.5c-2.77,0-5.36.68-7.71,1.8-.31,3.8-.49,7.65-.49,11.55,0,7.29.56,14.41,1.59,21.31,2.05.81,4.27,1.29,6.6,1.29,9.93,0,17.97-8.05,17.97-17.97s-8.05-17.97-17.97-17.97Z"/>
  <path d="M408.21,292.01c-29.36-14.21-66.33-11.52-89.69,12.78-7.7,8.13-14.1,17.89-17.85,28.49-.16.52-.73.81-1.25.63-.5-.17-.77-.71-.62-1.21.87-2.81,1.88-5.53,3.03-8.21,3.43-8.09,7.81-15.72,13.26-22.67,23.59-31.35,64.62-39.42,98.36-19.35,5.73,3.75,1,12.36-5.23,9.54h0Z"/>
  <path class="cls-2" d="M686.84,426.44c0,61.61-38.35,111.56-85.67,111.56-47.31,0-85.67-49.95-85.67-111.56,0-61.61,38.35-111.56,85.67-111.56,47.31,0,85.67,49.95,85.67,111.56Z"/>
  <path class="cls-1" d="M532.99,397.83c-5.38,0-10.51,1.08-15.2,3-1.48,8.23-2.29,16.79-2.29,25.61,0,18.26,3.39,35.47,9.36,50.69,2.63.54,5.34.83,8.13.83,22.13,0,40.06-17.94,40.06-40.06s-17.94-40.06-40.06-40.06Z"/>
  <path class="cls-3" d="M684.23,399.14c-54.76,12.04-111.45,11.97-166.14-.1,9.37-48.35,43.02-84.17,83.07-84.17,40.08,0,73.73,35.85,83.07,84.27Z"/>
  <path class="cls-4" d="M527.04,413.09c-2.77,0-5.36.68-7.71,1.8-.31,3.8-.49,7.65-.49,11.55,0,7.29.56,14.41,1.59,21.31,2.05.81,4.27,1.29,6.6,1.29,9.93,0,17.97-8.05,17.97-17.97s-8.05-17.97-17.97-17.97Z"/>
  <path d="M586.56,286.06c21.11-12.9,48.67-14.69,70.91-3.62,16.25,7.86,28.63,22.07,36.97,37.74,2.72,5.18,5.03,10.5,6.77,16.1.16.52-.13,1.06-.65,1.22-.52.16-1.06-.13-1.22-.64-1.83-5.32-4.48-10.42-7.48-15.2-21.54-35.09-64.22-43.24-100.07-26.07-6.21,2.84-10.98-5.8-5.23-9.54h0Z"/>
</svg>
