<?xml version="1.0" encoding="UTF-8"?>
<svg id="Layer_2" data-name="Layer 2" xmlns="http://www.w3.org/2000/svg" viewBox="0 0 1000 1000">
  <defs>
    <style>
      .cls-1 {
        stroke-width: 6px;
      }

      .cls-1, .cls-2, .cls-3 {
        fill: #fff;
      }

      .cls-1, .cls-3 {
        stroke: #000;
        stroke-miterlimit: 10;
      }

      .cls-3 {
        stroke-width: .25px;
      }
    </style>
  </defs>
  <ellipse class="cls-1" cx="407.91" cy="428.42" rx="85.09" ry="110.81"/>
  <ellipse cx="407.91" cy="428.42" rx="35.73" ry="40.63"/>
  <circle class="cls-3" cx="395.87" cy="412.33" r="16.08"/>
  <ellipse class="cls-1" cx="619.66" cy="442.74" rx="71.02" ry="93.13"/>
  <ellipse cx="619.66" cy="442.74" rx="29.83" ry="34.14"/>
  <ellipse class="cls-2" cx="609.61" cy="429.22" rx="13.42" ry="13.52"/>
  <path d="M597.28,286.28c6.42,2.05,13.57,4.45,20.01,6.57,24.92,8.07,47.5,22.31,66.44,40.27,3.45,3.17,6.86,6.41,10.1,9.83.2.21.19.54-.02.74-.18.17-.44.19-.64.07-8-4.98-15.52-10.63-22.92-16.27-7.38-5.56-15.2-10.5-23.32-14.83-10.16-5.42-20.78-9.85-31.78-13.24-6.46-2.08-13.63-4.35-20.04-6.48-4.3-1.56-2.28-7.92,2.17-6.66h0Z"/>
  <path d="M412.1,290.03c-8.91.45-18.33.63-27.23,1.1-17.9,1.12-35.6,5.01-52.35,11.49-8.43,3.34-16.99,6.65-25.81,9.19-.28.08-.57-.08-.65-.36-.07-.23.04-.47.23-.59,3.94-2.37,7.99-4.51,12.06-6.59,4.09-2.06,8.15-4.05,12.37-5.94,19.02-8.59,39.73-13.43,60.58-14.39,6.6-.29,13.93-.67,20.51-.9,4.57-.03,4.9,6.63.29,6.99h0Z"/>
</svg>
