<?xml version="1.0" encoding="UTF-8"?>
<svg id="Layer_2" data-name="Layer 2" xmlns="http://www.w3.org/2000/svg" viewBox="0 0 1000 1500">
  <defs>
    <style>
      .cls-1 {
        fill: none;
        stroke: #000;
        stroke-linecap: round;
        stroke-linejoin: round;
        stroke-width: 6px;
      }
    </style>
  </defs>
  <path d="M443.74,827.48c-10.21-1.72-20.94-3.92-31.16-5.62-20.52-3.25-41.49-3.47-62.08-.44-10.4,1.61-20.99,3.09-31.7,3.45-.41.01-.76-.31-.77-.72-.01-.33.2-.62.49-.73,5.04-1.86,10.15-3.36,15.28-4.77,5.16-1.37,10.24-2.68,15.52-3.78,23.81-5.08,48.66-5.57,72.67-1.36,7.57,1.33,15.99,2.72,23.51,4.13,6.39,1.39,4.76,10.75-1.76,9.84h0Z"/>
  <g>
    <path class="cls-1" d="M455.93,885.85s12.17,16.1,11.83,36.38c0,0-16.65-13.15-39.26-2.34"/>
    <path class="cls-1" d="M292.51,896.5c14.22-5.97,57.18-14.19,95.87-9.07,31.01,4.1,63.68,16.82,75.91,25.65"/>
  </g>
  <path d="M571.02,817.64c7.51-1.41,15.93-2.81,23.51-4.13,29.31-5.25,59.66-3,88.19,5.14,5.13,1.41,10.24,2.91,15.28,4.77.39.14.59.57.45.96-.11.31-.42.5-.73.49-10.71-.36-21.3-1.84-31.7-3.45-15.47-2.29-31.12-2.68-46.66-1.43-15.62,1.24-31.15,4.94-46.58,7.5-6.47.92-8.19-8.43-1.76-9.84h0Z"/>
  <g>
    <path class="cls-1" d="M560.59,885.85s-12.17,16.1-11.83,36.38c0,0,16.65-13.15,39.26-2.34"/>
    <path class="cls-1" d="M724.01,896.5c-14.22-5.97-57.18-14.19-95.87-9.07-31.01,4.1-63.68,16.82-75.91,25.65"/>
  </g>
</svg>
