<?xml version="1.0" encoding="UTF-8"?>
<svg id="Layer_2" data-name="Layer 2" xmlns="http://www.w3.org/2000/svg" viewBox="0 0 1000 1000">
  <defs>
    <style>
      .cls-1 {
        stroke: #000;
        stroke-miterlimit: 10;
        stroke-width: 6px;
      }

      .cls-1, .cls-2 {
        fill: #fff;
      }
    </style>
  </defs>
  <path d="M409.53,274.59c-19.73-6.61-42.14-6.35-60.83,3.22-19.32,9.47-33.31,29.2-37.9,50.21-.09.44-.52.72-.96.63-.43-.09-.71-.51-.64-.94,1-5.57,2.6-10.96,4.6-16.24,6.11-15.96,16.46-30.97,31.06-40.31,19.82-13.04,46.35-14.6,68-5.01,5.2,2.48,2.17,10.19-3.33,8.43h0Z"/>
  <ellipse class="cls-1" cx="399.29" cy="424.51" rx="82.98" ry="108.06"/>
  <path d="M365.13,326.04c-3.26,7.02-5.13,15.01-5.13,23.5,0,27.82,19.84,50.37,44.31,50.37s44.31-22.55,44.31-50.37c0-4.66-.6-9.16-1.64-13.44-13.49-12.36-29.93-19.65-47.68-19.65-12.18,0-23.74,3.45-34.16,9.59Z"/>
  <path class="cls-2" d="M377.31,325.28c-3.26,3.5-5.27,8.17-5.27,13.33,0,10.81,8.76,19.57,19.57,19.57s19.57-8.76,19.57-19.57c0-7.38-4.09-13.8-10.13-17.14-.59-.02-1.17-.06-1.75-.06-7.61,0-14.98,1.36-21.98,3.86Z"/>
  <path d="M587.01,267.29c22.34-9.92,49.79-7.86,69.83,6.22,13.64,9.44,23.36,23.8,29.22,39.1,2,5.28,3.6,10.67,4.6,16.24.14,1-1.34,1.37-1.6.31-1.11-5.36-3.01-10.6-5.28-15.59-11.29-25.37-35.17-41.26-62.67-42.32-10.38-.46-20.94,1.24-30.84,4.51-5.45,1.66-8.43-6-3.25-8.46h0Z"/>
  <ellipse class="cls-1" cx="600.57" cy="425.64" rx="82.98" ry="108.06"/>
  <path d="M566.41,327.17c-3.26,7.02-5.13,15.01-5.13,23.5,0,27.82,19.84,50.37,44.31,50.37,24.47,0,44.31-22.55,44.31-50.37,0-4.66-.6-9.16-1.64-13.44-13.49-12.36-29.93-19.65-47.68-19.65-12.18,0-23.74,3.45-34.16,9.59Z"/>
  <path class="cls-2" d="M578.59,326.41c-3.26,3.5-5.27,8.17-5.27,13.33,0,10.81,8.76,19.57,19.57,19.57,10.81,0,19.57-8.76,19.57-19.57,0-7.38-4.09-13.8-10.13-17.14-.59-.02-1.17-.06-1.75-.06-7.61,0-14.98,1.36-21.98,3.86Z"/>
</svg>