<svg width="183" height="184" viewBox="0 0 183 184" fill="none" xmlns="http://www.w3.org/2000/svg">
<path d="M120.257 36.0635C120.257 51.67 107.602 64.3057 91.9954 64.3057C76.3889 64.3057 63.7333 51.6502 63.7333 36.0635C63.7333 20.4768 76.3889 7.82129 91.9954 7.82129C107.602 7.82129 120.257 20.4768 120.257 36.0635Z" fill="#331520"/>
<path d="M141.904 167.832C141.904 163 136.735 157.157 136.735 157.157C136.735 157.157 127.209 145.135 120.792 140.956C113.662 136.282 105.364 133.272 96.4118 132.46C94.8076 132.321 93.1836 132.242 91.5397 132.242C80.7261 132.242 70.6848 135.45 62.2676 140.956C52.5829 147.313 41.1554 154.5 41.1553 167.832C41.1552 181.163 41.1553 182.943 41.1553 182.943H91.5397H141.904C141.904 182.943 141.904 172.663 141.904 167.832Z" fill="white"/>
<path d="M120.792 140.933C119.98 147.092 117.267 152.678 113.227 157.035C107.84 162.877 100.115 166.541 91.52 166.541C77.7752 166.541 66.209 157.134 62.9411 144.399C62.6441 143.27 62.4262 142.102 62.2678 140.933C70.6652 135.427 80.7262 132.219 91.5398 132.219C93.1837 132.219 94.8275 132.298 96.4317 132.437C96.709 132.456 96.9863 132.496 97.2635 132.516C97.4418 132.536 97.62 132.555 97.7785 132.575C97.9765 132.595 98.1548 132.615 98.3528 132.654C98.4717 132.674 98.5905 132.674 98.7093 132.694C98.8876 132.714 99.046 132.734 99.2243 132.773C99.3629 132.793 99.5015 132.813 99.6402 132.833C99.759 132.853 99.8778 132.872 99.9967 132.892C100.195 132.912 100.393 132.952 100.591 132.991C101.442 133.13 102.294 133.308 103.126 133.486L103.68 133.605C103.779 133.625 103.898 133.665 103.997 133.684C104.195 133.724 104.393 133.783 104.591 133.823C104.631 133.823 104.651 133.843 104.671 133.843C104.928 133.902 105.166 133.962 105.423 134.041C105.701 134.1 105.958 134.179 106.215 134.259C106.513 134.338 106.81 134.437 107.107 134.516C107.325 134.595 107.562 134.655 107.78 134.734C107.919 134.774 108.077 134.833 108.216 134.873C108.453 134.952 108.691 135.031 108.929 135.11C109.226 135.209 109.503 135.308 109.8 135.407C109.82 135.427 109.84 135.427 109.86 135.427C110.157 135.526 110.454 135.645 110.731 135.744C110.949 135.823 111.167 135.903 111.385 136.002C111.959 136.219 112.533 136.457 113.088 136.715L113.821 137.051C114.039 137.15 114.256 137.249 114.494 137.368C114.692 137.467 114.89 137.566 115.088 137.665C115.266 137.744 115.445 137.843 115.643 137.942C115.762 138.002 115.88 138.061 115.999 138.121C116.475 138.358 116.95 138.616 117.425 138.873C117.584 138.972 117.762 139.071 117.94 139.151C118.059 139.21 118.158 139.269 118.257 139.329L118.653 139.566L119.049 139.804L119.307 139.963C119.564 140.101 119.802 140.26 120.04 140.418C120.277 140.596 120.535 140.755 120.792 140.933Z" fill="#FFB180"/>
<path d="M101.818 120.256V140.477C101.818 145.587 97.6394 149.785 92.5098 149.785H90.5491C85.4394 149.785 81.2605 145.587 81.2605 140.477V120.256C81.2605 115.146 85.4394 110.947 90.5491 110.947H92.5098C97.6196 110.947 101.818 115.146 101.818 120.256Z" fill="#FFB180"/>
<path d="M101.818 120.256V130.951C98.7683 132.654 95.5202 133.644 92.2326 133.644C88.3508 133.644 84.6472 132.555 81.2605 130.674V120.236C81.2605 115.126 85.4394 110.928 90.5491 110.928H92.5098C97.6196 110.948 101.818 115.146 101.818 120.256Z" fill="#F49357"/>
<path d="M123.248 107.723C123.248 107.723 129.348 105.643 133.23 98.8501C137.468 91.4826 134.794 86.8878 133.962 85.8975C131.665 83.1842 128.14 84.9271 127.545 85.8975C126.971 86.868 118.534 102.177 123.248 107.723Z" fill="#FFB180"/>
<path d="M129.209 88.311C129.209 88.311 133.071 88.8062 131.724 94.2328C130.358 99.6792 126.793 101.818 121.94 104.591C117.088 107.383 124.357 89.4201 129.209 88.311Z" fill="#F49357"/>
<path d="M61.3963 107.723C61.3963 107.723 55.2963 105.643 51.4145 98.8501C47.1762 91.4826 49.8301 86.8878 50.6817 85.8975C52.9791 83.1842 56.5044 84.9271 57.0788 85.8975C57.6729 86.868 66.1099 102.177 61.3963 107.723Z" fill="#FFB180"/>
<path d="M55.415 88.311C55.415 88.311 51.553 88.8062 52.9196 94.2328C54.2862 99.6792 57.8511 101.818 62.7034 104.591C67.5556 107.383 60.2871 89.4201 55.415 88.311Z" fill="#F49357"/>
<path d="M129.209 84.7285C129.209 62.4081 112.731 44.3062 92.3911 44.3062C72.071 44.3062 55.5732 62.4081 55.5732 84.7285C55.5732 107.049 72.071 130.38 92.3911 130.38C111.503 130.38 129.209 106.851 129.209 84.7285Z" fill="#FFB180"/>
<path d="M95.7187 68.4257C95.7187 68.4257 102.651 90.7066 128.694 88.4884C128.694 88.4884 133.25 81.9131 131.705 67.6137C129.962 51.5121 115.702 37.9456 92.4113 42.7978C92.4113 42.7978 90.2723 54.265 95.7187 68.4257Z" fill="#331520"/>
<path d="M96.8872 44.3034C96.8872 44.3034 97.8577 40.0849 94.3522 36.7774C90.8665 33.47 44.5817 40.2632 55.5736 84.706C55.5736 84.706 66.3674 58.1274 94.9265 55.7904L96.8872 44.3034Z" fill="#331520"/>
</svg>
