<?xml version="1.0" encoding="UTF-8"?>
<svg id="Layer_1" data-name="Layer 1" xmlns="http://www.w3.org/2000/svg" xmlns:xlink="http://www.w3.org/1999/xlink" viewBox="0 0 1000 1500">
  <defs>
    <style>
      .cls-1 {
        fill: none;
      }

      .cls-2 {
        fill: #5bc4be;
      }

      .cls-3 {
        fill: #1cb2aa;
      }

      .cls-4 {
        clip-path: url(#clippath);
      }
    </style>
    <clipPath id="clippath">
      <rect class="cls-1" x="205.27" y="696.26" width="589.47" height="86.96"/>
    </clipPath>
  </defs>
  <path class="cls-2" d="M764.51,760.42s-444.98-6.9-530.3-8.35c0,0-29.49-16.27-15.88-53,2.71-120.22,102.02-260.42,306.12-255.21,262.65,6.71,260.71,261.68,260.71,261.68,10.27,31.64-20.64,54.88-20.64,54.88ZM764.51,760.42s-444.98-6.9-530.3-8.35c0,0-29.49-16.27-15.88-53,2.71-120.22,102.02-260.42,306.12-255.21,262.65,6.71,260.71,261.68,260.71,261.68,10.27,31.64-20.64,54.88-20.64,54.88Z"/>
  <g class="cls-4">
    <path class="cls-3" d="M218.32,699.07c293.93-8.33,566.83,6.47,566.83,6.47,20.99,38.82-.81,77.63-.81,77.63,0,0-459.84-.41-570.05-5.66,0,0-20.19-36.39,4.03-78.44ZM218.32,699.07c293.93-8.33,566.83,6.47,566.83,6.47,20.99,38.82-.81,77.63-.81,77.63,0,0-459.84-.41-570.05-5.66,0,0-20.19-36.39,4.03-78.44Z"/>
  </g>
</svg>
