<?xml version="1.0" encoding="UTF-8"?>
<svg id="Layer_1" data-name="Layer 1" xmlns="http://www.w3.org/2000/svg" viewBox="0 0 1000 1500">
  <defs>
    <style>
      .cls-1 {
        fill: #724d9f;
      }

      .cls-2 {
        fill: #412769;
      }
    </style>
  </defs>
  <path class="cls-1" d="M485.46,469.16c.19-47.32,15.83-75.51,28.35-68.67,7.08,3.88,16.83,7.24,12.08,12.49-7.45,8.26-23.43,29.34-23.61,58.52-.12,18.54-16.84,1.06-16.83-2.34Z"/>
  <path class="cls-1" d="M737.99,695.86l-13.57,27.2c-2.54,5.08-8.89,7.47-14.5,5.43-189.45-69.2-363.46-8.11-412.05,12.09-7.33,3.05-15.91-.29-18.71-7.28l-24.94-62.13s304.59-87.6,483.77,24.68Z"/>
  <path class="cls-2" d="M793.62,673.54c-26.92,40.73-62.11,35.51-62.11,35.51-175.42-129.97-473.6-28.57-473.6-28.57,0,0-26.42-4.14-51.52-31.46-33.84-36.84,35.12-130.24,129.69-168.97,77.15-31.59,184.09-26.33,256.33-4.66,84.07,25.22,249.72,124.77,201.21,198.15Z"/>
  <path class="cls-1" d="M291.11,596.65s-12.2,47.57,30.09,81.14"/>
  <path class="cls-1" d="M383.79,558s-22.99,54.42,25.15,104.32"/>
  <path class="cls-1" d="M501.33,552.34s28.7,46.55-15.64,113.9"/>
  <path class="cls-1" d="M607.34,584.34s15.79,40.9-27.17,85.49"/>
  <path class="cls-1" d="M690.77,625.6s13.19,40.74-25.83,63.29"/>
</svg>
