<?xml version="1.0" encoding="UTF-8"?>
<svg id="Layer_1" data-name="Layer 1" xmlns="http://www.w3.org/2000/svg" viewBox="0 0 1000 1500">
  <defs>
    <style>
      .cls-1 {
        stroke-dasharray: 20;
      }

      .cls-1, .cls-2, .cls-3, .cls-4 {
        stroke: #754c29;
        stroke-miterlimit: 10;
      }

      .cls-1, .cls-2, .cls-4 {
        fill: none;
        stroke-width: 7px;
      }

      .cls-3 {
        fill: #a97c50;
        stroke-width: 6px;
      }

      .cls-4 {
        stroke-dasharray: 19.58 19.58;
      }
    </style>
  </defs>
  <path class="cls-3" d="M673.67,784.85c79.71-6.73,97.33-30.68,99.41-41.23,2.09-10.55-13.33-27.83-28.01-41.23-14.68-13.4-34.13-38.8-41.51-54.18-10.99-22.9-15.71-48.59-18.01-99.97s-12.3-68.59-27.95-84.36c-39.49-39.81-275.71-39.81-315.2,0-15.65,15.77-25.66,32.98-27.95,84.36s-7.02,77.07-18.01,99.97c-7.38,15.39-26.83,40.79-41.51,54.18s-30.1,30.68-28.01,41.23,19.71,34.5,99.41,41.23c79.71,6.73,267.64,6.73,347.34,0Z"/>
  <path class="cls-2" d="M296.44,648.21s10.56,26.87,204.59,26.87,204.94-22.22,204.94-22.22"/>
  <path class="cls-2" d="M342.4,463.88s108.66,8.62,159.3,8.62,155.9-8.62,155.9-8.62"/>
  <g>
    <path class="cls-2" d="M289.08,660.93s.74,2.62,7.6,6.26"/>
    <path class="cls-4" d="M315,674.01c26.39,7.32,79.49,14.99,186.16,14.99,119.73,0,171.18-9.41,193.25-17.19"/>
    <path class="cls-2" d="M703.43,667.98c6.96-3.67,7.51-6.33,7.51-6.33"/>
  </g>
  <path class="cls-1" d="M279.7,674.46s28.59,33,223.26,33,217.19-34.16,217.19-34.16"/>
  <path class="cls-1" d="M267.87,688.34s33.82,34.51,233.11,34.51,229.37-35.16,229.37-35.16"/>
  <path class="cls-1" d="M254.93,702.4s47.52,35.35,248.33,35.35,241.81-35.35,241.81-35.35"/>
  <path class="cls-1" d="M243.4,712.84s6.54,42.09,257.93,42.09,254.69-42.79,254.69-42.79"/>
  <path class="cls-1" d="M230.41,729.58s12.62,40.36,271.23,40.36,268.2-39.03,268.2-39.03"/>
</svg>
