<?xml version="1.0" encoding="UTF-8"?>
<svg id="Layer_1" data-name="Layer 1" xmlns="http://www.w3.org/2000/svg" viewBox="0 0 1000 1500">
  <defs>
    <style>
      .cls-1, .cls-2, .cls-3 {
        fill: none;
      }

      .cls-4 {
        stroke: #bcbec0;
      }

      .cls-4, .cls-5 {
        fill: #fff;
      }

      .cls-4, .cls-2, .cls-3 {
        stroke-miterlimit: 10;
      }

      .cls-4, .cls-3 {
        stroke-width: 6px;
      }

      .cls-6 {
        fill: #f26b6c;
      }

      .cls-2 {
        stroke: #000;
      }

      .cls-3 {
        stroke: #d1d3d4;
        stroke-linecap: round;
      }
    </style>
  </defs>
  <path class="cls-4" d="M461.64,683.5c28.93-307.53-109.24-347-145.37-354.88-4.91-1.07-9.89,1.42-12,5.99-72.51,156.46,85.44,348.89,85.44,348.89h71.94Z"/>
  <path class="cls-5" d="M779.2,550.41c-17.08,23.43-52.4,32.3-92.97,22.62-5-1.19-10.13,1.39-12.04,6.16-26,64.92-49.72,94.76-59.08,104.31-1.95,1.99-9.52-1.61-12.3-1.61h-69.71c-5.09,0-9,3.44-9.8-1.58-20.45-128.13,33.1-231.81,33.1-231.81,0,0,29.21-54.11,84.15-54.11s85.01,56,97.89,85.9c11.32,26.29,30.23,47.37,39.69,56.91,3.52,3.55,4.02,9.17,1.08,13.21Z"/>
  <ellipse class="cls-6" cx="382.75" cy="535.93" rx="37.42" ry="141.57" transform="translate(-146.19 143.57) rotate(-17.9)"/>
  <g>
    <path class="cls-1" d="M642.22,547.92c-20.93,71.96-52.62,125.06-71.94,119.71-19.92-5.52-19.15-71.07,1.72-146.42,5.43-19.6,11.68-37.92,18.31-54.22-7.57-8.56-12.98-8.26-12.98-8.26,0,0,5.4-.3,12.98,8.26,17.38-42.73,37.37-71.49,51.94-72.56-.57-.02-1.14-.04-1.71-.04-54.94,0-84.15,54.11-84.15,54.11,0,0-56.01,108.43-31.59,240.55h82.58s37.57-32.79,70.13-118.36c-13.49-4.03-25.2-12.45-35.28-22.77Z"/>
    <path class="cls-1" d="M738.43,480.29s-40.58-81.16-93.31-85.7c.25.05.49.1.73.17,19.92,5.52,19.15,71.07-1.72,146.42-.63,2.26-1.27,4.51-1.91,6.74,10.08,10.33,21.79,18.74,35.28,22.77,48.45,14.48,90.9,3,106.38-27.97,0,0-31.96-25.47-45.45-62.43Z"/>
    <path class="cls-2" d="M642.25,394.43c.96.03,1.92.08,2.87.17-.93-.18-1.89-.24-2.87-.17Z"/>
    <path class="cls-6" d="M590.31,466.99c-6.63,16.3-12.88,34.62-18.31,54.22-20.87,75.35-21.63,140.9-1.72,146.42,19.32,5.35,51.01-47.75,71.94-119.71-26.11-26.76-41.28-66.39-48.13-76.12-1.31-1.86-2.57-3.44-3.78-4.81Z"/>
  </g>
  <path class="cls-3" d="M677.5,570.69c-32.56,85.57-62.39,112.81-62.39,112.81h-91.29c-24.41-132.12,32.58-235,32.58-235,0,0,29.21-54.11,84.15-54.11s85.01,56,97.89,85.9c10.62,24.65,27.9,44.72,37.81,54.99,4.76,4.93,5.14,12.7.74,17.96-19.12,22.87-57,30.15-99.49,17.44-48.45-14.48-73.92-85.4-83.41-98.89-9.49-13.48-16.76-13.08-16.76-13.08"/>
</svg>
