<?xml version="1.0" encoding="UTF-8"?>
<svg id="Layer_1" data-name="Layer 1" xmlns="http://www.w3.org/2000/svg" viewBox="0 0 1000 1500">
  <defs>
    <style>
      .cls-1 {
        fill: #d9ac2a;
      }
    </style>
  </defs>
  <path class="cls-1" d="M693.72,533.7c-10.08,0-18.27,8.18-18.27,18.27,0,6.76,3.68,12.64,9.13,15.81-19.23,29.86-42.32,46.63-60.74,40.75-18.75-5.99-27.85-33.87-25.82-70.27.9.13,1.8.23,2.74.23,10.08,0,18.27-8.18,18.27-18.27s-8.18-18.27-18.27-18.27-18.27,8.18-18.27,18.27c0,7.67,4.73,14.22,11.42,16.94-15.28,34.73-34.82,55.98-52.47,53.03-25.06-4.19-37.85-65.85-38.54-128.8,8.7-1.4,15.35-8.92,15.35-18.02,0-10.08-8.18-18.27-18.27-18.27s-18.27,8.18-18.27,18.27c0,9.1,6.65,16.62,15.35,18.02-.68,62.96-13.47,124.62-38.53,128.8-17.65,2.95-37.2-18.29-52.47-53.03,6.69-2.72,11.41-9.27,11.41-16.94,0-10.08-8.18-18.27-18.26-18.27s-18.27,8.18-18.27,18.27,8.18,18.27,18.27,18.27c.93,0,1.85-.1,2.74-.23,2.03,36.4-7.08,64.28-25.82,70.27-18.42,5.88-41.51-10.89-60.74-40.75,5.45-3.17,9.13-9.05,9.13-15.81,0-10.08-8.18-18.27-18.27-18.27s-18.27,8.18-18.27,18.27,8.18,18.27,18.27,18.27c2.28,0,4.46-.44,6.47-1.2l49.83,130.97c43.98,18.27,230.85,18.27,274.83,0l49.83-130.97c2.01.76,4.19,1.2,6.47,1.2,10.09,0,18.27-8.18,18.27-18.27s-8.18-18.27-18.27-18.27"/>
</svg>
