<?xml version="1.0" encoding="UTF-8"?>
<svg id="Layer_1" data-name="Layer 1" xmlns="http://www.w3.org/2000/svg" xmlns:xlink="http://www.w3.org/1999/xlink" viewBox="0 0 1000 1500">
  <defs>
    <style>
      .cls-1 {
        fill: none;
      }

      .cls-2 {
        fill: #d9ac2a;
      }

      .cls-3 {
        fill: #fff;
      }

      .cls-4 {
        clip-path: url(#clippath);
      }
    </style>
    <clipPath id="clippath">
      <rect class="cls-1" x="585.5" y="583.98" width="250.99" height="257.46"/>
    </clipPath>
  </defs>
  <g class="cls-4">
    <path class="cls-3" d="M836.5,743.21c-.05,11.21-7.65,21.21-15.57,26.55-17.11,11.52-44.64,7.3-65.48-13.27,21.57,24.49,24.42,54.59,10.99,71.4-6.79,8.51-18.31,14.31-29.29,13.47-22.74-1.76-44.91-32.18-47.64-76.64-9.3,35.92-38.14,55.79-61.36,51.27-13.15-2.56-25.09-13-29.31-25.63-7.4-22.13,8.2-52.78,41.81-67.93-29.16,1.52-51.13-12.02-54.64-28.65-2.91-13.8,7.68-25.91,9.17-27.57,14.89-16.53,44.9-18.98,75.03-5.56-8.66-33.71,1.26-63.5,20.67-73.07,8.57-4.22,20.73-5.36,30.68,0,16.18,8.71,24.07,33.29,15.41,59.51,26.3-18.27,54.41-22.61,70.3-10.62,1.55,1.17,9.15,6.9,10.92,16.57,2.96,16.15-11.69,35.88-38.01,47.15,34.11,2.96,56.4,23.73,56.32,43.03"/>
  </g>
  <path class="cls-2" d="M742.53,718.12c-2,14.14-16.32,26.54-31.73,26.22-20.71-.43-35.44-23.64-30.67-41.96,2.47-9.47,10.27-18.1,20.09-20.63,19.74-5.07,45.31,15.11,42.31,36.38"/>
</svg>
