<?xml version="1.0" encoding="UTF-8"?>
<svg id="Layer_1" data-name="Layer 1" xmlns="http://www.w3.org/2000/svg" viewBox="0 0 1000 1500">
  <defs>
    <style>
      .cls-1 {
        fill: none;
        stroke: #231f20;
        stroke-miterlimit: 10;
      }

      .cls-2 {
        fill: #b296c7;
      }
    </style>
  </defs>
  <path d="M796.12,692.23c0,52.72-132.58,95.46-296.12,95.46s-296.12-42.74-296.12-95.46c0-25.67,31.42-48.97,82.53-66.12.52-11.29,9.47-172.1,98.07-197.11,0,0,27.35-11.4,54.93-4.61,27.59,6.79,36.98,10.17,55.37,10.17h9.15c18.39,0,27.79-3.39,55.37-10.17,27.59-6.79,54.93,4.61,54.93,4.61,87.63,24.73,97.35,182.27,98.05,196.68,51.88,17.19,83.83,40.67,83.83,66.55Z"/>
  <path class="cls-1" d="M286.41,626.12c-.02.41-.02.62-.02.62"/>
  <path class="cls-1" d="M712.34,626.74s-.02-.36-.05-1.06"/>
  <path class="cls-2" d="M702.42,622.96v51.75c-29.19,26.75-108.38,45.93-201.49,45.93s-175.8-20.04-203.35-47.72v-51.75c1.65,1.67,3.5,3.3,5.53,4.9,31.76,25.12,108.37,42.82,197.82,42.82s166.07-17.71,197.82-42.82c1.3-1.03,2.52-2.06,3.66-3.11Z"/>
</svg>
