<?xml version="1.0" encoding="UTF-8"?>
<svg id="Layer_1" data-name="Layer 1" xmlns="http://www.w3.org/2000/svg" xmlns:xlink="http://www.w3.org/1999/xlink" viewBox="0 0 1000 1500">
  <defs>
    <style>
      .cls-1 {
        fill: none;
      }

      .cls-2 {
        fill: #b296c7;
      }

      .cls-3 {
        fill: #070808;
      }

      .cls-4 {
        clip-path: url(#clippath);
      }
    </style>
    <clipPath id="clippath">
      <rect class="cls-1" x="134.03" y="385.57" width="731.94" height="367.67"/>
    </clipPath>
  </defs>
  <g class="cls-4">
    <path class="cls-3" d="M858.94,636.07c-1.27,2.47-2.73,5.01-4.38,7.61-.26.41-.52.83-.79,1.25-3.51,5.36-7.85,10.99-13.14,16.86-77.63,86.14-309.61,91.43-340.63,91.43s-263-5.29-340.62-91.43c-5.25-5.81-9.57-11.4-13.04-16.73-.31-.46-.6-.92-.89-1.36-1.66-2.59-3.1-5.13-4.37-7.61-33.99-66.53,65.83-88.35,68.95-40.19,3.17,49,79.91-26.41,121.84-117.39,27.96-60.67,93.38-84.09,133.88-92.96,3.88,15.62,13.35,40.32,34.26,40.32s30.38-24.7,34.26-40.32c40.5,8.87,105.93,32.29,133.88,92.96,41.92,90.99,118.66,166.39,121.84,117.39,3.12-48.15,102.92-26.35,68.96,40.17"/>
  </g>
  <path class="cls-2" d="M858.94,636.07c-1.27,2.47-2.73,5.01-4.38,7.61-.26.41-.52.83-.79,1.25-.32-1.55-.65-2.89-.74-3.67-2.59-22.59-12.14-36.74-12.83-37.73-.04-.05-.07-.1-.09-.16-.03-.03-.07-.06-.08-.1-3.59-6.01-12.11-9.15-18.68-9.15-1.51,0-2.89.15-4.07.45-2.95.71-2.97,1.13-3.1,2.89-1.96,30.18-22.7,36.33-29.02,37.51-2.16.4-4.41.6-6.64.6-10.55,0-21.75-4.41-34.24-13.49-10.53-7.65-21.92-18.54-33.82-32.34-24.18-28-47.64-64.85-64.33-101.09-19.54-42.44-62.72-63.63-96.56-74.04-11.16,22.91-28.66,35.49-49.56,35.49s-38.38-12.58-49.54-35.49c-33.84,10.41-77.02,31.6-96.57,74.04-16.72,36.26-40.17,73.11-64.33,101.09-11.9,13.8-23.28,24.69-33.82,32.34-12.49,9.08-23.69,13.49-34.24,13.49-2.23,0-4.47-.2-6.63-.6-6.32-1.18-27.05-7.33-29.02-37.51-.12-1.77-.14-2.19-3.08-2.89-1.2-.3-2.58-.45-4.09-.45-6.57,0-15.09,3.14-18.68,9.15-.01.04-.05.07-.07.09-.05.08-.09.16-.14.23-.96,1.4-10.24,15.44-12.8,37.67-.09.78-.35,2.06-.65,3.8-.31-.46-.6-.92-.89-1.36-1.66-2.59-3.1-5.13-4.37-7.61,3.38-21.42,12.22-34.65,13.39-36.32h0c5.09-8.38,16.1-12.2,24.21-12.2,2.03,0,3.93.2,5.64.62,7.62,1.83,7.91,6.39,8.07,8.83,1.65,25.46,18.54,30.55,23.67,31.49,10.6,1.97,22.22-1.85,35.83-11.74,10.14-7.36,21.15-17.9,32.71-31.32,23.78-27.55,46.86-63.84,63.34-99.58,21.1-45.79,67.86-67.91,103.36-78.39,1.58-.46,3.24.3,3.9,1.79,9.97,22.08,25.88,34.24,44.8,34.24s34.85-12.16,44.82-34.24c.67-1.49,2.33-2.25,3.9-1.79,35.51,10.48,82.26,32.6,103.37,78.39,16.43,35.72,39.52,72.01,63.32,99.58,11.57,13.42,22.58,23.96,32.7,31.32,13.62,9.89,25.26,13.71,35.84,11.74,5.13-.94,22.02-6.04,23.68-31.49.16-2.44.44-7,8.08-8.83,1.69-.42,3.59-.62,5.62-.62,8.09,0,19.06,3.8,24.17,12.13t.01.03c1.07,1.51,10.01,14.78,13.42,36.33"/>
  <path class="cls-2" d="M539.28,641.53c2.72.6,4.49,3.18,3.95,5.76s-3.18,4.18-5.89,3.59c-.45-.1-.88-.25-1.28-.45.39.2.77.45,1.13.76,2.11,1.86,2.48,4.99.81,7-1.66,2.01-4.72,2.13-6.83.27-.72-.63-1.24-1.41-1.54-2.24-.68-1.85-1.87-3.46-3.48-4.54-.86-.58-1.92-1.26-3.27-2.08-6.32-3.89-24.78-13.34-24.78-13.34,0,0-18.51-9.36-25.35-12.16-1.45-.59-2.63-1.05-3.59-1.41-1.81-.66-3.78-.66-5.62-.08-.83.26-1.75.31-2.67.1-2.72-.6-4.48-3.17-3.95-5.75.54-2.59,3.17-4.19,5.89-3.59.45.1.88.25,1.27.45-.39-.2-.77-.45-1.12-.76-2.12-1.86-2.49-4.99-.83-7,1.66-2.01,4.73-2.13,6.84-.28.72.64,1.24,1.41,1.54,2.25.68,1.85,1.87,3.46,3.48,4.54.86.58,1.92,1.26,3.27,2.08,6.32,3.89,24.78,13.34,24.78,13.34,0,0,18.51,9.36,25.36,12.16,1.45.6,2.62,1.05,3.59,1.41,1.81.66,3.78.66,5.62.08.82-.25,1.74-.31,2.66-.1"/>
  <path class="cls-2" d="M460.72,641.53c-2.72.6-4.48,3.18-3.95,5.76.54,2.58,3.18,4.18,5.89,3.59.45-.1.88-.25,1.27-.45-.39.2-.77.45-1.12.76-2.11,1.86-2.48,4.99-.82,7,1.66,2.01,4.73,2.13,6.84.27.72-.63,1.24-1.41,1.54-2.24.67-1.85,1.87-3.46,3.48-4.54.86-.58,1.92-1.26,3.26-2.08,6.32-3.89,24.79-13.34,24.79-13.34,0,0,18.51-9.36,25.35-12.16,1.45-.59,2.63-1.05,3.59-1.41,1.81-.66,3.78-.66,5.62-.08.83.26,1.74.31,2.67.1,2.72-.6,4.48-3.17,3.95-5.75-.54-2.59-3.17-4.19-5.89-3.59-.45.1-.88.25-1.27.45.39-.2.77-.45,1.12-.76,2.12-1.86,2.49-4.99.83-7-1.66-2.01-4.73-2.13-6.84-.28-.72.64-1.24,1.41-1.54,2.25-.68,1.85-1.87,3.46-3.48,4.54-.86.58-1.92,1.26-3.27,2.08-6.32,3.89-24.78,13.34-24.78,13.34,0,0-18.51,9.36-25.36,12.16-1.45.6-2.62,1.05-3.59,1.41-1.81.66-3.78.66-5.62.08-.82-.25-1.74-.31-2.66-.1"/>
  <path class="cls-2" d="M514.41,579.82c-4.16,0-7.53-3.72-7.53-8.31s3.37-8.3,7.53-8.3,7.54,3.72,7.54,8.3-3.37,8.31-7.54,8.31ZM501.74,592.62c-1,.38-2.11.38-3.11,0-7.46-2.87-1.21-12.2.91-15.05.33-.43.96-.43,1.29,0,2.13,2.85,8.37,12.18.91,15.05ZM485.97,579.82c-4.16,0-7.53-3.72-7.53-8.31s3.37-8.3,7.53-8.3,7.53,3.72,7.53,8.3-3.37,8.31-7.53,8.31ZM532.13,582.55c-2.49-8.49-2.85-12.97-3.33-19.29-.48-6.31-.65-32.48-28.62-32.48s-28.14,26.17-28.62,32.48c-.48,6.32-.84,10.79-3.33,19.29-2.49,8.5,4.05,14.47,10.23,16.08,6.18,1.6,5.95,9.76,7.97,11.93.5.54,1.62.92,3,1.18.47.1.96-.15,1.17-.58.08-.17.14-.37.19-.6.29-1.64.89-1.6,1.36-1.6s1.07-.04,1.37,1.6c.29,1.63,1.81,1.69,1.81,1.69v.02c.58.01,1.15.02,1.66.02v-.04s1.53-.06,1.83-1.69c.29-1.64.89-1.6,1.36-1.6s1.07-.04,1.36,1.6c.3,1.63,1.81,1.69,1.81,1.69v.04c.53,0,1.09,0,1.67-.02v-.02s1.51-.06,1.81-1.69c.3-1.64.89-1.6,1.37-1.6s1.07-.04,1.36,1.6c.04.23.11.43.19.6.21.43.69.68,1.17.59,1.39-.26,2.5-.64,3-1.19,2.02-2.17,1.79-10.33,7.97-11.93,6.18-1.61,12.72-7.58,10.22-16.08"/>
</svg>
