<?xml version="1.0" encoding="UTF-8"?>
<svg id="Layer_1" data-name="Layer 1" xmlns="http://www.w3.org/2000/svg" viewBox="0 0 1000 1500">
  <defs>
    <style>
      .cls-1 {
        fill: #c49a6c;
      }

      .cls-2 {
        fill: #3c2415;
      }

      .cls-3 {
        fill: #a97c50;
      }

      .cls-4 {
        fill: #dbb829;
      }
    </style>
  </defs>
  <path class="cls-3" d="M505.8,653.66c119.26,0,185.6-56.85,185.6-56.85,0,0,86.45-51.4,101.78-91.86,15.33-40.46,39.48-22.19,39.48-22.19,0,0,38.44,31.91,10.83,111.2-27.61,79.3-162.66,139.21-337.69,139.21h-11.6c-175.03,0-310.08-59.91-337.69-139.21-27.61-79.3,10.83-111.2,10.83-111.2,0,0,24.14-18.27,39.48,22.19,15.33,40.46,101.78,91.86,101.78,91.86,0,0,66.33,56.85,185.6,56.85"/>
  <path class="cls-3" d="M563.99,396.11s-21.67-23.47-65.24-23.47-65.24,23.47-65.24,23.47v24.74h130.49v-24.74Z"/>
  <path class="cls-1" d="M700.21,619.17s-44.64-226-93.33-229.88c-48.68-3.88-52.96,24.13-103.6,24.13h-9.08c-50.64,0-54.92-28-103.6-24.13-34.47,2.75-93.33,229.88-93.33,229.88,0,0,39.82,45.8,201.47,45.8s201.47-45.8,201.47-45.8Z"/>
  <path class="cls-2" d="M310.14,572.71s51.88,36.16,188.6,36.16,191.1-36.16,191.1-36.16l10.36,46.46s-31.16,45.8-201.47,45.8-201.47-45.8-201.47-45.8l12.87-46.46Z"/>
  <g>
    <polygon class="cls-4" points="562.27 595.09 520.7 596.43 498.74 631.77 476.79 596.43 435.21 595.09 454.84 558.41 435.21 521.73 476.79 520.38 498.74 485.05 520.7 520.38 562.27 521.73 542.65 558.41 562.27 595.09"/>
    <circle class="cls-4" cx="562.27" cy="595.09" r="6.4"/>
    <circle class="cls-4" cx="498.74" cy="631.77" r="6.4"/>
    <circle class="cls-4" cx="435.21" cy="595.09" r="6.4"/>
    <circle class="cls-4" cx="435.21" cy="521.73" r="6.4"/>
    <circle class="cls-4" cx="498.74" cy="485.05" r="6.4"/>
    <circle class="cls-4" cx="562.27" cy="521.73" r="6.4"/>
  </g>
</svg>
