<?xml version="1.0" encoding="UTF-8"?>
<svg id="Layer_1" data-name="Layer 1" xmlns="http://www.w3.org/2000/svg" xmlns:xlink="http://www.w3.org/1999/xlink" viewBox="0 0 1000 1500">
  <defs>
    <style>
      .cls-1 {
        fill: none;
      }

      .cls-2 {
        fill: #f8c015;
      }

      .cls-3 {
        clip-path: url(#clippath-1);
      }

      .cls-4 {
        clip-path: url(#clippath-3);
      }

      .cls-5 {
        clip-path: url(#clippath-2);
      }

      .cls-6 {
        fill: #e71a4d;
      }

      .cls-7 {
        fill: #f49c1e;
      }

      .cls-8 {
        fill: #3faf49;
      }

      .cls-9 {
        fill: #e2e554;
      }

      .cls-10 {
        clip-path: url(#clippath);
      }
    </style>
    <clipPath id="clippath">
      <rect class="cls-1" x="326.94" y="370.24" width="346.72" height="249.86"/>
    </clipPath>
    <clipPath id="clippath-1">
      <rect class="cls-1" x="41.74" y="460.34" width="916.52" height="265.14"/>
    </clipPath>
    <clipPath id="clippath-2">
      <rect class="cls-1" x="41.93" y="530.03" width="916.13" height="279.99"/>
    </clipPath>
    <clipPath id="clippath-3">
      <rect class="cls-1" x="126.38" y="433.15" width="811.53" height="376.87"/>
    </clipPath>
  </defs>
  <g class="cls-10">
    <path class="cls-7" d="M672.37,618.89h-344.75l61.57-170.82c16.84-46.69,61.15-77.81,110.81-77.81s93.96,31.12,110.8,77.81l61.57,170.82"/>
  </g>
  <g class="cls-3">
    <path class="cls-2" d="M615.38,460.79h-230.77l-21.03,58.33h272.82l-21.03-58.33ZM958.07,614.09v76.21c0,19.41-15.74,35.15-35.16,35.15H77.09c-19.42,0-35.15-15.73-35.15-35.15v-76.21h916.13"/>
  </g>
  <path class="cls-9" d="M620.01,473.63c-7.18,1.96-12.47,8.51-12.47,16.32,0,9.34,7.58,16.92,16.94,16.92,2.49,0,4.85-.55,6.98-1.52l-11.44-31.72ZM574.68,473.02c-9.35,0-16.94,7.58-16.94,16.93s7.58,16.92,16.94,16.92,16.93-7.58,16.93-16.92-7.58-16.93-16.93-16.93ZM524.89,473.02c-9.35,0-16.92,7.58-16.92,16.93s7.58,16.92,16.92,16.92,16.94-7.58,16.94-16.92-7.58-16.93-16.94-16.93ZM475.1,473.02c-9.35,0-16.93,7.58-16.93,16.93s7.58,16.92,16.93,16.92,16.93-7.58,16.93-16.92-7.58-16.93-16.93-16.93ZM425.31,473.02c-9.35,0-16.92,7.58-16.92,16.93s7.58,16.92,16.92,16.92,16.94-7.58,16.94-16.92-7.58-16.93-16.94-16.93ZM392.46,489.95c0,9.34-7.58,16.92-16.94,16.92-2.49,0-4.84-.55-6.98-1.52l11.44-31.72c7.18,1.96,12.47,8.51,12.47,16.32"/>
  <g class="cls-5">
    <path class="cls-6" d="M472.76,771.53l.12-46.07-9.71-.03-.11,46.08c-8.49,2.14-14.78,9.81-14.78,18.96,0,10.82,8.76,19.58,19.59,19.58s19.59-8.76,19.59-19.58c0-9.12-6.24-16.76-14.69-18.93ZM601.33,771.53l.11-46.07-9.71-.03-.11,46.08c-8.49,2.14-14.79,9.81-14.79,18.96,0,10.82,8.77,19.58,19.59,19.58s19.59-8.76,19.59-19.58c0-9.12-6.24-16.76-14.68-18.93ZM729.88,771.53l.12-46.07-9.71-.03-.12,46.08c-8.49,2.14-14.79,9.81-14.79,18.96,0,10.82,8.77,19.58,19.59,19.58s19.59-8.76,19.59-19.58c0-9.12-6.25-16.76-14.69-18.93ZM858.44,771.53l.12-46.07-9.71-.03-.13,46.08c-8.48,2.14-14.78,9.81-14.78,18.96,0,10.82,8.78,19.58,19.59,19.58s19.58-8.76,19.58-19.58c0-9.12-6.24-16.76-14.68-18.93ZM640.59,530.7h-281.18l-7.02,19.49h295.22l-7.02-19.49ZM87.08,771.53l.11-46.07-9.71-.03-.11,46.08c-8.48,2.14-14.78,9.81-14.78,18.96,0,10.82,8.77,19.58,19.59,19.58s19.59-8.76,19.59-19.58c0-9.12-6.25-16.76-14.69-18.93ZM344.2,771.53l.11-46.07-9.71-.03-.11,46.08c-8.49,2.14-14.78,9.81-14.78,18.96,0,10.82,8.76,19.58,19.58,19.58s19.59-8.76,19.59-19.58c0-9.12-6.25-16.76-14.69-18.93ZM215.64,771.53l.11-46.07-9.71-.03-.11,46.08c-8.49,2.14-14.78,9.81-14.78,18.96,0,10.82,8.76,19.58,19.58,19.58s19.59-8.76,19.59-19.58c0-9.12-6.25-16.76-14.69-18.93ZM914.71,657.17l-29.7,29.77-29.71-29.77-29.7,29.77-29.71-29.77-29.7,29.77-29.71-29.77-29.7,29.77-29.7-29.77-29.71,29.77-29.7-29.77-29.7,29.77-29.71-29.77-29.7,29.77-29.71-29.77-29.7,29.77-29.71-29.77-29.7,29.77-29.7-29.77-29.71,29.77-29.7-29.77-29.71,29.77-29.7-29.77-29.7,29.77-29.71-29.77-29.7,29.77-29.71-29.77-29.7,29.77-29.7-29.77-29.71,29.77-11.31-11.35v14.71c0,4.42.85,8.62,2.33,12.51l8.98,9,29.71-29.77,29.7,29.77,29.7-29.77,29.71,29.77,29.7-29.77,29.71,29.77,29.7-29.77,29.7,29.77,29.71-29.77,29.7,29.77,29.71-29.77,29.7,29.77,29.7-29.77,29.71,29.77,29.7-29.77,29.71,29.77,29.7-29.77,29.71,29.77,29.7-29.77,29.7,29.77,29.71-29.77,29.7,29.77,29.7-29.77,29.71,29.77,29.7-29.77,29.71,29.77,29.7-29.77,29.71,29.77,29.7-29.77,29.7,29.77,12.42-12.44c.78-2.9,1.23-5.94,1.23-9.08v-17.04l-13.65,13.68-29.7-29.77ZM958.07,614.09v18.63H41.93v-18.63h916.13"/>
  </g>
  <g class="cls-4">
    <path class="cls-8" d="M922.72,771.53l.12-46.07-9.71-.03-.13,46.08c-8.48,2.14-14.77,9.81-14.77,18.96,0,10.82,8.77,19.58,19.59,19.58s19.59-8.76,19.59-19.58c0-9.12-6.25-16.76-14.69-18.93ZM794.16,771.53l.12-46.07-9.71-.03-.13,46.08c-8.48,2.14-14.78,9.81-14.78,18.96,0,10.82,8.78,19.58,19.59,19.58s19.58-8.76,19.58-19.58c0-9.12-6.24-16.76-14.68-18.93ZM665.6,771.53l.12-46.07-9.71-.03-.11,46.08c-8.49,2.14-14.79,9.81-14.79,18.96,0,10.82,8.77,19.58,19.59,19.58s19.59-8.76,19.59-19.58c0-9.12-6.24-16.76-14.69-18.93ZM537.04,771.53l.12-46.07-9.71-.03-.11,46.08c-8.49,2.14-14.78,9.81-14.78,18.96,0,10.82,8.76,19.58,19.58,19.58s19.59-8.76,19.59-19.58c0-9.12-6.24-16.76-14.69-18.93ZM408.48,771.53l.12-46.07-9.71-.03-.11,46.08c-8.49,2.14-14.78,9.81-14.78,18.96,0,10.82,8.76,19.58,19.58,19.58s19.59-8.76,19.59-19.58c0-9.12-6.25-16.76-14.69-18.93ZM279.92,771.53l.11-46.07-9.71-.03-.11,46.08c-8.49,2.14-14.78,9.81-14.78,18.96,0,10.82,8.76,19.58,19.58,19.58s19.59-8.76,19.59-19.58c0-9.12-6.25-16.76-14.69-18.93ZM151.36,771.53l.11-46.07-9.71-.03-.11,46.08c-8.5,2.14-14.78,9.81-14.78,18.96,0,10.82,8.77,19.58,19.58,19.58s19.59-8.76,19.59-19.58c0-9.12-6.25-16.76-14.69-18.93ZM610.8,448.07l1.78,4.95h-225.17l1.78-4.95c1.82-5.03,3.98-9.88,6.4-14.54h208.81c2.43,4.66,4.58,9.51,6.4,14.54"/>
  </g>
</svg>
