<?xml version="1.0" encoding="UTF-8"?>
<svg id="Layer_1" data-name="Layer 1" xmlns="http://www.w3.org/2000/svg" viewBox="0 0 1000 1500">
  <defs>
    <style>
      .cls-1 {
        fill: #b296c7;
      }
    </style>
  </defs>
  <ellipse cx="500" cy="676.38" rx="254.51" ry="83.3"/>
  <path d="M500.64,684.33c100.05,0,147.97-25.4,147.97-25.4-13.22-144.54,42.92-309.57,42.92-309.57,0,0-53.06-58.91-191.53-58.91-138.47,0-191.53,58.91-191.53,58.91,0,0,56.14,165.03,42.92,309.57,0,0,47.92,25.4,147.97,25.4h1.28Z"/>
  <path class="cls-1" d="M646.83,628.99s-46.74,16.88-146.83,16.88-146.83-16.88-146.83-16.88c0,0-.76,25.3-1.78,29.94,0,0,51.47,25.4,149.25,25.4s147.97-25.4,147.97-25.4c0,0-1.64-24.36-1.78-29.94Z"/>
</svg>
