<?xml version="1.0" encoding="UTF-8"?>
<svg id="Layer_1" data-name="Layer 1" xmlns="http://www.w3.org/2000/svg" xmlns:xlink="http://www.w3.org/1999/xlink" viewBox="0 0 1000 1500">
  <defs>
    <style>
      .cls-1 {
        fill: none;
      }

      .cls-2 {
        fill: #b296c7;
      }

      .cls-3 {
        fill: #412769;
      }

      .cls-4 {
        fill: #d9ac2a;
      }

      .cls-5 {
        clip-path: url(#clippath);
      }
    </style>
    <clipPath id="clippath">
      <rect class="cls-1" x="345.39" y="160.26" width="309.11" height="517.33"/>
    </clipPath>
  </defs>
  <path class="cls-3" d="M598.35,763.19c-160.83,14.07-335.25-8.75-389.57-50.96-54.31-42.21,32.05-87.82,192.89-101.89,160.84-14.07,335.23,8.74,389.54,50.95,54.32,42.21-32.03,87.82-192.86,101.9Z"/>
  <path class="cls-2" d="M653.55,635.99v40.16h-.03c.41,16.88-40.03,32.62-104.39,38.25-80.33,7.03-167.44-4.36-194.57-25.45-5.46-4.25-8.04-8.57-8.07-12.81h-.03v-40.16h.03c.11,4.19,2.68,8.44,8.07,12.63,27.13,21.08,114.24,32.47,194.57,25.45,64.14-5.61,104.51-21.27,104.39-38.08h.03Z"/>
  <g class="cls-5">
    <path class="cls-3" d="M653.55,629.87v6.13h-.03c.12,16.81-40.25,32.47-104.39,38.08-80.33,7.03-167.44-4.37-194.57-25.45-5.39-4.19-7.96-8.44-8.07-12.63h-.03v-6.13c0-84.78,153.54-469.4,153.54-469.4,0,0,153.54,384.62,153.54,469.4Z"/>
  </g>
  <path class="cls-4" d="M426.99,567.88l12.45,25.22,27.84,4.05-20.15,19.63,4.76,27.72-24.9-13.09-24.9,13.09,4.76-27.72-20.15-19.63,27.84-4.05,12.45-25.22ZM541.76,485.86l-27.84,4.05,20.15,19.63-4.76,27.72,24.9-13.09,24.9,13.09-4.76-27.72,20.15-19.63-27.84-4.05-12.45-25.22-12.45,25.22ZM632.88,532l-1.71,3.46-19.39,2.81,14.03,13.67-3.31,19.31,17.34-9.12,1.65.86c-2.54-9.77-5.44-20.15-8.6-31.01ZM570.21,345.22l-4.97-.72-8.15-16.5-8.14,16.5-18.23,2.65,13.18,12.85-3.11,18.14,16.29-8.57,16.3,8.57-3.12-18.14,3.92-3.81c-1.33-3.68-2.66-7.33-3.98-10.97ZM491.85,268.86l-18.22,2.65,13.18,12.84-3.12,18.14,16.3-8.57,16.29,8.57-3.11-18.14,13.18-12.84-18.22-2.65-8.15-16.5-8.15,16.5ZM424.3,507.9c0-17.28,11.49-31.88,27.25-36.58-3.46-1.03-7.14-1.6-10.94-1.6-21.09,0-38.18,17.09-38.18,38.17s17.09,38.18,38.18,38.18c3.8,0,7.48-.57,10.94-1.6-15.76-4.7-27.25-19.29-27.25-36.57ZM585.87,623.7c-13.79-10.42-18.5-28.39-12.74-43.79-2.91,2.14-5.58,4.72-7.87,7.76-12.72,16.81-9.41,40.76,7.41,53.48,16.82,12.72,40.77,9.4,53.49-7.41,2.29-3.03,4.06-6.29,5.33-9.68-13.26,9.73-31.84,10.08-45.62-.35ZM409.95,413.55c21.09,0,38.19-17.09,38.19-38.18,0-13.51-7.04-25.35-17.63-32.13-2.24,6.16-4.49,12.37-6.74,18.63,1.6,4.2,2.5,8.75,2.5,13.51,0,14.08-7.63,26.37-18.97,32.99-.57,1.64-1.15,3.28-1.71,4.92,1.43.16,2.89.27,4.37.27ZM520.23,367.96c-3.61.16-7.27.82-10.85,2.07-19.93,6.9-30.5,28.64-23.6,48.56,6.9,19.93,28.65,30.49,48.57,23.59,3.6-1.24,6.88-2.97,9.82-5.09-16.44.71-32.07-9.32-37.72-25.65s.43-33.88,13.78-43.48Z"/>
</svg>
