<?xml version="1.0" encoding="UTF-8"?>
<svg id="Layer_1" data-name="Layer 1" xmlns="http://www.w3.org/2000/svg" viewBox="0 0 1000 1000">
  <defs>
    <style>
      .cls-1 {
        fill: #ff6e99;
      }
    </style>
  </defs>
  <path class="cls-1" d="M447.06,695.64v274.46c0,16.52-13.38,29.9-29.9,29.9h-73.71c-21.37,0-38.69-17.32-38.69-38.69,0-10.69,4.33-20.36,11.34-27.36,6.99-7.01,16.67-11.33,27.35-11.33h26.22v-251.9"/>
  <path class="cls-1" d="M620.48,675.23v294.87c0,16.52-13.38,29.9-29.9,29.9h-73.71c-21.37,0-38.69-17.32-38.69-38.69,0-10.69,4.33-20.36,11.34-27.36,6.99-7.01,16.67-11.33,27.35-11.33h26.22v-225.4"/>
  <circle class="cls-1" cx="500" cy="444.35" r="339.35"/>
</svg>