<?xml version="1.0" encoding="UTF-8"?>
<svg id="Layer_1" data-name="Layer 1" xmlns="http://www.w3.org/2000/svg" viewBox="0 0 1000 1000">
  <defs>
    <style>
      .cls-1 {
        fill: #4d99ed;
      }
    </style>
  </defs>
  <path class="cls-1" d="M798.9,403.9c0,122.6-73.82,227.97-179.43,274.07v292.38c0,16.38-13.27,29.65-29.65,29.65h-73.09c-21.19,0-38.37-17.17-38.37-38.37,0-10.6,4.29-20.19,11.24-27.13,6.94-6.95,16.53-11.24,27.12-11.24h26v-223.5c-13.96,2-28.22,3.03-42.73,3.03-17.91,0-35.45-1.58-52.49-4.6v272.15c0,16.38-13.27,29.65-29.65,29.65h-73.09c-21.19,0-38.37-17.17-38.37-38.37,0-10.6,4.29-20.19,11.24-27.13,6.94-6.95,16.53-11.24,27.12-11.24h26v-249.78c-100.38-48.19-169.67-150.8-169.67-269.59,0-165.08,133.82-298.9,298.9-298.9s298.9,133.82,298.9,298.9Z"/>
</svg>