<?xml version="1.0" encoding="UTF-8"?>
<svg id="Layer_1" data-name="Layer 1" xmlns="http://www.w3.org/2000/svg" viewBox="0 0 1000 1500">
  <defs>
    <style>
      .cls-1 {
        fill: #f16e98;
      }
    </style>
  </defs>
  <path class="cls-1" d="M885.72,826.06c0,56.59-21.58,113.17-64.75,156.33l-8.3,8.3-212,212v213.5h28.39c11.58,0,22.05,4.69,29.63,12.28,7.59,7.58,12.28,18.05,12.28,29.63,0,23.14-18.76,41.91-41.91,41.91h-79.83c-17.89,0-32.39-14.49-32.39-32.39v-199.25c-11.1,2.38-22.61,2.38-33.71,0v199.25c0,17.89-14.49,32.39-32.38,32.39h-79.84c-23.14,0-41.91-18.76-41.91-41.91,0-11.58,4.69-22.05,12.27-29.63,7.58-7.59,18.06-12.28,29.63-12.28h28.39v-213.5l-220.29-220.29c-86.34-86.34-86.34-226.32,0-312.67,43.17-43.16,99.75-64.75,156.34-64.75s113.16,21.59,156.33,64.75l8.3,8.3,8.3-8.3c86.34-86.34,226.32-86.34,312.67,0,43.17,43.17,64.75,99.76,64.75,156.34Z"/>
</svg>
