<?xml version="1.0" encoding="UTF-8"?>
<svg id="Layer_1" data-name="Layer 1" xmlns="http://www.w3.org/2000/svg" viewBox="0 0 1000 1000">
  <defs>
    <style>
      .cls-1 {
        fill: #ff6e99;
      }
    </style>
  </defs>
  <path class="cls-1" d="M671.57,728.7v124.43h10.83c20.28,0,38.64,8.22,51.92,21.51,13.29,13.29,21.51,31.65,21.51,51.93,0,40.56-32.87,73.43-73.43,73.43h-131.19c-14.64,0-26.51-11.86-26.51-26.5v-244.79h-49.08v244.79c0,14.64-11.87,26.5-26.51,26.5h-131.19c-40.56,0-73.43-32.87-73.43-73.43,0-20.28,8.22-38.64,21.51-51.93,13.29-13.29,31.65-21.51,51.92-21.51h10.83v-124.43h-7.84c-15.6,0-29.42-10.04-34.24-24.87l-110.79-340.97c-4.82-14.83.46-31.08,13.08-40.24L479,111.87c12.62-9.16,29.7-9.16,42.32,0l290.05,210.74c12.62,9.16,17.9,25.41,13.07,40.24l-110.79,340.97c-4.82,14.84-18.64,24.87-34.24,24.87h-7.84Z"/>
</svg>
