<?xml version="1.0" encoding="UTF-8"?>
<svg id="Layer_1" data-name="Layer 1" xmlns="http://www.w3.org/2000/svg" viewBox="0 0 1000 1000">
  <defs>
    <style>
      .cls-1 {
        fill: #4d99ed;
      }
    </style>
  </defs>
  <path class="cls-1" d="M761.15,207.55l127.07,508.27c4.7,18.79-9.51,36.98-28.88,36.98h-195.05v106.56h10.37c19.42,0,37,7.87,49.72,20.59,12.72,12.73,20.59,30.3,20.59,49.71,0,38.96-32.09,70.33-71.05,70.33h-124.89c-14.02,0-25.38-11.36-25.38-25.38v-221.82h-47v221.82c0,14.02-11.36,25.38-25.38,25.38h-124.89c-38.96,0-71.06-31.37-71.05-70.33,0-19.41,7.87-36.99,20.59-49.71,12.72-12.72,30.3-20.59,49.72-20.59h10.37v-106.56h-195.33c-19.36,0-33.57-18.2-28.88-36.98l127.07-508.27c3.31-13.25,15.22-22.55,28.88-22.55h464.54c13.66,0,25.56,9.3,28.88,22.55Z"/>
</svg>