<?xml version="1.0" encoding="UTF-8"?>
<svg id="Layer_1" data-name="Layer 1" xmlns="http://www.w3.org/2000/svg" viewBox="0 0 1000 1000">
  <defs>
    <style>
      .cls-1 {
        fill: #ff7bac;
      }

      .cls-2 {
        fill: #4d99ed;
      }
    </style>
  </defs>
  <path class="cls-2" d="M783.88,219.54v498.78c0,19.05-15.44,34.49-34.49,34.49h-85.11v106.56h10.37c19.42,0,37,7.87,49.72,20.59,12.72,12.73,20.59,30.31,20.59,49.72,0,38.83-31.48,70.31-70.31,70.31h-125.62c-14.02,0-25.38-11.36-25.38-25.38v-221.81h-47v221.81c0,14.02-11.37,25.38-25.38,25.38h-125.62c-38.84,0-70.31-31.48-70.31-70.31,0-19.42,7.87-37,20.59-49.72,12.72-12.72,30.3-20.59,49.72-20.59h10.37v-106.56h-85.4c-19.05,0-34.49-15.44-34.49-34.49V219.54c0-19.05,15.44-34.49,34.49-34.49h498.78c19.05,0,34.49,15.44,34.49,34.49Z"/>
  <path class="cls-1" d="M783.88,219.54v498.78c0,19.05-15.44,34.49-34.49,34.49h-85.11v106.56h10.37c19.42,0,37,7.87,49.72,20.59,12.72,12.73,20.59,30.31,20.59,49.72,0,38.83-31.48,70.31-70.31,70.31h-125.62c-14.02,0-25.38-11.36-25.38-25.38v-221.81h-47v221.81c0,14.02-11.37,25.38-25.38,25.38h-125.62c-38.84,0-70.31-31.48-70.31-70.31,0-19.42,7.87-37,20.59-49.72,12.72-12.72,30.3-20.59,49.72-20.59h10.37v-106.56h-85.4c-19.05,0-34.49-15.44-34.49-34.49V219.54c0-19.05,15.44-34.49,34.49-34.49h498.78c19.05,0,34.49,15.44,34.49,34.49Z"/>
</svg>
