<?xml version="1.0" encoding="UTF-8"?>
<svg id="Layer_1" data-name="Layer 1" xmlns="http://www.w3.org/2000/svg" viewBox="0 0 1000 1000">
  <defs>
    <style>
      .cls-1 {
        fill: #ff6e99;
      }
    </style>
  </defs>
  <path class="cls-1" d="M675.12,606.19v243.71h11.07c20.73,0,39.49,8.4,53.07,21.98,13.58,13.59,21.98,32.35,21.98,53.08,0,41.45-33.6,75.05-75.05,75.05h-134.08c-14.96,0-27.1-12.13-27.1-27.09v-366.72h-50.17v366.72c0,14.96-12.13,27.09-27.1,27.09h-134.08c-41.45,0-75.05-33.6-75.05-75.05,0-20.73,8.4-39.49,21.98-53.08,13.58-13.58,32.34-21.98,53.07-21.98h11.07v-243.71"/>
  <path class="cls-1" d="M947.09,734.28c25.22,0,44.72-22.12,41.57-47.14-39.84-316.25-243.49-557-488.74-557S51.02,370.89,11.18,687.14c-3.15,25.02,16.35,47.14,41.57,47.14h894.34Z"/>
</svg>
