<?xml version="1.0" encoding="UTF-8"?>
<svg id="Layer_1" data-name="Layer 1" xmlns="http://www.w3.org/2000/svg" viewBox="0 0 1000 1500">
  <defs>
    <style>
      .cls-1 {
        fill: #f16e98;
      }
    </style>
  </defs>
  <path class="cls-1" d="M778.83,1227.18h-104.83v123.87h10.98c20.57,0,39.18,8.33,52.66,21.81,13.48,13.48,21.81,32.1,21.81,52.67,0,41.13-33.34,74.47-74.47,74.47h-133.05c-14.85,0-26.89-12.03-26.89-26.88v-245.94h-49.78v245.94c0,14.85-12.04,26.88-26.89,26.88h-133.05c-41.13,0-74.47-33.34-74.47-74.47,0-20.57,8.33-39.18,21.81-52.67,13.48-13.48,32.09-21.81,52.66-21.81h10.98v-123.87h-105.14c-39.72,0-65.04-42.42-46.18-77.37l278.82-516.97c19.82-36.75,72.54-36.75,92.36,0l278.83,516.97c18.85,34.96-6.46,77.37-46.18,77.37Z"/>
</svg>
